<?xml version="1.0" standalone="no"?>
<!DOCTYPE svg PUBLIC "-//W3C//DTD SVG 20010904//EN"
 "http://www.w3.org/TR/2001/REC-SVG-20010904/DTD/svg10.dtd">
<svg version="1.0" xmlns="http://www.w3.org/2000/svg"
 width="1280.000000pt" height="1280.000000pt" viewBox="0 0 1280.000000 1280.000000"
 preserveAspectRatio="xMidYMid meet">

<g transform="translate(0.000000,1280.000000) scale(0.100000,-0.100000)"
fill="#000000" stroke="none">
<path d="M5855 9543 c-16 -2 -79 -16 -140 -30 -95 -22 -136 -26 -305 -28 -206
-2 -257 -10 -320 -50 -20 -13 -106 -58 -190 -100 -178 -89 -264 -150 -375
-265 -44 -45 -89 -91 -100 -102 -11 -11 -54 -40 -96 -64 -75 -44 -130 -96
-219 -207 -36 -46 -63 -67 -142 -108 -172 -91 -245 -178 -317 -384 -44 -124
-61 -211 -61 -314 0 -123 18 -177 79 -232 l49 -45 -5 -106 c-6 -102 -5 -108
24 -170 51 -108 143 -167 303 -192 l75 -12 20 -74 c35 -124 73 -177 175 -245
113 -75 157 -91 340 -120 14 -2 53 3 87 11 l61 15 99 -45 c194 -89 372 -110
514 -60 81 29 176 35 284 20 l61 -8 -4 -92 c-4 -85 -2 -93 22 -126 52 -72 56
-82 40 -119 l-14 -33 -32 20 c-26 17 -34 30 -43 75 -13 64 -24 80 -80 113 -86
50 -213 50 -263 0 l-27 -26 62 0 c52 0 68 -5 109 -32 33 -22 58 -50 77 -85 17
-32 46 -65 76 -87 58 -43 81 -87 81 -153 -1 -63 -28 -121 -85 -179 -25 -26
-60 -75 -78 -107 -37 -70 -94 -117 -142 -117 -18 0 -55 7 -83 16 -46 15 -54
15 -108 -1 -32 -9 -81 -28 -109 -43 -104 -53 -236 -26 -336 70 -53 51 -101 68
-188 68 -150 0 -244 92 -245 240 -1 87 23 148 80 199 45 40 50 61 24 96 -16
21 -20 84 -9 134 7 32 26 71 50 103 21 29 39 55 39 59 0 4 -11 10 -25 13 -58
15 -158 -61 -195 -147 -24 -56 -28 -101 -15 -184 7 -49 5 -58 -30 -128 -33
-65 -39 -87 -43 -160 -4 -72 -1 -90 18 -129 51 -106 210 -186 368 -186 56 0
59 -1 95 -45 62 -73 215 -135 337 -135 55 0 145 27 192 57 40 26 50 28 154 29
100 0 117 3 167 28 64 31 98 67 135 143 15 29 30 53 34 53 4 0 37 -20 72 -44
98 -67 149 -81 293 -79 115 2 125 0 150 -21 70 -59 186 -95 303 -96 25 0 74
-7 110 -15 154 -35 187 -38 250 -25 58 12 151 60 186 94 23 24 44 19 93 -19
80 -63 247 -93 417 -74 92 10 108 9 184 -10 202 -51 456 -13 613 92 28 19 95
50 147 68 72 26 104 44 135 74 49 48 126 203 149 295 8 36 36 110 62 165 47
100 47 100 52 230 2 72 0 146 -6 166 -7 27 -5 56 10 125 16 72 19 111 14 204
-3 63 -8 125 -12 138 -6 21 -3 22 40 22 106 0 210 101 251 244 14 48 27 68 71
109 60 56 94 128 94 202 0 59 -9 79 -73 159 -54 68 -55 69 -59 150 -9 149 -91
270 -213 316 -85 31 -225 26 -307 -12 -85 -39 -91 -56 -98 -273 -5 -151 -10
-187 -26 -225 -28 -61 -46 -75 -76 -59 -13 7 -25 15 -28 19 -3 3 -48 36 -100
72 -52 37 -122 89 -154 117 -56 48 -65 51 -193 82 -128 29 -136 33 -175 73
-22 22 -68 84 -102 136 -54 82 -69 99 -116 123 -29 15 -64 27 -77 27 -13 0
-39 6 -58 14 -31 13 -43 32 -126 203 -78 159 -101 196 -145 240 -30 28 -71 57
-91 63 -21 7 -58 23 -83 36 -25 13 -70 34 -101 48 -44 18 -66 37 -97 77 -76
102 -163 170 -276 214 -46 18 -119 58 -163 89 -99 69 -123 79 -287 122 -72 18
-156 40 -186 49 -52 14 -109 17 -175 8z m187 -131 c31 -11 104 -25 163 -31
119 -12 128 -17 276 -137 68 -54 84 -63 145 -74 103 -19 108 -22 172 -116 51
-76 87 -107 166 -143 34 -15 91 -50 128 -77 36 -27 86 -61 110 -75 41 -24 50
-38 131 -201 93 -187 105 -202 217 -265 30 -17 71 -34 90 -38 55 -12 148 -62
161 -87 7 -13 34 -50 62 -83 71 -85 81 -114 72 -205 -11 -107 -11 -119 4 -179
20 -81 10 -179 -24 -233 -15 -24 -40 -51 -55 -60 -17 -9 -43 -45 -65 -87 -63
-119 -191 -221 -278 -221 -34 0 -37 2 -37 28 0 79 -87 240 -150 274 -52 29
-150 18 -297 -31 l-118 -39 -90 20 c-49 12 -95 25 -102 30 -6 5 -19 30 -27 56
l-16 46 27 22 27 22 -28 40 c-30 44 -48 106 -40 137 15 54 27 74 52 80 40 10
72 33 72 53 0 10 -13 28 -30 40 -23 18 -30 30 -30 58 0 45 21 94 61 143 32 41
34 71 4 71 -49 0 -131 -58 -173 -124 -24 -37 -27 -51 -28 -136 -1 -64 -7 -110
-19 -140 -13 -34 -16 -67 -13 -140 l3 -95 -30 3 c-16 1 -59 10 -95 18 -74 18
-133 14 -161 -12 -11 -10 -37 -54 -58 -98 -21 -45 -45 -87 -54 -95 -23 -18
-21 -43 4 -75 23 -30 68 -35 93 -11 15 16 46 105 46 134 0 9 5 33 11 55 10 38
11 38 49 32 44 -7 230 -91 230 -103 0 -4 -7 -17 -15 -27 -22 -29 -4 -36 86
-36 83 0 134 -14 198 -54 57 -36 86 -33 165 19 139 91 225 105 280 44 26 -30
28 -36 24 -104 -3 -60 -10 -85 -41 -148 l-39 -75 16 -46 c20 -58 21 -170 1
-225 -15 -45 -119 -172 -169 -209 -64 -45 -219 -61 -485 -49 -166 8 -185 12
-343 73 -97 37 -123 52 -151 85 -40 46 -67 120 -74 205 -9 98 22 182 111 308
18 25 18 28 3 43 -35 35 -124 -19 -190 -115 -37 -52 -64 -133 -72 -214 l-7
-68 -35 0 c-19 0 -67 -14 -106 -31 -84 -37 -137 -36 -214 5 -26 15 -54 26 -62
26 -7 0 -48 -16 -90 -34 -99 -45 -176 -53 -298 -32 -122 21 -191 48 -246 96
-46 41 -83 51 -93 26 -23 -61 -248 -2 -369 97 -63 51 -93 91 -116 160 -25 71
-23 133 6 262 42 179 41 163 11 171 -35 8 -74 76 -85 146 -11 65 0 132 33 204
19 41 32 56 60 68 42 17 43 23 16 73 -25 47 -27 141 -3 186 9 18 31 52 49 76
19 24 31 47 28 52 -23 37 -139 -43 -182 -125 -25 -47 -27 -59 -25 -152 2 -99
2 -102 -32 -159 -90 -149 -82 -294 22 -390 l36 -33 -40 -109 -41 -108 -51 -3
c-93 -6 -201 66 -251 165 -33 65 -40 173 -14 221 l18 34 -37 31 c-57 50 -70
92 -71 237 0 100 4 141 22 204 47 164 147 320 233 363 24 12 59 39 78 59 35
36 89 65 166 88 31 9 45 21 62 53 24 43 63 84 208 216 208 192 238 213 348
247 34 11 118 54 187 96 204 125 166 115 395 112 l200 -2 110 37 c98 33 118
37 185 33 41 -3 100 -13 132 -24z m3005 -1201 c49 -23 93 -80 124 -160 l21
-56 -31 -59 c-30 -55 -31 -60 -15 -77 9 -10 29 -21 45 -24 66 -15 122 -124 99
-198 -16 -54 -74 -115 -116 -123 -46 -8 -58 -32 -39 -77 13 -32 13 -38 -10
-83 -13 -27 -38 -66 -55 -86 -26 -32 -38 -38 -68 -38 -49 1 -61 9 -170 115
-69 67 -92 96 -92 115 0 14 -16 58 -35 99 -19 40 -35 78 -35 84 0 7 28 37 63
68 97 87 147 208 147 356 0 146 56 194 167 144z m-935 -265 c60 -26 76 -42
110 -105 21 -41 28 -46 85 -61 85 -23 132 -58 202 -152 57 -74 64 -91 100
-218 4 -14 27 -38 55 -57 97 -63 143 -129 182 -259 26 -87 23 -254 -6 -359
-30 -105 -35 -166 -19 -223 21 -72 17 -168 -10 -227 -13 -27 -40 -101 -62
-163 -65 -192 -149 -312 -218 -312 -47 0 -200 -49 -234 -74 -79 -59 -180 -92
-319 -102 -72 -6 -94 -4 -148 15 -59 21 -71 21 -149 11 -64 -8 -107 -8 -175 0
-109 15 -143 30 -162 75 -21 51 -18 171 6 223 28 62 112 146 160 161 47 14 48
15 95 156 32 95 43 116 81 151 50 47 54 61 19 70 -77 19 -191 -38 -232 -115
-17 -34 -23 -61 -23 -112 0 -83 -11 -96 -112 -130 -127 -43 -198 -135 -198
-257 0 -79 -6 -87 -105 -151 -158 -103 -202 -113 -275 -58 -43 31 -48 32 -150
35 -90 2 -113 6 -158 28 -97 48 -135 141 -91 229 16 31 20 50 14 59 -45 61
-49 72 -49 120 1 63 34 130 73 150 16 9 59 20 97 26 37 6 74 16 80 21 30 25
83 28 253 18 152 -10 188 -9 260 5 47 8 87 14 89 11 3 -2 -3 -25 -13 -50 -33
-89 -98 -102 -212 -42 -70 36 -123 48 -123 27 0 -6 18 -30 40 -53 126 -138
336 -143 420 -11 33 53 36 79 18 165 l-12 58 45 93 c43 90 44 96 43 183 -1 50
-3 114 -5 143 -3 49 0 55 32 88 34 34 36 34 129 37 148 3 207 41 345 223 33
43 77 97 97 119 84 89 104 183 69 327 -17 70 -19 96 -11 130 5 24 10 69 10
101 0 31 2 57 5 57 2 0 28 -11 57 -24z m-2147 -1308 c52 -89 142 -142 317
-188 126 -33 146 -45 96 -55 -51 -11 -103 -41 -131 -75 -56 -66 -74 -212 -37
-285 14 -28 18 -50 14 -75 -14 -89 -28 -141 -40 -151 -9 -7 -52 -10 -121 -7
-89 3 -117 8 -157 29 -69 34 -75 47 -46 105 31 63 36 127 16 199 -10 31 -16
58 -14 59 45 20 67 39 83 70 11 21 31 43 45 48 55 20 44 47 -31 79 -29 13 -51
30 -55 43 -12 38 -5 175 11 207 20 37 26 37 50 -3z"/>
<path d="M5569 7635 c-26 -7 -52 -16 -58 -20 -23 -14 -31 -55 -20 -100 16 -62
46 -92 104 -100 90 -14 118 22 95 123 -22 100 -43 117 -121 97z"/>
<path d="M4782 7605 c-59 -26 -86 -151 -42 -195 29 -29 110 -28 146 3 24 21
27 30 28 101 1 66 -2 80 -18 92 -25 18 -71 17 -114 -1z"/>
<path d="M5178 7372 c-160 -43 -156 -136 10 -192 69 -24 70 -24 118 -5 27 10
66 36 87 57 32 33 38 46 35 75 -4 50 -37 72 -118 78 -45 4 -86 -1 -132 -13z"/>
<path d="M6414 6909 c-34 -10 -52 -38 -33 -50 6 -4 28 -5 48 -2 26 4 41 0 50
-11 20 -23 41 -20 41 7 0 26 -38 68 -61 66 -8 0 -28 -5 -45 -10z"/>
<path d="M6760 6811 c-14 -4 -26 -15 -28 -24 -4 -17 4 -20 48 -18 16 1 37 -8
55 -24 25 -24 29 -25 38 -10 6 12 4 27 -9 51 -19 36 -44 42 -104 25z"/>
<path d="M6575 6709 c5 -31 3 -40 -10 -46 -10 -3 -27 -1 -38 6 -21 14 -41 3
-28 -17 9 -16 161 -36 175 -22 9 9 -7 18 -58 34 -18 6 -17 9 9 36 30 31 28 34
-28 43 -28 4 -28 4 -22 -34z"/>
<path d="M7442 5200 c-167 -5 -185 -7 -198 -24 -12 -17 -14 -110 -14 -563 l0
-544 25 -24 c21 -22 33 -25 98 -25 116 0 111 -10 117 244 4 189 7 218 23 233
15 16 43 19 210 23 189 5 193 5 257 36 214 101 277 346 131 506 -117 129 -218
150 -649 138z m302 -109 c53 -23 122 -90 142 -137 37 -87 2 -223 -71 -279 -67
-51 -113 -65 -212 -65 -138 0 -133 -9 -133 246 0 214 4 238 43 255 35 15 181
3 231 -20z"/>
<path d="M5977 5182 c-15 -17 -17 -71 -17 -575 0 -492 2 -557 16 -571 24 -25
185 -23 207 2 15 16 17 54 17 320 l0 300 27 33 c51 61 148 77 224 39 78 -40
79 -46 79 -382 0 -256 2 -299 16 -312 22 -23 176 -23 199 0 14 15 16 53 13
343 -3 356 -3 353 -65 415 -51 52 -117 76 -213 76 -74 0 -93 -4 -148 -30 -127
-60 -136 -49 -139 168 -3 197 1 191 -119 192 -66 0 -84 -3 -97 -18z"/>
<path d="M3342 5174 c-13 -9 -28 -28 -33 -42 -7 -17 -8 -209 -3 -551 l7 -525
23 -23 c20 -20 33 -23 93 -23 114 0 122 15 121 250 -2 196 5 225 53 234 12 2
103 8 202 13 178 9 181 9 243 43 80 42 155 123 177 191 26 77 22 169 -9 233
-49 101 -132 163 -261 196 -68 17 -111 20 -334 20 -219 0 -260 -2 -279 -16z
m486 -105 c75 -37 117 -86 138 -158 46 -156 -72 -300 -259 -318 -75 -7 -129 8
-146 40 -7 14 -12 91 -14 219 -2 195 -2 196 22 222 23 24 31 26 111 26 77 0
94 -4 148 -31z"/>
<path d="M9415 5006 c-44 -45 -117 -108 -162 -140 -46 -32 -83 -64 -83 -72 0
-10 14 -14 54 -14 40 0 55 -4 60 -16 3 -9 6 -177 6 -375 l0 -359 115 0 115 0
2 373 3 372 87 3 c52 2 97 -2 109 -9 31 -16 42 1 34 55 l-7 46 -114 0 -114 0
0 110 c0 82 -3 110 -12 110 -7 -1 -49 -38 -93 -84z"/>
<path d="M8523 4865 c-83 -23 -133 -53 -204 -122 -89 -85 -121 -155 -127 -274
-11 -222 104 -370 339 -436 78 -22 368 -25 437 -5 40 12 42 14 42 53 0 53 -14
57 -103 28 -107 -35 -222 -34 -299 4 -101 50 -156 142 -166 279 -4 71 -3 83
13 95 15 10 80 13 301 13 155 0 289 3 298 6 21 8 20 47 -1 110 -34 101 -98
172 -203 225 -59 30 -74 33 -170 36 -71 2 -122 -2 -157 -12z m198 -78 c40 -27
71 -71 95 -133 16 -42 16 -46 0 -62 -23 -23 -300 -31 -330 -9 -26 19 -15 71
27 134 61 91 139 117 208 70z"/>
<path d="M4561 4854 c-122 -33 -237 -128 -294 -243 -30 -63 -32 -71 -32 -181
1 -106 3 -119 30 -174 44 -90 121 -166 212 -212 l78 -39 130 0 c129 0 131 0
206 36 329 157 345 587 29 772 -94 54 -245 72 -359 41z m190 -69 c96 -50 162
-254 139 -425 -16 -119 -44 -186 -100 -242 -44 -45 -51 -48 -99 -48 -44 0 -56
5 -91 36 -52 47 -88 123 -106 225 -49 276 98 536 257 454z"/>
<path d="M5395 4852 c-66 -23 -108 -54 -137 -100 -19 -30 -23 -51 -22 -107 0
-114 44 -166 219 -260 150 -81 185 -116 185 -189 0 -75 -93 -134 -193 -123
-28 4 -79 20 -111 37 -70 36 -82 37 -96 9 -36 -65 47 -109 223 -117 171 -8
274 30 341 126 24 33 31 56 34 105 8 119 -40 180 -226 289 -140 82 -172 113
-172 167 0 31 7 48 28 72 24 27 37 33 86 37 49 4 65 0 121 -27 78 -39 99 -38
103 6 2 24 -2 35 -20 47 -69 45 -269 61 -363 28z"/>
<path d="M3810 3717 c-3 -3 -3 -57 0 -121 5 -109 6 -117 32 -143 23 -22 36
-27 78 -27 42 0 55 5 78 27 26 26 27 34 32 143 3 64 2 118 -2 121 -5 2 -8 -44
-8 -102 0 -126 -12 -159 -65 -174 -45 -12 -101 3 -117 32 -7 12 -15 72 -18
135 -3 63 -7 112 -10 109z"/>
<path d="M4105 3709 c5 -8 26 -39 47 -69 21 -30 38 -59 38 -63 0 -4 -17 -34
-38 -65 -52 -77 -57 -86 -45 -79 6 4 27 32 47 62 20 30 40 57 45 60 5 2 30
-27 57 -65 26 -38 49 -68 52 -65 2 2 -18 37 -46 78 l-50 74 50 71 c27 40 46
72 41 72 -4 0 -28 -30 -52 -65 -24 -36 -46 -65 -47 -65 -2 0 -21 27 -44 59
-22 33 -45 63 -51 67 -8 5 -9 3 -4 -7z"/>
<path d="M4392 3608 c-2 -111 -1 -118 23 -146 48 -57 150 -50 182 11 19 37 30
232 13 242 -6 4 -10 -32 -10 -100 0 -126 -12 -159 -65 -174 -45 -12 -95 2
-115 31 -10 16 -17 61 -21 138 l-5 115 -2 -117z"/>
<path d="M4718 3714 c-11 -10 -10 -284 0 -284 5 0 8 19 8 43 l-1 42 57 3 56 3
31 -45 c17 -25 36 -48 43 -52 13 -8 5 7 -29 52 -13 17 -23 33 -23 37 0 3 14
19 30 35 39 40 42 97 6 139 -21 25 -32 28 -97 31 -41 2 -77 0 -81 -4z m135
-13 c61 -23 76 -87 33 -138 -22 -26 -30 -28 -92 -28 l-67 0 1 85 c1 47 1 86 2
88 1 6 102 1 123 -7z"/>
<path d="M4970 3714 c0 -5 24 -48 52 -94 43 -70 54 -96 59 -145 l6 -60 1 60
c2 53 8 70 48 135 61 99 69 114 55 106 -6 -4 -32 -43 -58 -86 -26 -44 -51 -76
-55 -72 -5 5 -31 44 -58 87 -28 44 -50 75 -50 69z"/>
<path d="M5382 3568 c1 -84 3 -129 5 -100 l4 52 59 0 c58 0 58 0 87 -45 15
-25 32 -45 36 -45 4 0 -6 21 -24 46 -25 37 -29 48 -18 55 8 5 18 9 22 9 17 0
39 73 32 107 -9 50 -52 73 -137 73 l-68 0 2 -152z m149 127 c36 -19 51 -53 42
-96 -9 -44 -53 -69 -125 -69 l-58 0 0 90 0 90 55 0 c31 0 69 -7 86 -15z"/>
<path d="M5680 3570 l0 -150 93 2 92 2 -85 5 -85 6 0 65 0 65 75 6 75 5 -77 2
-78 2 0 65 0 64 88 4 87 3 -92 2 -93 2 0 -150z"/>
<path d="M5948 3713 l52 -4 2 -147 2 -147 6 145 5 145 50 6 c32 4 11 6 -60 6
-60 -1 -86 -2 -57 -4z"/>
<path d="M6172 3568 c1 -84 3 -129 5 -100 l4 52 58 0 59 0 32 -50 c18 -28 35
-49 37 -46 3 2 -10 26 -27 51 -26 38 -30 49 -19 56 8 5 17 9 22 9 4 0 15 16
24 35 13 27 14 43 7 72 -12 50 -56 73 -141 73 l-63 0 2 -152z m143 127 c40
-16 57 -51 48 -96 -9 -44 -53 -69 -125 -69 l-58 0 0 90 0 90 50 0 c28 0 66 -7
85 -15z"/>
<path d="M6470 3570 l0 -150 93 2 92 2 -87 3 -88 4 0 69 0 69 78 4 77 3 -77 2
-78 2 0 65 0 64 88 4 87 3 -92 2 -93 2 0 -150z"/>
<path d="M6813 3704 c-3 -11 -32 -76 -64 -146 -31 -71 -53 -128 -49 -128 4 0
15 18 24 40 l16 40 87 0 88 0 17 -42 c10 -23 20 -39 23 -36 3 3 -17 54 -43
114 -27 60 -52 119 -56 131 -4 11 -13 27 -21 33 -12 10 -16 9 -22 -6z m60
-101 l35 -83 -80 0 c-44 0 -78 4 -76 8 2 4 18 45 37 91 19 45 37 79 41 74 4
-4 24 -45 43 -90z"/>
<path d="M6998 3713 l52 -4 2 -147 2 -147 6 145 5 145 50 6 c32 4 11 6 -60 6
-60 -1 -86 -2 -57 -4z"/>
<path d="M7340 3569 c0 -97 4 -148 10 -144 6 3 10 35 10 71 l0 64 68 2 67 2
-65 3 c-35 2 -67 8 -70 13 -3 4 -3 35 -2 69 l4 60 76 4 77 3 -87 2 -88 2 0
-151z"/>
<path d="M7624 3700 c-45 -22 -84 -81 -84 -124 0 -66 60 -139 123 -151 42 -8
110 18 137 52 52 67 43 153 -21 205 -49 39 -102 45 -155 18z m121 -10 c56 -27
80 -71 73 -134 -16 -137 -188 -165 -248 -41 -34 71 -9 143 62 178 43 22 63 21
113 -3z"/>
<path d="M7912 3573 c1 -82 3 -127 5 -100 l4 47 59 0 c59 0 59 0 90 -45 31
-45 55 -64 28 -22 -8 12 -23 34 -33 50 -15 23 -15 27 -2 27 23 0 57 53 57 90
0 69 -44 100 -145 100 l-65 0 2 -147z m174 103 c31 -35 31 -77 0 -113 -22 -26
-30 -28 -93 -28 l-68 0 -3 74 c-4 104 -4 104 74 99 58 -4 70 -8 90 -32z"/>
<path d="M8332 3568 c1 -84 3 -129 5 -100 l4 52 55 0 c78 0 119 20 134 64 27
84 -26 136 -139 136 l-61 0 2 -152z m162 119 c21 -14 26 -25 26 -56 0 -22 -3
-47 -6 -56 -10 -26 -59 -45 -119 -45 l-55 0 0 91 0 91 64 -4 c37 -2 74 -11 90
-21z"/>
<path d="M8604 3707 c-2 -7 -3 -74 -2 -148 l3 -134 95 -3 c52 -1 91 0 88 4 -4
3 -44 7 -90 8 l-83 1 0 65 0 65 75 5 75 6 -75 4 -75 5 0 60 0 60 85 6 85 5
-88 2 c-64 1 -89 -1 -93 -11z"/>
<path d="M8873 3713 l47 -4 0 -140 c0 -86 4 -139 10 -139 6 0 10 53 10 139 l0
140 48 4 c26 2 0 3 -58 3 -58 0 -84 -1 -57 -3z"/>
<path d="M9119 3709 c-14 -5 -31 -21 -38 -35 -19 -42 4 -75 75 -104 80 -33 84
-37 84 -68 0 -37 -11 -51 -48 -61 -33 -10 -96 2 -107 19 -4 6 -12 10 -18 10
-23 -1 33 -38 67 -44 45 -9 102 15 117 47 19 42 -6 78 -77 107 -80 33 -84 37
-84 69 0 49 48 68 125 48 l30 -7 -25 15 c-28 16 -63 18 -101 4z"/>
<path d="M3600 3565 l0 -145 70 0 c39 0 70 3 70 8 0 4 -26 7 -57 7 l-58 0 -3
138 c-4 187 -22 181 -22 -8z"/>
</g>
</svg>
