<svg width="61" height="60" viewBox="0 0 61 60" fill="none" xmlns="http://www.w3.org/2000/svg">
<path d="M44.0396 51.127C43.7583 50.6421 43.137 50.477 42.6515 50.7583L42.6124 50.7809C42.1274 51.0623 41.9623 51.6837 42.2437 52.1689C42.4321 52.4936 42.7728 52.675 43.123 52.675C43.2959 52.675 43.4714 52.6306 43.6317 52.5376L43.6708 52.515C44.1559 52.2336 44.3209 51.6121 44.0396 51.127Z" fill="#DB2316"/>
<path d="M53.1828 17.008C49.7111 10.995 44.1058 6.69395 37.3992 4.8969C30.6929 3.09986 23.6879 4.02215 17.6749 7.49365C11.662 10.9652 7.3608 16.5706 5.56385 23.2771C3.76691 29.9836 4.68909 36.9886 8.1606 43.0015C11.2746 48.3952 16.224 52.4944 22.0969 54.5437C24.8808 55.515 27.787 55.9998 30.6888 55.9998C33.8438 55.9998 36.9932 55.4264 39.9701 54.2823C40.4936 54.0811 40.7549 53.4935 40.5536 52.97C40.3523 52.4464 39.7646 52.1849 39.2413 52.3865C31.3174 55.4321 22.7392 54.0483 16.3303 49.2377L17.2402 44.4881L17.6786 44.3457C19.3354 43.8074 20.2454 42.0216 19.7073 40.3647L19.3856 39.3745C19.3111 39.1454 19.3116 38.9032 19.3866 38.6743C19.6689 37.8138 19.568 36.8724 19.1099 36.0912C18.6517 35.3101 17.8793 34.7624 16.9905 34.5886L14.6983 34.1407L10.2754 30.778C10.0105 30.5765 9.66363 30.5177 9.34695 30.6204L6.75752 31.4616C6.70257 30.5354 6.70176 29.6096 6.75396 28.6886C6.85613 28.7838 6.92266 28.8485 6.96359 28.8909C7.01427 28.9753 7.07703 29.0527 7.15056 29.1198C7.36202 29.3123 7.55356 29.3997 7.95575 29.3997C8.32534 29.3996 8.87245 29.3259 9.77585 29.1925C10.6326 29.0658 11.4849 28.9231 11.4934 28.9217C11.8349 28.8645 12.1237 28.637 12.2596 28.3186C12.3955 28.0001 12.3596 27.6344 12.1645 27.3482L10.9192 25.5217L12.7029 24.2463C12.8217 24.1613 12.9208 24.0517 12.9935 23.9249L15.7583 19.0982L16.8727 17.904C18.0116 16.6834 18.3366 14.8977 17.7006 13.3543C17.3254 12.444 16.6701 11.6862 15.8505 11.1754C16.7382 10.4776 17.6846 9.83325 18.6905 9.25262C22.3811 7.12183 26.4086 6.08925 30.3939 6.04974L28.5804 8.32464L21.8554 10.6822C21.5823 10.7779 21.3629 10.9857 21.2526 11.2532L19.3745 15.806C19.2412 16.1295 19.2835 16.4986 19.4868 16.7834L22.2297 20.6257C21.8369 20.9841 21.4545 21.5061 20.9978 22.1543C20.7975 22.4386 20.6084 22.707 20.4777 22.8575C20.364 22.9885 20.2503 23.1165 20.1376 23.2433C19.5476 23.907 18.9376 24.5934 18.5042 25.5103C17.5514 27.5273 17.7438 29.8715 19.0065 31.6284C20.2273 33.327 22.2401 34.1905 24.3884 33.9378C24.7383 33.8968 25.0647 33.816 25.3804 33.7378C26.2511 33.5224 26.527 33.5009 26.8063 33.7623C26.9421 33.8895 26.9546 33.9136 26.9519 34.3452C26.95 34.6198 26.9478 34.9614 27.0425 35.3515C27.1941 35.9756 27.5861 36.407 27.9009 36.7535C28.0574 36.9257 28.2193 37.1038 28.2692 37.2233C28.5859 37.9824 28.448 38.4028 28.1458 39.324C28.1199 39.4028 28.0935 39.4832 28.067 39.5657C27.6078 40.987 28.2478 42.3969 28.8125 43.6407C28.9959 44.0446 29.1691 44.4258 29.2826 44.7628C30.1957 47.4724 30.8802 48.093 31.4296 48.3428C31.7173 48.4736 32.0151 48.531 32.3159 48.5309C33.7799 48.5308 35.3076 47.1715 36.0094 46.3097C36.4502 45.7686 36.5588 45.2268 36.638 44.831C36.6775 44.6341 36.7086 44.4788 36.7679 44.3772C36.8587 44.2218 36.9657 44.1013 37.101 43.9488C37.3733 43.6422 37.7122 43.2607 37.9317 42.5692C38.0985 42.0439 38.2197 41.9151 38.6209 41.4877C38.6908 41.4135 38.7652 41.3341 38.8452 41.2471C40.1979 39.7752 39.8495 38.6508 39.4805 37.4603C39.1701 36.4586 39.7131 35.8179 41.0261 34.5952C41.5953 34.0651 42.1837 33.5171 42.6386 32.8586C42.8377 32.5703 43.4433 31.6936 43.0686 30.8245C42.7012 29.9724 41.7675 29.8292 41.0174 29.7142C40.7211 29.6687 40.2734 29.6001 40.131 29.5069C39.5026 29.0961 39.1182 28.2387 38.7464 27.4095C38.6723 27.2444 38.5993 27.0815 38.5252 26.9234C38.3932 26.6412 38.2613 26.2999 38.1216 25.9385C37.7522 24.9822 37.3334 23.8982 36.6205 23.1426C35.9798 22.4637 34.7719 22.1366 33.7062 21.848C33.3478 21.751 33.0095 21.6594 32.7864 21.577C32.5994 21.508 32.3965 21.4955 32.2029 21.541C31.6842 21.6625 31.3606 21.7965 31.1203 21.9891C31.0569 22.0399 30.8689 22.207 30.7588 22.4755C30.3869 22.2971 29.8757 21.9564 29.561 21.7466C29.5545 21.7423 29.5479 21.7379 29.5414 21.7335C29.6475 21.3092 29.5515 20.9687 29.4509 20.756C28.8836 19.5559 27.0003 19.6499 26.6288 19.6815C26.4178 19.6991 26.1508 19.7086 25.8683 19.7185C25.4247 19.7343 24.9344 19.7519 24.4492 19.8064L24.4742 19.7367C24.8424 18.7106 25.8223 18.0212 26.9125 18.0212H27.4899C28.0506 18.0212 28.5054 17.5664 28.5054 17.0057C28.5054 16.445 28.0506 15.9902 27.4899 15.9902H26.9125C25.294 15.9902 23.8119 16.842 22.9812 18.1827L21.4664 16.0608L22.9567 12.4483L29.5281 10.1444C29.7083 10.0813 29.8671 9.96853 29.9863 9.81913L32.9075 6.15486C40.3718 6.86488 47.3979 11.0499 51.424 18.0234C52.4964 19.8808 53.2897 21.8363 53.8171 23.8364L53.3866 24.2203C52.8246 24.7217 52.4954 25.4409 52.4828 26.1935C52.4827 26.2018 52.4825 26.2099 52.4822 26.218L51.7808 24.2891C51.6763 24.0013 51.5223 23.7374 51.3234 23.5047L50.0723 22.0398C49.5872 21.472 48.881 21.1465 48.1344 21.1465H46.6029C46.0593 21.1465 45.5624 21.4443 45.306 21.9234C45.0495 22.4025 45.0776 22.9812 45.3791 23.4334L45.5341 23.6661C44.5445 24.5171 43.3998 25.198 42.1811 25.6573L40.0818 21.6361V20.739C40.0818 20.4616 39.9683 20.196 39.7675 20.0045L37.8771 18.1999C37.7728 18.1003 37.6485 18.0242 37.5125 17.9763L35.8108 17.3783C35.2813 17.1921 34.7018 17.4706 34.516 17.9997C34.33 18.5289 34.6082 19.1085 35.1373 19.2945L36.6327 19.8201L38.0508 21.1736V21.8854C38.0508 22.049 38.0904 22.2103 38.1661 22.3554L40.7943 27.3895C41.0306 27.8425 41.567 28.0495 42.0458 27.8724L42.8111 27.5902C44.5889 26.9345 46.2368 25.8798 47.5766 24.5402C47.9189 24.1978 47.9721 23.6617 47.7035 23.2588L47.6494 23.1776H48.1344C48.286 23.1776 48.4295 23.2438 48.528 23.3591L49.7792 24.824C49.8195 24.8712 49.8507 24.9246 49.872 24.9832L51.2528 28.7799C51.3714 29.1062 51.6484 29.3491 51.9871 29.4242C52.0602 29.4404 52.1338 29.4483 52.207 29.4483C52.4734 29.4483 52.7327 29.3434 52.9251 29.1508L53.5823 28.4936C53.9985 28.0773 54.285 27.5506 54.4219 26.9667C55.4384 35.1126 52.2443 43.539 45.493 48.8379C45.0518 49.1841 44.9748 49.8225 45.3212 50.2638C45.6674 50.705 46.3056 50.782 46.747 50.4356C51.6212 46.61 54.9697 41.1384 56.1758 35.0285C57.3931 28.8597 56.3303 22.4597 53.1828 17.008ZM9.46903 32.7164L13.6568 35.9005C13.7806 35.9946 13.9242 36.059 14.0767 36.0888L16.6007 36.582C16.9229 36.6449 17.1916 36.8355 17.3577 37.1186C17.5238 37.4017 17.5587 37.7292 17.4565 38.0411C17.2463 38.6823 17.2453 39.3604 17.4538 40.002L17.7755 40.992C17.9678 41.5837 17.6426 42.2216 17.051 42.4139L16.0417 42.7418C15.6896 42.8562 15.4278 43.1532 15.3582 43.5166L14.5459 47.7567C12.7602 46.1222 11.1922 44.1905 9.91956 41.9861C8.36688 39.297 7.39675 36.4288 6.96917 33.5286L9.46903 32.7164ZM15.3878 16.5183L14.1931 17.7983C14.1398 17.8555 14.0932 17.9186 14.0543 17.9865L11.3413 22.723L8.93014 24.4471C8.48103 24.7682 8.37073 25.3891 8.68172 25.8453L9.58349 27.168C9.0637 27.2454 8.59722 27.3092 8.28705 27.343C8.22743 27.2859 8.16507 27.2279 8.10058 27.1679C7.85916 26.9437 7.5237 26.6442 7.02361 26.2065C7.8484 21.1017 10.3082 16.2925 14.177 12.6215C14.9178 12.8548 15.5257 13.4074 15.8227 14.1282C16.1568 14.9389 15.986 15.8771 15.3878 16.5183ZM23.6682 22.068C24.1211 21.8131 25.1725 21.7758 25.9401 21.7486C26.2478 21.7377 26.5384 21.7273 26.798 21.7056C26.935 21.6941 27.0872 21.6963 27.2307 21.7074C27.1666 21.872 27.1458 22.0525 27.1736 22.2317C27.2225 22.5468 27.4168 22.8206 27.6979 22.971C27.8884 23.0729 28.1536 23.2498 28.4343 23.4369C29.228 23.9661 30.1278 24.5658 30.973 24.6196C31.7416 24.6695 32.1693 24.2315 32.3525 24.0449C32.3671 24.0301 32.3809 24.0152 32.3955 24.0017C32.4987 23.9176 32.5954 23.8049 32.6673 23.6689C32.8297 23.7153 33.0004 23.7615 33.1752 23.809C33.7766 23.9718 34.8959 24.2748 35.1432 24.5369C35.5825 25.0025 35.9248 25.8889 36.227 26.6708C36.3796 27.066 36.5239 27.4389 36.6856 27.7847C36.7551 27.9331 36.8235 28.086 36.8929 28.2407C37.3615 29.286 37.8927 30.4708 39.0196 31.2074C39.5305 31.5414 40.1569 31.6374 40.7096 31.7222C40.7764 31.7325 40.853 31.7442 40.9308 31.757C40.6027 32.2147 40.1356 32.6496 39.6421 33.1091C38.3849 34.28 36.8202 35.7372 37.5408 38.0618C37.8809 39.1595 37.8968 39.2781 37.3499 39.8731C37.2753 39.9543 37.2059 40.0282 37.1408 40.0975C36.6723 40.5961 36.3024 40.99 35.996 41.9548C35.9071 42.235 35.7918 42.3648 35.5825 42.6005C35.4151 42.789 35.2066 43.0238 35.0143 43.3528C34.784 43.7471 34.7078 44.1267 34.6468 44.4317C34.5866 44.7318 34.5524 44.8825 34.4346 45.0271C34.1664 45.3564 33.6661 45.8345 33.1525 46.1608C32.6751 46.4639 32.3965 46.5053 32.3015 46.4996C32.1931 46.3835 31.8006 45.8747 31.2075 44.1143C31.0612 43.6801 30.8583 43.2332 30.6621 42.801C30.2295 41.8484 29.7823 40.8632 29.9999 40.19C30.0256 40.1106 30.051 40.033 30.076 39.9571C30.4235 38.8978 30.7516 37.8975 30.1438 36.4411C29.9588 35.9976 29.6641 35.6735 29.4044 35.3875C29.2363 35.2025 29.0459 34.9929 29.0166 34.8723C28.9808 34.7251 28.9819 34.5552 28.9832 34.3585C28.9867 33.8278 28.992 33.026 28.1948 32.2795C27.0709 31.2275 25.7604 31.5516 24.893 31.7661C24.6266 31.8319 24.375 31.8942 24.1519 31.9205C22.7252 32.0876 21.4514 31.5493 20.6561 30.4427C19.8242 29.2852 19.7035 27.7275 20.3411 26.3778C20.6497 25.7246 21.116 25.1999 21.6559 24.5925C21.7738 24.4598 21.8929 24.3259 22.0119 24.1888C22.2099 23.9605 22.4279 23.6513 22.6583 23.324C22.9335 22.9335 23.4458 22.2063 23.6682 22.068Z" fill="#DB2316"/>
<path d="M46.3103 38.9648L45.8216 37.123C45.7149 36.7208 45.3736 36.4245 44.9606 36.3751C44.547 36.3268 44.146 36.5336 43.9474 36.8993C43.8361 37.1044 43.7358 37.3218 43.639 37.5319C43.4759 37.8855 43.3074 38.2511 43.132 38.4529C43.0334 38.5662 42.7803 38.6884 42.5358 38.8064C41.9511 39.0886 41.1503 39.475 40.8444 40.4502C40.6544 41.0551 40.7253 41.5337 40.7771 41.8831C40.8219 42.186 40.8323 42.291 40.7511 42.4816L40.741 42.5052C40.4177 43.2638 39.8162 44.676 40.6596 45.8766C41.2614 46.7334 41.8941 46.9537 42.3858 46.9537C42.4818 46.954 42.5725 46.9455 42.6565 46.9318C43.6925 46.7625 44.4713 45.6849 45.1076 43.5404L46.3022 39.5143C46.3553 39.3353 46.3582 39.1451 46.3103 38.9648ZM43.1606 42.9626C42.8362 44.056 42.5492 44.5664 42.3835 44.7927C42.3644 44.7683 42.3437 44.7407 42.3216 44.7091C42.1275 44.4327 42.4176 43.7518 42.6095 43.3012L42.6198 43.2774C42.9293 42.5508 42.8466 41.9928 42.7863 41.5854C42.7476 41.3245 42.7338 41.2123 42.7823 41.0583C42.8221 40.9316 43.06 40.8087 43.4186 40.6357C43.5775 40.5589 43.7525 40.4745 43.9291 40.3723L43.1606 42.9626Z" fill="#DB2316"/>
<path d="M32.0924 16.0716L32.0238 16.0476C31.495 15.8623 30.9151 16.1405 30.7294 16.6698C30.5437 17.1991 30.8223 17.7785 31.3516 17.9642L31.42 17.9882C31.5312 18.0272 31.6446 18.0456 31.7562 18.0456C32.1754 18.0456 32.5679 17.7839 32.7145 17.366C32.9002 16.8366 32.6216 16.2571 32.0924 16.0716Z" fill="#DB2316"/>
</svg>
