<svg width="61" height="60" viewBox="0 0 61 60" fill="none" xmlns="http://www.w3.org/2000/svg">
<g id="email 1">
<path id="Vector" d="M51.1542 46.9535H10.1795C8.8476 46.952 7.57074 46.4222 6.62903 45.4804C5.68731 44.5386 5.15765 43.2617 5.15625 41.9299V16.6243C5.15765 15.2924 5.68731 14.0155 6.62903 13.0737C7.57074 12.1319 8.8476 11.6021 10.1795 11.6006H51.1542C52.486 11.6021 53.7629 12.1319 54.7046 13.0737C55.6463 14.0155 56.176 15.2924 56.1774 16.6243V41.9299C56.176 43.2617 55.6463 44.5386 54.7046 45.4804C53.7629 46.4222 52.486 46.952 51.1542 46.9535ZM10.1795 13.5206C9.35662 13.5215 8.56775 13.8488 7.98597 14.4306C7.40419 15.0125 7.07701 15.8014 7.07625 16.6243V41.9299C7.07701 42.7527 7.40419 43.5416 7.98597 44.1235C8.56775 44.7054 9.35662 45.0327 10.1795 45.0335H51.1542C51.977 45.0327 52.7659 44.7054 53.3477 44.1235C53.9294 43.5416 54.2566 42.7527 54.2574 41.9299V16.6243C54.2566 15.8014 53.9294 15.0125 53.3477 14.4306C52.7659 13.8488 51.977 13.5215 51.1542 13.5206H10.1795Z" fill="#22578E"/>
<path id="Vector_2" d="M30.667 34.9263C30.433 34.9264 30.207 34.8411 30.0315 34.6863L6.89551 14.2632L8.16607 12.8232L30.667 32.6876L53.1689 12.8256L54.4395 14.2656L31.3035 34.6887C31.1275 34.843 30.9011 34.9276 30.667 34.9263Z" fill="#22578E"/>
<path id="Vector_3" d="M6.37305 43.9385L21.9156 26.2294L23.3594 27.4966L7.81689 45.2057L6.37305 43.9385Z" fill="#22578E"/>
<path id="Vector_4" d="M38.0234 27.4785L39.4673 26.2113L55.0101 43.9207L53.5663 45.1879L38.0234 27.4785Z" fill="#22578E"/>
</g>
</svg>
