<svg width="61" height="60" viewBox="0 0 61 60" fill="none" xmlns="http://www.w3.org/2000/svg">
<g id="badge (1) 1" clip-path="url(#clip0_22_620)">
<g id="Group">
<path id="Vector" d="M46.5469 24.082C46.5469 15.1758 39.3047 7.93359 30.3984 7.93359C21.4922 7.93359 14.25 15.1758 14.25 24.082C14.25 32.9883 21.4922 40.2305 30.3984 40.2305C39.3047 40.2305 46.5469 32.9883 46.5469 24.082ZM30.3984 38.5195C22.4297 38.5195 15.9609 32.0391 15.9609 24.082C15.9609 16.1133 22.4414 9.64453 30.3984 9.64453C38.3672 9.64453 44.8359 16.125 44.8359 24.082C44.8359 32.0391 38.3555 38.5195 30.3984 38.5195Z" fill="#22578E"/>
<path id="Vector_2" d="M26.2852 23.4258C28.3477 23.4258 30.0117 21.75 30.0117 19.6992C30.0117 17.6484 28.3359 15.9727 26.2852 15.9727C24.2344 15.9727 22.5586 17.6484 22.5586 19.6992C22.5586 21.75 24.2227 23.4258 26.2852 23.4258ZM26.2852 17.6719C27.3984 17.6719 28.3125 18.5742 28.3125 19.6992C28.3125 20.8242 27.4102 21.7266 26.2852 21.7266C25.1602 21.7266 24.2578 20.8242 24.2578 19.6992C24.2578 18.5742 25.1602 17.6719 26.2852 17.6719Z" fill="#22578E"/>
<path id="Vector_3" d="M37.2422 16.8163C37.2422 16.5702 37.1367 16.3241 36.9258 16.1601C36.5625 15.8554 36.0234 15.914 35.7188 16.2773L23.7656 30.7968C23.6367 30.9609 23.5664 31.1484 23.5664 31.3359C23.5664 31.582 23.6719 31.8281 23.8828 31.9921C24.0469 32.121 24.2344 32.1913 24.4219 32.1913C24.668 32.1913 24.9141 32.0859 25.0781 31.8749L37.043 17.3437C37.1719 17.2031 37.2422 17.0038 37.2422 16.8163Z" fill="#22578E"/>
<path id="Vector_4" d="M34.5117 24.7383C32.4492 24.7383 30.7852 26.4141 30.7852 28.4648C30.7852 30.5156 32.4609 32.1914 34.5117 32.1914C36.5742 32.1914 38.2383 30.5156 38.2383 28.4648C38.2383 26.4141 36.5742 24.7383 34.5117 24.7383ZM34.5117 30.4922C33.3984 30.4922 32.4844 29.5898 32.4844 28.4648C32.4844 27.3516 33.3867 26.4375 34.5117 26.4375C35.6367 26.4375 36.5391 27.3398 36.5391 28.4648C36.5391 29.5781 35.625 30.4922 34.5117 30.4922Z" fill="#22578E"/>
<path id="Vector_5" d="M54.8323 53.2734L46.6995 39.0703C47.0276 38.8828 47.3792 38.7422 47.7542 38.6602C49.219 38.3438 50.4964 37.418 51.2464 36.1172C51.9964 34.8164 52.1604 33.2461 51.7034 31.8164C51.2698 30.4688 51.6683 28.9805 52.7229 28.0195C53.8362 27.0117 54.4808 25.5703 54.4808 24.0703C54.4808 22.5703 53.8362 21.1289 52.7229 20.1211C51.6683 19.1719 51.2698 17.6836 51.7034 16.3242C52.1604 14.8945 51.9964 13.3242 51.2464 12.0234C50.4964 10.7227 49.219 9.79688 47.7542 9.48047C46.3597 9.1875 45.2698 8.09766 44.9769 6.70312C44.6604 5.23828 43.7347 3.96094 42.4339 3.21094C41.1331 2.46094 39.5628 2.29688 38.1331 2.75391C36.7854 3.1875 35.2972 2.78906 34.3362 1.73438C33.3284 0.621094 31.887 -0.0234375 30.387 -0.0234375C28.887 -0.0234375 27.4456 0.621094 26.4378 1.73438C25.4886 2.78906 24.0003 3.1875 22.6409 2.75391C21.2112 2.29688 19.6409 2.46094 18.3401 3.21094C17.0394 3.96094 16.1136 5.23828 15.7972 6.70312C15.5159 8.10938 14.4261 9.19922 13.0315 9.49219C11.5667 9.80859 10.2894 10.7344 9.53935 12.0352C8.78935 13.3359 8.62529 14.9062 9.08232 16.3359C9.51592 17.6836 9.11748 19.1719 8.06279 20.1328C6.94951 21.1406 6.30498 22.582 6.30498 24.082C6.30498 25.582 6.94951 27.0234 8.06279 28.0312C9.11748 28.9805 9.51592 30.4688 9.08232 31.8281C8.62529 33.2578 8.78935 34.8281 9.53935 36.1289C10.2894 37.4297 11.5667 38.3555 13.0315 38.6719C13.3714 38.7422 13.6995 38.8711 13.9925 39.0352L5.83623 53.2734C5.66045 53.5781 5.6956 53.9648 5.91826 54.2344C6.14092 54.5039 6.51592 54.6211 6.84404 54.5039L13.8167 52.1836L15.5159 59.3438C15.5979 59.6836 15.8792 59.9414 16.219 59.9883C16.2659 60 16.3011 60 16.3362 60C16.6409 60 16.9222 59.8359 17.0745 59.5664L25.1487 45.4922C25.6292 45.6914 26.0745 45.9961 26.4378 46.4062C27.4456 47.5195 28.887 48.1641 30.387 48.1641C31.887 48.1641 33.3284 47.5195 34.3362 46.4062C34.6761 46.0312 35.0862 45.7383 35.5198 45.5391L43.5589 59.5664C43.7112 59.8359 43.9925 60 44.2972 60C44.3323 60 44.3792 60 44.4144 59.9883C44.7659 59.9414 45.0472 59.6836 45.1175 59.3438L46.8167 52.1836L53.7894 54.5039C54.1292 54.6211 54.4925 54.5039 54.7151 54.2344C54.9847 53.9648 55.0081 53.5781 54.8323 53.2734ZM16.6761 56.8477L15.2581 50.8828C15.1995 50.6484 15.0472 50.4492 14.8479 50.332C14.637 50.2148 14.3909 50.1914 14.1683 50.2734L8.42607 52.1836L15.2933 40.207C15.5394 40.582 15.7151 40.9922 15.8089 41.4375C16.1253 42.9023 17.0511 44.1797 18.3519 44.9297C19.6526 45.6797 21.2229 45.8438 22.6526 45.3867C22.8753 45.3164 23.1097 45.2695 23.3323 45.2344L16.6761 56.8477ZM33.0823 45.2578C32.4026 46.0195 31.4183 46.4531 30.3987 46.4531C29.3792 46.4531 28.4065 46.0195 27.7151 45.2578C26.9886 44.4492 26.0394 43.8984 25.0198 43.6523C24.9847 43.6406 24.9378 43.6289 24.9026 43.6289C24.5276 43.5469 24.1409 43.5 23.7659 43.5C23.2151 43.5 22.6644 43.582 22.137 43.7578C21.1644 44.0742 20.0979 43.957 19.219 43.4531C18.3401 42.9375 17.7073 42.082 17.4964 41.0859C17.2503 39.9141 16.6058 38.8828 15.7269 38.1445C15.7034 38.1211 15.68 38.1094 15.6565 38.0859C15.012 37.5586 14.2503 37.1836 13.4065 36.9961C12.4104 36.7852 11.5433 36.1523 11.0394 35.2734C10.5237 34.3945 10.4183 33.3281 10.7347 32.3555C11.3792 30.3633 10.7933 28.1719 9.23467 26.7656C8.47295 26.0859 8.03935 25.1016 8.03935 24.082C8.03935 23.0625 8.47295 22.0898 9.23467 21.3984C10.7933 19.9922 11.3792 17.8008 10.7347 15.8086C10.4183 14.8359 10.5354 13.7695 11.0394 12.8906C11.555 12.0117 12.4104 11.3789 13.4065 11.168C15.4573 10.7344 17.0628 9.12891 17.4964 7.07813C17.7073 6.08203 18.3401 5.21484 19.219 4.71094C20.0979 4.19531 21.1644 4.08984 22.137 4.40625C24.1292 5.05078 26.3206 4.46484 27.7269 2.90625C28.4065 2.14453 29.3909 1.71094 30.4104 1.71094C31.43 1.71094 32.4026 2.14453 33.094 2.90625C34.5003 4.46484 36.6917 5.05078 38.6839 4.40625C39.6565 4.08984 40.7229 4.20703 41.6019 4.71094C42.4808 5.22656 43.1136 6.08203 43.3245 7.07813C43.7581 9.12891 45.3636 10.7344 47.4144 11.168C48.4104 11.3789 49.2776 12.0117 49.7815 12.8906C50.2972 13.7695 50.4026 14.8359 50.0862 15.8086C49.4417 17.8008 50.0276 19.9922 51.5862 21.3984C52.3479 22.0781 52.7815 23.0625 52.7815 24.082C52.7815 25.1016 52.3479 26.0742 51.5862 26.7656C50.0276 28.1719 49.4417 30.3633 50.0862 32.3555C50.4026 33.3281 50.2854 34.3945 49.7815 35.2734C49.2659 36.1523 48.4104 36.7852 47.4144 36.9961C46.5237 37.1836 45.7034 37.6055 45.0472 38.1797C45.0354 38.1914 45.012 38.2031 45.0003 38.2266C44.1683 38.9648 43.5706 39.9609 43.3245 41.0859C43.1136 42.082 42.4808 42.9492 41.6019 43.4531C40.7229 43.9688 39.6565 44.0742 38.6839 43.7578C37.7229 43.4531 36.7269 43.4297 35.7776 43.6523C35.7425 43.6641 35.7073 43.6641 35.6722 43.6758C34.6878 43.9453 33.7854 44.4844 33.0823 45.2578ZM46.5003 50.2734C46.2776 50.2031 46.0198 50.2266 45.8206 50.332C45.6097 50.4492 45.4573 50.6484 45.4104 50.8828L43.9925 56.8477L37.3245 45.2227C37.594 45.2461 37.8753 45.293 38.1448 45.3867C39.5745 45.8438 41.1448 45.6797 42.4456 44.9297C43.7464 44.1797 44.6722 42.9023 44.9886 41.4375C45.0706 41.0273 45.2347 40.6523 45.4456 40.3008L52.2425 52.1836L46.5003 50.2734Z" fill="#22578E"/>
</g>
</g>
<defs>
<clipPath id="clip0_22_620">
<rect width="60" height="60" fill="white" transform="translate(0.333984)"/>
</clipPath>
</defs>
</svg>
