<svg width="61" height="60" viewBox="0 0 61 60" fill="none" xmlns="http://www.w3.org/2000/svg">
<g id="phone 1">
<path id="Vector" d="M30.3852 2.55566H30.3336C23.055 2.55566 16.0746 5.44708 10.9278 10.5938C5.78106 15.7406 2.88965 22.7211 2.88965 29.9997C2.88965 37.2783 5.78106 44.2588 10.9278 49.4055C16.0746 54.5522 23.055 57.4437 30.3336 57.4437C30.5723 57.4437 30.8013 57.3488 30.97 57.1801C31.1388 57.0113 31.2336 56.7824 31.2336 56.5437C31.2336 56.305 31.1388 56.076 30.97 55.9073C30.8013 55.7385 30.5723 55.6437 30.3336 55.6437C23.5324 55.6437 17.0098 52.9419 12.2006 48.1327C7.39142 43.3235 4.68965 36.8009 4.68965 29.9997C4.68965 23.1985 7.39142 16.6758 12.2006 11.8666C17.0098 7.05743 23.5324 4.35566 30.3336 4.35566H30.3822C35.0642 4.36489 39.6544 5.65562 43.655 8.08793C47.6557 10.5202 50.9142 14.0013 53.0772 18.1537C55.2402 22.3061 56.2253 26.9714 55.9255 31.6438C55.6258 36.3162 54.0527 40.8175 51.3768 44.6595C50.9811 45.2255 50.4657 45.6975 49.8672 46.0423C49.2688 46.387 48.6018 46.596 47.9136 46.6545C47.2119 46.7161 46.5051 46.6232 45.843 46.3824C45.181 46.1416 44.5797 45.7587 44.0814 45.2607L43.2336 44.4099C43.56 44.2149 43.881 44.0067 44.1936 43.7823C44.8239 43.3404 45.4144 42.8443 45.9582 42.2997H45.9612C46.4248 41.8293 46.6838 41.1949 46.6819 40.5345C46.68 39.8741 46.4173 39.2411 45.951 38.7735L41.2902 34.1181C40.8219 33.6509 40.1874 33.3886 39.5259 33.3886C38.8645 33.3886 38.23 33.6509 37.7616 34.1181L37.0656 34.8117C36.8368 35.0388 36.5857 35.2424 36.3162 35.4195C35.4215 35.998 34.3558 36.2532 33.2961 36.1426C32.2364 36.032 31.2463 35.5624 30.4902 34.8117L24.3996 28.7211C23.8272 28.143 23.5065 27.362 23.5077 26.5484C23.5088 25.7349 23.8316 24.9548 24.4056 24.3783L26.2152 22.5597C26.4475 22.3286 26.6319 22.0539 26.7576 21.7514C26.8834 21.4489 26.9482 21.1245 26.9482 20.7969C26.9482 20.4692 26.8834 20.1448 26.7576 19.8423C26.6319 19.5398 26.4475 19.2651 26.2152 19.0341L21.5622 14.3817C21.3319 14.1478 21.0571 13.9623 20.7541 13.8361C20.4511 13.7099 20.1259 13.6455 19.7976 13.6467C19.1716 13.6443 18.5682 13.8803 18.1098 14.3067C18.0821 14.3284 18.0556 14.3519 18.0306 14.3769C17.4903 14.9179 16.9965 15.5036 16.5546 16.1277C14.8325 18.5284 13.9256 21.4181 13.9671 24.3724C14.0086 27.3267 14.9962 30.1898 16.785 32.5413C19.9262 36.7046 23.6334 40.4088 27.7992 43.5465C30.2084 45.3724 33.1475 46.3625 36.1704 46.3665C38.0165 46.3644 39.8431 45.9899 41.541 45.2655L42.8082 46.5345C43.4913 47.22 44.3169 47.7468 45.2264 48.0776C46.1358 48.4084 47.107 48.535 48.0708 48.4485C49.0215 48.3671 49.9427 48.0777 50.769 47.6007C51.5954 47.1237 52.3068 46.4709 52.8528 45.6885C55.717 41.5769 57.4009 36.7598 57.722 31.7593C58.043 26.7588 56.9889 21.7658 54.6741 17.3218C52.3592 12.8777 48.8719 9.15226 44.5902 6.54928C40.3086 3.9463 35.396 2.56518 30.3852 2.55566ZM28.8852 42.1089C24.853 39.0737 21.2645 35.49 18.2238 31.4619C16.7793 29.5616 15.9333 27.2742 15.7938 24.8912C15.6542 22.5083 16.2274 20.1378 17.4402 18.0819L20.772 21.4143C20.9409 21.5831 21.1699 21.678 21.4086 21.678C21.6474 21.678 21.8764 21.5831 22.0452 21.4143C22.2141 21.2454 22.3089 21.0164 22.3089 20.7777C22.3089 20.5389 22.2141 20.3099 22.0452 20.1411L18.4842 16.5777C18.7242 16.2777 18.9762 15.9879 19.2468 15.7131C19.2709 15.6943 19.2939 15.6743 19.3158 15.6531C19.4468 15.527 19.6217 15.457 19.8035 15.4576C19.9852 15.4583 20.1596 15.5297 20.2896 15.6567L24.9456 20.3127C25.0106 20.3772 25.062 20.4539 25.0971 20.5385C25.1321 20.6231 25.15 20.7137 25.1496 20.8053C25.1495 20.8955 25.1314 20.9848 25.0964 21.0679C25.0614 21.151 25.0101 21.2264 24.9456 21.2895L23.1246 23.1159C22.2169 24.0307 21.7075 25.2672 21.7075 26.556C21.7075 27.8447 22.2169 29.0812 23.1246 29.9961L29.2176 36.0843C30.1766 37.035 31.4087 37.6623 32.7416 37.8786C34.0746 38.095 35.4418 37.8895 36.6522 37.2909L40.3122 40.9509C40.482 41.1148 40.7093 41.2055 40.9453 41.2035C41.1813 41.2014 41.407 41.1068 41.5739 40.9399C41.7407 40.773 41.8354 40.5473 41.8375 40.3113C41.8395 40.0753 41.7488 39.848 41.5848 39.6783L38.1576 36.2511C38.2176 36.1959 38.283 36.1437 38.3376 36.0867L39.0336 35.3877C39.1642 35.2574 39.3412 35.1842 39.5256 35.1842C39.7101 35.1842 39.8871 35.2574 40.0176 35.3877L44.6784 40.0431C44.8087 40.1736 44.8823 40.3502 44.8832 40.5347C44.8841 40.7191 44.8122 40.8965 44.6832 41.0283C44.2118 41.5 43.6998 41.9295 43.1532 42.3117C41.066 43.8093 38.5533 44.5978 35.9846 44.5613C33.4159 44.5248 30.9267 43.6652 28.8828 42.1089H28.8852Z" fill="#DB2316"/>
</g>
</svg>
