<svg width="1440" height="1205" viewBox="0 0 1440 1205" fill="none" xmlns="http://www.w3.org/2000/svg">
<mask id="mask0_22_2725" style="mask-type:alpha" maskUnits="userSpaceOnUse" x="0" y="0" width="1440" height="1205">
<rect width="1440" height="1205" fill="#D9D9D9"/>
</mask>
<g mask="url(#mask0_22_2725)">
<path fill-rule="evenodd" clip-rule="evenodd" d="M1440 0H0V494.912C-89.3832 549.784 -149 648.43 -149 761C-149 933.313 -9.31284 1073 163 1073C181.86 1073 200.33 1071.33 218.268 1068.12C255.379 1148.9 337.124 1205 432 1205C551.284 1205 649.811 1116.32 664.976 1001.42C684.125 1005.73 704.046 1008 724.5 1008C809.665 1008 885.604 968.569 934.991 907H1014.92C1084.87 981.48 1184.25 1028 1294.5 1028C1506.3 1028 1678 856.301 1678 644.5C1678 484.201 1579.65 346.872 1440 289.564V0Z" fill="#FFF6DB"/>
</g>
</svg>
