<svg width="367" height="414" viewBox="0 0 367 414" fill="none" xmlns="http://www.w3.org/2000/svg">
<rect width="367" height="414" rx="9" fill="#919DB5"/>
<path d="M305.477 315.08L305.577 314.318L307.174 314.526C307.569 314.577 307.887 314.515 308.13 314.34C308.376 314.164 308.522 313.894 308.57 313.532L308.571 313.524C308.619 313.157 308.547 312.858 308.355 312.627C308.165 312.396 307.873 312.255 307.479 312.204L305.882 311.997L305.982 311.231L307.806 311.468C308.19 311.517 308.515 311.642 308.783 311.842C309.054 312.039 309.253 312.293 309.38 312.603C309.507 312.911 309.546 313.255 309.496 313.636L309.495 313.644C309.445 314.025 309.318 314.35 309.115 314.621C308.912 314.888 308.655 315.084 308.342 315.209C308.032 315.33 307.685 315.366 307.301 315.317L305.477 315.08ZM304.762 317.019L305.529 311.172L306.436 311.29L305.669 317.136L304.762 317.019Z" fill="black"/>
<path d="M312.829 318.376L314.797 312.817L315.661 313.12L313.958 317.931L316.569 318.845L316.304 319.593L312.829 318.376Z" fill="black"/>
<path d="M317.038 319.759L321.89 315.775L322.528 316.15L321.998 317.038L321.759 316.897L317.869 320.249L317.038 319.759ZM318.737 318.911L319.336 318.41L321.649 319.773L321.494 320.535L318.737 318.911ZM320.727 321.934L321.819 316.932L322.348 316.044L322.746 316.279L321.558 322.423L320.727 321.934Z" fill="black"/>
<path d="M324.908 325.005L326.597 323.279L327.541 319.347L328.275 320.057L327.543 322.926L327.59 322.971L330.453 322.166L331.188 322.877L327.258 323.918L325.569 325.644L324.908 325.005Z" fill="black"/>
<path d="M331.913 333.582L337.372 331.351L337.689 332.117L334.668 336.866L334.728 336.166L334.904 336.593L338.869 334.972L339.21 335.799L333.752 338.03L333.435 337.264L336.451 332.513L336.392 333.217L336.214 332.786L332.254 334.405L331.913 333.582Z" fill="black"/>
<path d="M334.933 343.31C334.851 342.743 334.905 342.239 335.095 341.796C335.287 341.353 335.596 340.99 336.023 340.706C336.45 340.422 336.975 340.236 337.598 340.147L337.606 340.146C338.234 340.056 338.792 340.089 339.28 340.245C339.768 340.401 340.165 340.665 340.472 341.036C340.779 341.411 340.973 341.877 341.054 342.435C341.135 342.996 341.081 343.498 340.891 343.94C340.702 344.383 340.394 344.746 339.967 345.03C339.543 345.316 339.019 345.504 338.393 345.593L338.385 345.595C337.762 345.684 337.205 345.652 336.715 345.499C336.228 345.345 335.829 345.082 335.519 344.708C335.21 344.336 335.014 343.87 334.933 343.31ZM335.738 343.195C335.791 343.561 335.93 343.866 336.155 344.109C336.38 344.352 336.672 344.522 337.03 344.62C337.391 344.717 337.798 344.733 338.251 344.668L338.259 344.667C338.718 344.602 339.105 344.472 339.421 344.278C339.737 344.085 339.967 343.84 340.112 343.544C340.256 343.248 340.302 342.917 340.249 342.55C340.196 342.183 340.058 341.878 339.836 341.635C339.614 341.394 339.324 341.224 338.965 341.124C338.607 341.024 338.198 341.006 337.74 341.072L337.732 341.073C337.279 341.138 336.892 341.266 336.573 341.457C336.257 341.651 336.025 341.895 335.878 342.188C335.731 342.484 335.684 342.82 335.738 343.195Z" fill="black"/>
<path d="M335.6 349.684L341.657 348.885L341.53 349.833L336.845 350.303L336.838 350.356L341.215 352.178L341.101 353.024L336.395 353.648L336.388 353.701L340.786 355.373L340.659 356.317L335.025 353.965L335.141 353.106L339.676 352.431L339.683 352.378L335.485 350.543L335.6 349.684Z" fill="black"/>
<path d="M335.972 358.605L336.724 358.916L335.669 361.438L334.918 361.127L335.972 358.605Z" fill="black"/>
<path d="M332.813 365.638L333.434 366.09L332.481 367.387C332.245 367.708 332.146 368.016 332.182 368.312C332.219 368.611 332.385 368.868 332.68 369.083L332.687 369.088C332.986 369.305 333.284 369.385 333.58 369.328C333.875 369.272 334.14 369.084 334.375 368.764L335.328 367.466L335.953 367.92L334.864 369.402C334.635 369.714 334.368 369.939 334.064 370.078C333.759 370.22 333.44 370.273 333.106 370.236C332.774 370.2 332.452 370.069 332.142 369.843L332.135 369.838C331.824 369.613 331.599 369.346 331.46 369.039C331.322 368.734 331.274 368.415 331.316 368.082C331.359 367.752 331.495 367.432 331.724 367.12L332.813 365.638ZM331.454 364.085L336.224 367.551L335.682 368.289L330.912 364.823L331.454 364.085Z" fill="black"/>
<path d="M326.36 370.471L330.318 374.841L329.636 375.452L326.21 371.669L324.149 373.515L323.617 372.927L326.36 370.471Z" fill="black"/>
<path d="M323.112 373.471L324.316 379.614L323.68 379.992L323.148 379.105L323.387 378.963L322.283 373.964L323.112 373.471ZM323.05 375.361L323.207 376.123L320.899 377.494L320.299 376.995L323.05 375.361ZM319.43 375.657L323.327 378.999L323.859 379.885L323.462 380.121L318.6 376.15L319.43 375.657Z" fill="black"/>
<path d="M314.724 377.818L315.44 380.125L318.456 382.841L317.479 383.141L315.299 381.121L315.237 381.14L314.581 384.03L313.604 384.33L314.561 380.395L313.845 378.088L314.724 377.818Z" fill="black"/>
<path d="M303.751 379.79L303.098 385.65L302.273 385.559L299.55 380.626L300.135 381.015L299.676 380.965L299.202 385.221L298.313 385.123L298.966 379.262L299.79 379.353L302.518 384.283L301.928 383.893L302.391 383.944L302.865 379.692L303.751 379.79Z" fill="black"/>
<path d="M293.737 377.767C294.273 377.966 294.69 378.255 294.988 378.633C295.284 379.013 295.454 379.459 295.498 379.969C295.542 380.479 295.454 381.029 295.233 381.618L295.23 381.626C295.007 382.22 294.709 382.694 294.338 383.047C293.967 383.4 293.544 383.623 293.07 383.714C292.594 383.804 292.092 383.752 291.563 383.555C291.032 383.358 290.618 383.07 290.32 382.692C290.023 382.315 289.852 381.87 289.808 381.36C289.76 380.851 289.847 380.301 290.07 379.709L290.073 379.702C290.294 379.113 290.589 378.64 290.959 378.283C291.328 377.929 291.751 377.705 292.228 377.612C292.703 377.518 293.206 377.57 293.737 377.767ZM293.451 378.528C293.104 378.399 292.769 378.375 292.448 378.457C292.126 378.538 291.837 378.712 291.579 378.98C291.32 379.25 291.111 379.599 290.95 380.027L290.947 380.035C290.784 380.469 290.712 380.87 290.73 381.241C290.748 381.611 290.852 381.93 291.043 382.198C291.233 382.466 291.502 382.665 291.849 382.794C292.196 382.923 292.53 382.948 292.851 382.87C293.169 382.79 293.458 382.617 293.718 382.35C293.978 382.084 294.19 381.734 294.352 381.3L294.355 381.292C294.516 380.864 294.589 380.464 294.575 380.092C294.557 379.722 294.454 379.402 294.267 379.132C294.078 378.862 293.806 378.66 293.451 378.528Z" fill="black"/>
<path d="M287.844 375.333L285.621 381.013L284.849 380.448L286.699 376.126L286.656 376.094L282.939 379.051L282.25 378.547L283.974 374.133L283.932 374.102L280.337 377.148L279.568 376.586L284.358 372.783L285.057 373.295L283.46 377.584L283.503 377.616L287.145 374.822L287.844 375.333Z" fill="black"/>
<path d="M279.769 371.378L279.135 371.886L277.414 369.761L278.049 369.253L279.769 371.378Z" fill="black"/>
<path d="M275.056 365.265L274.361 365.592L273.67 364.138C273.499 363.779 273.274 363.544 272.996 363.434C272.714 363.323 272.408 363.345 272.077 363.5L272.07 363.504C271.735 363.661 271.522 363.883 271.432 364.169C271.34 364.453 271.38 364.775 271.551 365.134L272.242 366.588L271.543 366.917L270.753 365.256C270.587 364.906 270.516 364.565 270.539 364.232C270.558 363.898 270.664 363.594 270.856 363.32C271.046 363.047 271.315 362.829 271.663 362.666L271.67 362.662C272.018 362.499 272.36 362.43 272.698 362.455C273.033 362.481 273.338 362.592 273.612 362.788C273.882 362.983 274.101 363.255 274.267 363.604L275.056 365.265ZM277.076 364.822L271.739 367.33L271.346 366.503L276.683 363.995L277.076 364.822Z" fill="black"/>
<path d="M273.857 357.321L268.117 358.671L267.905 357.781L272.873 356.612L272.233 353.921L273.005 353.739L273.857 357.321Z" fill="black"/>
<path d="M272.761 353.047L266.79 351.135L266.762 350.396L267.795 350.358L267.806 350.636L272.726 352.083L272.761 353.047ZM271.131 352.08L270.386 351.85L270.287 349.167L271.012 348.883L271.131 352.08ZM272.603 348.767L267.803 350.567L266.77 350.605L266.753 350.143L272.567 347.803L272.603 348.767Z" fill="black"/>
<path d="M272.95 343.588L270.582 343.111L266.754 344.457L266.958 343.456L269.774 342.51L269.788 342.446L267.564 340.485L267.768 339.484L270.766 342.21L273.133 342.687L272.95 343.588Z" fill="black"/>
<path d="M276.458 333.108L271.622 329.735L272.1 329.057L277.752 329.033L277.127 329.359L277.393 328.982L273.88 326.532L274.396 325.801L279.232 329.174L278.754 329.852L273.103 329.882L273.731 329.552L273.462 329.933L276.972 332.38L276.458 333.108Z" fill="black"/>
<path d="M283.08 325.337C282.646 325.711 282.192 325.937 281.715 326.017C281.237 326.095 280.763 326.031 280.291 325.826C279.82 325.621 279.377 325.281 278.964 324.807L278.958 324.801C278.541 324.323 278.266 323.837 278.132 323.344C277.999 322.851 278.006 322.376 278.153 321.918C278.301 321.459 278.589 321.045 279.016 320.677C279.446 320.307 279.898 320.082 280.375 320.002C280.851 319.922 281.325 319.985 281.796 320.19C282.268 320.391 282.711 320.73 283.127 321.206L283.132 321.213C283.546 321.687 283.821 322.171 283.958 322.664C284.094 323.155 284.088 323.631 283.941 324.093C283.796 324.552 283.509 324.967 283.08 325.337ZM282.545 324.724C282.826 324.482 283.008 324.201 283.09 323.882C283.173 323.562 283.158 323.226 283.046 322.873C282.932 322.519 282.724 322.169 282.424 321.824L282.418 321.817C282.114 321.468 281.794 321.214 281.459 321.053C281.124 320.892 280.792 320.831 280.464 320.869C280.136 320.908 279.831 321.048 279.551 321.29C279.27 321.532 279.088 321.811 279.003 322.129C278.921 322.445 278.935 322.78 279.045 323.134C279.155 323.489 279.363 323.841 279.667 324.19L279.672 324.196C279.973 324.541 280.291 324.796 280.626 324.96C280.961 325.121 281.293 325.184 281.62 325.149C281.95 325.113 282.258 324.971 282.545 324.724Z" fill="black"/>
<path d="M288.059 321.372L284.104 316.71L284.971 316.306L287.905 319.992L287.954 319.969L287.115 315.306L287.889 314.945L290.965 318.566L291.013 318.543L290.038 313.944L290.9 313.541L291.974 319.547L291.189 319.913L288.162 316.464L288.114 316.486L288.844 321.006L288.059 321.372Z" fill="black"/>
<path d="M295.418 316.226L295.274 315.426L297.966 314.949L298.109 315.749L295.418 316.226Z" fill="black"/>
<g filter="url(#filter0_d_1_30223)">
<rect x="278.982" y="323.04" width="51.0785" height="51.0785" rx="25.5393" stroke="black" stroke-width="0.964898" shape-rendering="crispEdges"/>
</g>
<g clip-path="url(#clip0_1_30223)">
<path d="M224.587 161.911C224.587 161.911 223.046 149.43 219.819 145.506C216.593 141.584 209.736 137.898 209.736 137.898L183.432 133.75L146.603 133.375C146.603 133.375 121.782 131.474 112.265 127.575C102.749 123.675 96.1246 118.61 96.1246 118.61C96.1246 118.61 95.2433 138.977 94.514 143.355C93.7847 147.731 90.6188 162.056 95.2018 167.734C99.7865 173.412 104.16 168.906 106.046 171.015C107.931 173.125 110.931 178.899 114.173 178.209C117.415 177.518 121.065 175.165 123.56 178.266C126.056 181.366 128.071 184.463 133.758 183.317C139.445 182.171 139.195 181.422 140.574 182.856C141.953 184.291 145.257 187.571 147.673 186.024C150.089 184.477 156.606 178.754 157.795 178.872C158.984 178.991 157.923 180.498 157.923 180.498L151.634 200.168C151.634 200.168 140.08 238.283 143.171 260.133C146.263 281.981 154.826 296.953 154.826 296.953C154.826 296.953 167.263 316.26 168.689 324.968C170.115 333.675 170.692 341.909 170.692 341.909L168.53 350.218C168.53 350.218 164.087 345.628 160.84 347.687C157.593 349.745 163.299 355.91 166.707 357.3C170.115 358.691 172.261 357.622 173.68 354.855C175.099 352.09 180.653 335.02 180.653 335.02C180.653 335.02 184.03 320.08 186.121 316.395C188.21 312.709 189.086 312.103 189.086 312.103C189.086 312.103 210.349 330.865 217.234 332.052C217.234 332.052 219.406 347.118 221.527 349.559C221.527 349.559 215.186 346.703 212.582 350.065C209.976 353.426 216 356.158 216 356.158C216 356.158 230.66 358.325 235.652 357.301C240.645 356.278 271.824 356.076 279.184 345.1C279.184 345.1 287.714 338.633 289.854 323.673C291.991 308.713 292.544 303.454 292.544 303.454C292.544 303.454 312.008 324.45 324.549 304.563C324.549 304.563 340.265 312.514 348.187 298.595C348.187 298.595 353.366 286.397 345.069 278.095C345.069 278.095 358.464 268.919 346.588 254.078C346.588 254.078 357.328 235.674 338.571 221.386C338.571 221.386 334.871 256.178 328.056 268.21C321.24 280.242 316.802 284.675 316.802 284.675C316.802 284.675 298.593 302.368 292.145 301.419C292.145 301.419 293.503 287.526 276.07 273.435C258.635 259.344 235.563 238.058 235.528 237.697C235.495 237.337 221.812 219.96 219.817 206.779C217.823 193.599 224.585 161.911 224.585 161.911H224.587Z" fill="#EAAC6D"/>
<path d="M93.2227 166.032C94.6847 169.224 97.5672 172.172 101.352 171.72C103.669 171.444 104.998 170.819 106.609 172.795C107.691 174.121 108.423 175.699 109.562 176.987C112.153 179.916 115.21 178.943 118.555 178.111C121.023 177.496 122.722 177.907 124.466 179.745C125.642 180.987 126.607 182.435 127.977 183.485C131.311 186.04 133.991 183.528 137.449 182.915C140.122 182.442 141.019 185.076 142.832 186.381C144.063 187.267 145.502 187.56 146.983 187.198C151.468 186.102 153.282 180.805 157.711 179.726C162.089 178.66 161.605 184.688 164.171 186.566C165.386 187.455 166.769 187.189 168.037 186.563C168.545 186.312 169.207 185.729 169.774 185.67C170.864 185.556 171.239 186.202 172.001 186.658C172.841 187.16 173.771 187.457 174.754 187.497C179.733 187.698 182.387 183.022 184.195 179.124C184.669 178.102 183.15 177.206 182.673 178.235C181.764 180.194 180.839 182.318 179.258 183.844C178.204 184.86 176.866 185.629 175.371 185.729C173.958 185.824 173.1 185.147 171.989 184.477C170.847 183.787 169.843 183.719 168.606 184.246C167.698 184.631 166.903 185.472 165.861 185.309C164.728 185.133 164.351 183.999 163.94 183.037C162.922 180.65 161.878 177.934 158.835 177.841C155.23 177.731 152.786 180.809 150.424 183.027C148.625 184.715 146.04 186.645 143.658 184.802C142.298 183.749 141.56 182.098 139.891 181.415C136.331 179.953 132.997 184.349 129.624 182.487C126.925 180.997 125.853 177.589 122.872 176.41C119.314 175.003 115.407 178.692 112.153 176.894C109.357 175.348 108.866 171.409 105.952 169.933C104.065 168.978 102.472 170.026 100.536 170.031C97.74 170.04 95.7993 167.435 94.7504 165.146C94.2786 164.115 92.7578 165.011 93.2279 166.035L93.2227 166.032Z" fill="#3C3544"/>
<path d="M235.769 182.052C233.879 172.725 228.15 164.682 222.323 157.153C220.515 154.819 218.54 152.396 215.766 151.379C212.993 150.364 209.989 152.028 208.937 154.859C207.345 159.41 205.755 163.958 204.164 168.509C203.699 169.84 203.227 171.2 203.21 172.609C203.186 174.384 203.88 176.089 204.079 177.853C204.392 180.628 203.472 183.383 203.263 186.167C203.054 188.952 203.87 192.199 206.4 193.383C207.2 193.758 208.104 193.887 208.883 194.307C212.372 196.18 211.356 202.288 214.818 204.212C217.558 205.737 221.379 203.548 223.991 205.283C224.789 205.813 225.352 206.652 226.178 207.135C227.542 207.933 229.356 207.56 230.613 206.605C231.871 205.65 232.671 204.221 233.335 202.79C236.31 196.366 237.176 188.99 235.769 182.053V182.052Z" fill="#3C3544"/>
<path d="M190.829 143.869C191.113 141.619 189.517 139.564 187.264 139.281C185.011 138.997 182.955 140.592 182.671 142.842C182.387 145.093 183.984 147.147 186.236 147.43C188.489 147.714 190.545 146.119 190.829 143.869Z" fill="#3C3544"/>
<path d="M97.004 121.032C97.004 121.032 79.5395 106.105 91.963 98.2809C104.387 90.4573 97.004 121.032 97.004 121.032Z" fill="#3C3544"/>
<path d="M148.072 193.532C148.072 193.532 178.971 208.746 217.396 199.997L223.076 200.376V209.885C223.076 209.885 181.957 221.676 145.027 204.941L148.072 193.532Z" fill="#3C3544"/>
<path d="M169.905 350.639C168.208 348.221 166.009 345.448 162.687 345.916C159.922 346.306 158.55 348.83 159.55 351.409C160.693 354.354 164.016 357.811 167.085 358.743C170.282 359.713 172.9 357.8 174.526 355.171C178.781 348.283 180.051 339.52 181.921 331.78C183.933 323.448 186.674 315.885 191.934 309.029C196.726 302.781 202.776 296.205 201.504 287.729C201.337 286.612 199.636 287.087 199.804 288.197C200.711 294.244 197.092 299.472 193.598 304.039C190.024 308.711 186.442 313.156 184.14 318.63C181.686 324.469 180.376 330.682 178.923 336.82C177.521 342.743 176.187 349.705 172.669 354.8C171.229 356.883 169.017 357.924 166.622 356.631C164.991 355.751 163.617 354.26 162.476 352.825C161.83 352.012 160.876 350.786 160.936 349.685C161.025 348.098 162.63 347.422 164.006 347.674C165.995 348.04 167.305 349.994 168.381 351.528C169.028 352.45 170.559 351.57 169.905 350.639Z" fill="#3C3544"/>
<path d="M232.324 292.318C216.793 306.71 212.04 330.761 220.768 350.008C221.099 349.576 221.431 349.144 221.763 348.713C218.355 347.392 211.634 346.21 211.007 351.608C210.547 355.573 215.319 357.191 218.426 357.577C231.297 359.181 244.804 358.075 257.496 355.654C258.608 355.442 258.138 353.743 257.027 353.956C247.443 355.784 237.693 356.616 227.936 356.385C223.921 356.29 218.951 356.638 215.215 354.938C213.077 353.966 211.508 351.459 214.192 349.799C216.387 348.442 219.129 349.574 221.295 350.413C222.093 350.722 222.57 349.737 222.29 349.119C213.884 330.583 218.661 307.382 233.57 293.564C234.404 292.791 233.153 291.548 232.322 292.318H232.324Z" fill="#3C3544"/>
<path d="M175.2 228.427C175.2 234.086 168.587 239.267 162.922 239.267C157.257 239.267 152.665 234.68 152.665 229.021C152.665 223.362 157.257 217.588 162.922 217.588C168.587 217.588 175.2 222.768 175.2 228.427Z" fill="#3C3544"/>
<path d="M205.138 232.135C205.138 236.073 203.128 242.347 199.187 242.347C195.245 242.347 189.089 236.075 189.089 232.135C189.089 228.196 194.057 225.004 197.999 225.004C201.941 225.004 205.138 228.196 205.138 232.135Z" fill="#3C3544"/>
<path d="M200.849 255.257C200.849 262.648 196.488 272.065 189.088 272.065C181.688 272.065 172.01 262.648 172.01 255.257C172.01 247.867 180.055 241.875 187.453 241.875C194.851 241.875 200.849 247.867 200.849 255.257Z" fill="#3C3544"/>
<path d="M292.146 304.433C292.146 311.823 287.784 321.24 280.384 321.24C272.985 321.24 263.307 311.823 263.307 304.433C263.307 297.043 271.351 291.051 278.75 291.051C286.148 291.051 292.146 297.043 292.146 304.433Z" fill="#3C3544"/>
<path d="M228.086 239.267C228.086 242.258 225.658 244.686 222.662 244.686C219.665 244.686 214.32 242.26 214.32 239.267C214.32 236.273 219.667 230.709 222.662 230.709C225.656 230.709 228.086 236.275 228.086 239.267Z" fill="#3C3544"/>
<path d="M252.002 272.065C252.002 276.945 248.041 280.902 243.156 280.902C238.27 280.902 231.74 276.945 231.74 272.065C231.74 267.185 238.27 261.231 243.156 261.231C248.041 261.231 252.002 267.183 252.002 272.065Z" fill="#3C3544"/>
<path d="M153.173 286.757C153.266 286.851 153.351 286.949 153.437 287.049C153.52 287.146 153.325 286.882 153.446 287.065C153.477 287.113 153.51 287.16 153.541 287.208C153.669 287.408 153.773 287.619 153.875 287.833C153.947 287.985 153.838 287.736 153.878 287.838C153.899 287.89 153.919 287.942 153.94 287.993C153.985 288.107 154.027 288.223 154.068 288.339C154.146 288.56 154.22 288.784 154.298 289.005C154.659 290.034 155.134 291.021 156.009 291.715C156.37 292.002 156.909 292.093 157.257 291.715C157.549 291.398 157.642 290.776 157.257 290.469C157.047 290.303 156.875 290.115 156.691 289.924C156.619 289.848 156.773 290.041 156.678 289.906C156.638 289.849 156.598 289.792 156.56 289.734C156.498 289.639 156.439 289.54 156.386 289.44C156.332 289.342 156.282 289.24 156.233 289.138C156.218 289.107 156.13 288.893 156.214 289.102C156.194 289.05 156.173 288.998 156.152 288.946C156.068 288.727 155.99 288.504 155.914 288.282C155.566 287.27 155.19 286.283 154.421 285.509C154.096 285.181 153.494 285.161 153.173 285.509C152.848 285.863 152.826 286.405 153.173 286.756V286.757Z" fill="#3C3544"/>
<path d="M150.787 277.632C150.778 279.181 151.416 280.669 152.463 281.798C152.777 282.136 153.396 282.14 153.711 281.798C154.044 281.435 154.046 280.914 153.711 280.551C153.619 280.451 153.462 280.324 153.408 280.197C153.486 280.299 153.498 280.311 153.441 280.237C153.419 280.206 153.396 280.175 153.374 280.142C153.329 280.078 153.286 280.015 153.244 279.949C153.161 279.818 153.083 279.683 153.011 279.545C152.974 279.476 152.94 279.405 152.907 279.336C152.89 279.3 152.874 279.265 152.859 279.229C152.909 279.35 152.916 279.367 152.879 279.277C152.769 278.986 152.674 278.69 152.613 278.385C152.608 278.359 152.591 278.164 152.574 278.155C152.591 278.293 152.594 278.314 152.582 278.216C152.579 278.178 152.574 278.138 152.57 278.1C152.556 277.945 152.551 277.789 152.553 277.634C152.555 277.173 152.145 276.731 151.671 276.754C151.191 276.774 150.792 277.14 150.79 277.634L150.787 277.632Z" fill="#3C3544"/>
<path d="M155.042 281.175C154.906 282.195 155.284 283.201 156.01 283.923C156.171 284.082 156.408 284.18 156.634 284.18C156.86 284.18 157.109 284.084 157.258 283.923C157.581 283.573 157.607 283.025 157.258 282.677C157.172 282.59 157.09 282.501 157.016 282.406C157.063 282.464 157.108 282.525 157.154 282.583C157.026 282.418 156.919 282.238 156.836 282.047C156.866 282.117 156.895 282.186 156.926 282.257C156.852 282.076 156.8 281.888 156.772 281.693C156.783 281.77 156.793 281.848 156.803 281.927C156.771 281.677 156.776 281.425 156.809 281.175C156.836 280.968 156.689 280.691 156.551 280.552C156.397 280.398 156.147 280.284 155.927 280.293C155.699 280.303 155.462 280.377 155.303 280.552C155.257 280.61 155.212 280.671 155.165 280.729C155.086 280.867 155.046 281.016 155.044 281.175H155.042Z" fill="#3C3544"/>
<path d="M159.026 288.313C159.026 288.313 159.039 288.322 159.044 288.327C158.985 288.28 158.924 288.235 158.866 288.189C158.994 288.289 159.111 288.401 159.213 288.53C159.166 288.472 159.121 288.411 159.075 288.353C159.16 288.463 159.232 288.584 159.287 288.713C159.258 288.643 159.229 288.574 159.199 288.503C159.256 288.639 159.294 288.782 159.315 288.929C159.305 288.852 159.294 288.774 159.284 288.694C159.296 288.786 159.301 288.877 159.301 288.971C159.301 289.197 159.4 289.435 159.559 289.594C159.711 289.746 159.963 289.861 160.183 289.853C160.411 289.842 160.647 289.768 160.806 289.594C160.965 289.421 161.064 289.209 161.064 288.971C161.064 288.534 160.964 288.123 160.77 287.733C160.679 287.55 160.547 287.384 160.416 287.229C160.271 287.058 160.094 286.927 159.918 286.792C159.816 286.728 159.707 286.694 159.59 286.687C159.472 286.661 159.355 286.666 159.239 286.702C159.035 286.759 158.812 286.916 158.712 287.108C158.605 287.312 158.549 287.56 158.624 287.786C158.653 287.857 158.683 287.926 158.712 287.997C158.79 288.13 158.895 288.235 159.028 288.313H159.026Z" fill="#3C3544"/>
<path d="M161.427 296.054C161.487 296.969 161.757 297.851 162.256 298.624C162.381 298.816 162.561 298.968 162.783 299.03C162.994 299.088 163.276 299.061 163.463 298.94C163.651 298.819 163.817 298.638 163.869 298.413C163.921 298.187 163.908 297.935 163.779 297.735C163.632 297.507 163.504 297.269 163.397 297.019C163.426 297.089 163.456 297.158 163.485 297.229C163.342 296.882 163.243 296.521 163.19 296.149C163.2 296.226 163.21 296.306 163.221 296.383C163.207 296.275 163.195 296.164 163.188 296.054C163.172 295.819 163.1 295.601 162.93 295.43C162.777 295.277 162.526 295.163 162.306 295.173C162.078 295.183 161.842 295.258 161.683 295.43C161.531 295.596 161.41 295.821 161.425 296.054H161.427Z" fill="#3C3544"/>
<path d="M225.602 327.227C225.609 326.366 225.48 325.513 225.526 324.65C225.539 324.546 225.537 324.55 225.523 324.662C225.532 324.612 225.54 324.562 225.551 324.513C225.573 324.412 225.603 324.313 225.637 324.215C225.654 324.166 225.672 324.118 225.691 324.072C225.651 324.165 225.651 324.165 225.691 324.072C225.734 323.98 225.777 323.889 225.82 323.797C226.017 323.381 226.216 322.96 226.282 322.501C226.346 322.047 226.171 321.532 225.665 321.416C225.248 321.322 224.649 321.544 224.579 322.033C224.55 322.24 224.495 322.437 224.422 322.632C224.393 322.711 224.388 322.708 224.422 322.632C224.396 322.689 224.37 322.747 224.343 322.804C224.299 322.896 224.256 322.987 224.213 323.079C223.983 323.571 223.826 324.034 223.767 324.574C223.672 325.456 223.843 326.342 223.836 327.226C223.833 327.686 224.244 328.128 224.718 328.106C225.198 328.085 225.596 327.719 225.599 327.226L225.602 327.227Z" fill="#3C3544"/>
<path d="M224.183 319.433C224.178 319.254 224.187 319.077 224.209 318.9C224.199 318.977 224.189 319.057 224.178 319.134C224.289 318.335 224.671 317.612 224.863 316.833C224.971 316.386 224.719 315.858 224.246 315.749C223.791 315.646 223.278 315.886 223.16 316.365C223.043 316.847 222.851 317.305 222.695 317.774C222.517 318.306 222.403 318.87 222.421 319.433C222.434 319.894 222.816 320.336 223.302 320.313C223.769 320.293 224.199 319.925 224.183 319.433Z" fill="#3C3544"/>
<path d="M228.18 311.554C228.533 311.197 228.851 310.802 229.131 310.384C229.411 309.966 229.629 309.509 229.827 309.041C229.91 308.846 229.839 308.535 229.739 308.362C229.632 308.179 229.423 308.005 229.212 307.957C228.986 307.905 228.733 307.917 228.533 308.046C228.472 308.093 228.414 308.138 228.355 308.184C228.246 308.295 228.17 308.424 228.129 308.573C228.123 308.583 228.12 308.595 228.115 308.606C228.144 308.535 228.174 308.466 228.203 308.395C227.978 308.922 227.69 309.415 227.341 309.869C227.387 309.809 227.432 309.75 227.479 309.692C227.309 309.907 227.13 310.114 226.936 310.31C226.777 310.472 226.677 310.705 226.677 310.933C226.677 311.161 226.774 311.407 226.936 311.556C227.285 311.877 227.838 311.906 228.184 311.556L228.18 311.554Z" fill="#3C3544"/>
<path d="M229.118 316.833C229.123 316.823 229.126 316.811 229.132 316.8C229.102 316.871 229.073 316.94 229.043 317.011C229.268 316.484 229.557 315.991 229.906 315.537C229.859 315.595 229.814 315.656 229.768 315.714C229.937 315.499 230.117 315.292 230.31 315.096C230.469 314.934 230.569 314.701 230.569 314.473C230.569 314.245 230.473 313.999 230.31 313.85C229.961 313.529 229.408 313.5 229.062 313.85C228.71 314.207 228.392 314.603 228.112 315.021C227.829 315.443 227.614 315.896 227.416 316.364C227.333 316.559 227.403 316.869 227.504 317.042C227.611 317.225 227.82 317.399 228.031 317.448C228.257 317.499 228.509 317.487 228.71 317.36C228.769 317.313 228.829 317.268 228.888 317.222C228.997 317.111 229.073 316.982 229.114 316.833H229.118Z" fill="#3C3544"/>
<path d="M228.44 332.895C228.44 332.803 228.446 332.71 228.458 332.619C228.447 332.696 228.437 332.774 228.427 332.853C228.447 332.707 228.485 332.563 228.542 332.427C228.513 332.498 228.484 332.567 228.454 332.638C228.51 332.508 228.58 332.389 228.667 332.277C228.62 332.336 228.575 332.396 228.529 332.455C228.629 332.327 228.746 332.213 228.876 332.113C228.817 332.159 228.757 332.204 228.698 332.251C228.703 332.246 228.71 332.242 228.715 332.237C228.819 332.182 228.9 332.106 228.962 332.009C229.04 331.925 229.094 331.825 229.12 331.709C229.178 331.498 229.151 331.217 229.03 331.031C228.909 330.842 228.727 330.677 228.503 330.625C228.425 330.614 228.345 330.604 228.268 330.594C228.109 330.594 227.96 330.635 227.822 330.715C227.647 330.848 227.474 330.977 227.331 331.144C227.196 331.302 227.063 331.471 226.97 331.655C226.774 332.044 226.674 332.456 226.676 332.893C226.676 333.119 226.774 333.356 226.935 333.516C227.089 333.67 227.34 333.784 227.559 333.774C227.787 333.763 228.024 333.689 228.183 333.516C228.342 333.344 228.442 333.131 228.442 332.893L228.44 332.895Z" fill="#3C3544"/>
<path d="M226.707 171.594C226.992 173.071 227.821 174.373 228.126 175.844C228.219 176.296 228.777 176.6 229.211 176.459C229.69 176.303 229.928 175.859 229.828 175.374C229.524 173.902 228.696 172.6 228.409 171.124C228.321 170.67 227.752 170.37 227.324 170.51C226.84 170.667 226.613 171.107 226.709 171.594H226.707Z" fill="#EADFD5"/>
<path d="M221.742 164.509C221.939 164.977 222.155 165.429 222.437 165.852C222.715 166.27 223.033 166.665 223.387 167.022C223.712 167.352 224.314 167.371 224.635 167.022C224.96 166.669 224.981 166.128 224.635 165.776C224.442 165.581 224.262 165.376 224.093 165.158C224.139 165.217 224.184 165.277 224.231 165.336C223.882 164.882 223.593 164.388 223.368 163.862C223.398 163.932 223.427 164.001 223.458 164.072C223.453 164.062 223.448 164.05 223.444 164.039C223.417 163.925 223.365 163.825 223.287 163.739C223.225 163.642 223.142 163.568 223.04 163.513C222.852 163.402 222.572 163.356 222.361 163.425C222.147 163.494 221.941 163.625 221.834 163.83C221.732 164.024 221.656 164.297 221.746 164.509H221.742Z" fill="#EADFD5"/>
<path d="M221.97 171.274C222.317 171.547 222.647 171.841 222.919 172.188C222.872 172.129 222.827 172.068 222.781 172.01C222.922 172.196 223.045 172.395 223.138 172.611C223.109 172.54 223.08 172.471 223.048 172.4C223.123 172.581 223.175 172.768 223.2 172.961C223.19 172.883 223.18 172.804 223.169 172.726C223.19 172.906 223.188 173.084 223.168 173.263C223.178 173.185 223.188 173.108 223.199 173.028C223.188 173.103 223.176 173.175 223.161 173.249C223.112 173.482 223.126 173.719 223.249 173.928C223.356 174.111 223.565 174.285 223.776 174.333C224.218 174.434 224.759 174.2 224.861 173.719C225.025 172.937 224.93 172.16 224.531 171.461C224.208 170.893 223.726 170.427 223.214 170.026C223.023 169.876 222.845 169.769 222.59 169.769C222.374 169.769 222.115 169.866 221.967 170.026C221.813 170.194 221.697 170.415 221.709 170.649C221.719 170.867 221.789 171.133 221.967 171.273L221.97 171.274Z" fill="#EADFD5"/>
<path d="M217.183 166.453C217.183 166.453 217.195 166.461 217.2 166.467C217.14 166.42 217.081 166.375 217.022 166.328C217.15 166.429 217.268 166.541 217.37 166.67C217.323 166.612 217.278 166.551 217.231 166.492C217.318 166.603 217.389 166.724 217.444 166.853C217.415 166.783 217.385 166.713 217.356 166.643C217.413 166.779 217.451 166.922 217.472 167.069C217.461 166.991 217.451 166.914 217.44 166.834C217.453 166.926 217.458 167.017 217.458 167.11C217.458 167.337 217.556 167.575 217.715 167.734C217.874 167.893 218.12 168.001 218.339 167.991C218.567 167.981 218.804 167.906 218.963 167.734C219.122 167.561 219.22 167.349 219.22 167.11C219.22 166.674 219.12 166.263 218.927 165.874C218.835 165.691 218.704 165.526 218.572 165.37C218.427 165.199 218.251 165.068 218.075 164.934C217.973 164.87 217.864 164.835 217.746 164.828C217.629 164.802 217.511 164.808 217.396 164.844C217.192 164.901 216.969 165.058 216.868 165.25C216.76 165.453 216.706 165.702 216.78 165.928C216.81 165.999 216.839 166.068 216.868 166.139C216.946 166.272 217.052 166.377 217.185 166.454L217.183 166.453Z" fill="#EADFD5"/>
<path d="M220.292 175.611C220.275 176.174 220.39 176.738 220.567 177.27C220.724 177.739 220.914 178.197 221.032 178.679C221.142 179.126 221.673 179.438 222.117 179.295C222.582 179.145 222.851 178.691 222.732 178.211C222.54 177.432 222.158 176.709 222.048 175.91C222.058 175.987 222.068 176.065 222.079 176.144C222.056 175.966 222.048 175.79 222.053 175.611C222.067 175.15 221.638 174.71 221.172 174.73C220.682 174.753 220.304 175.117 220.29 175.611H220.292Z" fill="#EADFD5"/>
<path d="M225.968 181.278V183.403C225.968 183.63 226.066 183.866 226.225 184.027C226.379 184.18 226.629 184.294 226.849 184.284C227.326 184.263 227.73 183.897 227.73 183.403V181.278C227.73 181.052 227.632 180.816 227.473 180.655C227.319 180.501 227.068 180.388 226.849 180.398C226.37 180.419 225.968 180.785 225.968 181.278Z" fill="#EADFD5"/>
</g>
<path d="M70.6496 272.486L70.6104 283.866L44.8302 240.072C44.8302 240.072 52.063 275.583 53.2999 279.758C54.5368 283.934 57.699 294.317 57.699 294.317L67.6473 298.101L73.405 304.053L73.4795 311.105C73.4795 311.105 64.3736 303.306 60.8347 310.233C57.2967 317.159 57.2571 329.127 62.7074 335.855C68.1594 342.585 73.7472 340.257 76.4826 331.899C79.2169 323.541 80.3965 313.505 80.3965 313.505L91.6276 326.629C91.6276 326.629 97.4192 330.521 101.723 326.099C106.027 321.677 107.12 310.275 104.129 305.583C101.137 300.889 93.3999 297.062 90.8116 300.527C88.2222 303.993 85.9466 307.646 85.9466 307.646L80.9663 302.304L80.8837 294.338L88.2384 288.095C88.2384 288.095 81.2648 253.609 75.4506 242.558C69.6363 231.507 68.1126 230.123 68.1126 230.123L70.6462 272.484L70.6496 272.486ZM71.2602 322.919C71.1881 326.701 69.4709 329.736 67.4209 329.695C65.3709 329.655 63.7698 326.557 63.8401 322.774C63.9104 318.991 65.6294 315.957 67.6794 315.998C69.7277 316.037 71.3305 319.136 71.2602 322.919ZM93.9235 307.021C95.8611 306.358 98.4276 308.721 99.6558 312.3C100.884 315.88 100.31 319.318 98.3712 319.982C96.4336 320.645 93.8671 318.283 92.6379 314.705C91.4097 311.126 91.9839 307.687 93.9225 307.023L93.9235 307.021Z" fill="#8AD7E8"/>
<path d="M74.7579 311.79C72.7136 283.94 70.3166 256.118 67.5672 228.329C67.4752 227.39 65.9928 227.37 66.0859 228.319C68.8353 256.107 71.2324 283.93 73.2766 311.779C73.3454 312.722 74.8278 312.742 74.7579 311.79Z" fill="#2C2C2C"/>
<path d="M68.4526 314.821C65.4612 314.165 63.8373 317.031 63.1753 319.508C62.499 322.036 62.5924 324.851 63.4353 327.33C63.8648 328.592 64.5574 329.944 65.794 330.584C66.9761 331.195 68.3328 330.983 69.3896 330.217C70.5302 329.391 71.175 328.071 71.6499 326.78C72.1251 325.483 72.3726 324.096 72.4136 322.716C72.5037 319.747 71.7259 315.775 68.4526 314.821C67.5385 314.554 67.1458 315.981 68.0643 316.249C70.2657 316.892 70.8084 319.614 70.9199 321.606C71.0392 323.759 70.6306 326.079 69.4855 327.933C68.9816 328.752 68.1064 329.598 67.0571 329.466C65.9798 329.331 65.3342 328.174 64.981 327.266C64.2356 325.354 64.0399 323.156 64.3451 321.134C64.6177 319.333 65.5914 315.708 68.0643 316.249C68.991 316.452 69.388 315.025 68.4526 314.821Z" fill="#2C2C2C"/>
<path d="M93.4375 306.128C90.2979 306.731 90.1415 310.408 90.5929 312.947C91.052 315.517 92.3309 318.064 94.1602 319.934C95.0158 320.81 96.1329 321.589 97.3951 321.659C98.7013 321.733 99.8773 320.933 100.505 319.821C101.814 317.496 101.198 314.163 100.268 311.813C99.1459 308.982 96.8802 305.698 93.4392 306.129C92.4957 306.248 92.8725 307.68 93.8061 307.563C96.1531 307.269 97.7766 309.903 98.6263 311.717C99.4904 313.565 99.9952 315.852 99.6255 317.886C99.451 318.845 98.9204 319.976 97.8486 320.16C96.9047 320.322 96.0009 319.663 95.3613 319.041C93.9189 317.631 92.8779 315.75 92.32 313.823C91.7769 311.948 91.1592 308.073 93.8051 307.565C94.7414 307.385 94.3718 305.952 93.4382 306.131L93.4375 306.128Z" fill="#2C2C2C"/>
<path d="M72.2797 285.611C63.2679 269.451 54.2543 253.291 45.2425 237.131C44.7772 236.296 43.4842 237.016 43.9478 237.849C52.9596 254.009 61.9732 270.17 70.985 286.33C71.4503 287.165 72.7434 286.445 72.2797 285.611Z" fill="#2C2C2C"/>
<path d="M67.1122 298.613C69.0323 300.597 70.9497 302.581 72.8698 304.564C73.5331 305.251 74.599 304.222 73.9364 303.539C72.0162 301.555 70.0988 299.571 68.1787 297.587C67.5154 296.901 66.4496 297.929 67.1122 298.613Z" fill="#2C2C2C"/>
<path d="M77.4035 294.043C77.4026 293.263 77.4009 292.482 77.4 291.702C77.3985 291.314 77.0662 290.943 76.6641 290.957C76.2653 290.972 75.9191 291.278 75.9187 291.692C75.9197 292.471 75.9213 293.253 75.9222 294.032C75.9237 294.42 76.2577 294.792 76.6582 294.778C77.0559 294.764 77.4031 294.457 77.4035 294.043Z" fill="#2C2C2C"/>
<path d="M86.7889 308.169C85.0505 305.844 83.312 303.519 81.5718 301.193C81.3331 300.873 80.7871 300.92 80.5252 301.173C80.2081 301.479 80.2649 301.898 80.5053 302.219C82.2438 304.544 83.9839 306.87 85.7224 309.194C85.9628 309.515 86.5071 309.467 86.769 309.215C87.0861 308.908 87.0293 308.49 86.7889 308.169Z" fill="#2C2C2C"/>
<path d="M76.3407 280.892C75.5992 274.022 74.8571 267.148 74.1157 260.278C74.0155 259.341 72.5325 259.319 72.6344 260.268C73.3758 267.138 74.118 274.011 74.8594 280.882C74.9606 281.817 76.4426 281.841 76.3407 280.892Z" fill="#2C2C2C"/>
<path d="M73.7173 255.12C73.6536 254.416 73.5916 253.713 73.5278 253.009C73.5092 252.812 73.4633 252.638 73.3218 252.49C73.1943 252.357 72.9798 252.255 72.7936 252.264C72.6057 252.272 72.4079 252.331 72.2752 252.47C72.1461 252.606 72.0313 252.804 72.0493 252.998C72.113 253.702 72.175 254.405 72.2387 255.109C72.2574 255.306 72.3033 255.48 72.4448 255.628C72.5723 255.761 72.7868 255.863 72.973 255.854C73.1609 255.846 73.3586 255.787 73.4914 255.648C73.6204 255.512 73.7353 255.314 73.7173 255.12Z" fill="#2C2C2C"/>
<path d="M57.7817 271.407C60.1376 276.2 62.9083 280.776 66.0659 285.083C66.6232 285.844 67.9226 285.133 67.3606 284.364C64.203 280.058 61.4313 275.483 59.0765 270.688C58.6543 269.831 57.3619 270.553 57.7817 271.407Z" fill="#2C2C2C"/>
<path d="M233.979 57.2888L267.257 75.2809L272.251 77.256C272.251 77.256 272.048 82.158 272.51 82.9775C272.97 83.7981 277.898 88.3808 277.898 88.3808C277.898 88.3808 275.864 96.7752 277.062 99.2385C278.261 101.702 280.957 105.453 286.258 109.461C291.559 113.469 300.885 118.896 302.615 119.526C304.345 120.157 311.98 120.806 313.806 119.229C315.63 117.653 317.477 116.028 317.477 116.028C317.477 116.028 325.409 115.41 327.635 114.469C329.86 113.528 334.452 109.13 334.644 107.324C334.836 105.517 328.893 97.7302 323.387 92.6275C317.881 87.5248 300.889 77.448 285.585 69.6402C270.281 61.8323 238.868 46.5214 238.868 46.5214C238.868 46.5214 220.206 37.102 215.939 38.1671C211.672 39.2321 212.139 41.6681 212.93 42.6766C213.718 43.6846 227.615 54.0705 233.976 57.2855L233.979 57.2888Z" fill="#F7C47E"/>
<path d="M315.114 117.272C315.114 117.272 316.33 114.172 311.208 109.012C306.087 103.852 299.643 98.7615 295.343 96.8178C291.043 94.874 281.398 92.2626 281.398 92.2626L276.937 94.6485C276.937 94.6485 278.961 84.1655 279.294 83.3046C279.627 82.4438 281.457 80.6095 284.277 81.0117C287.096 81.4139 295.576 84.7244 304.691 91.3952C313.809 98.0649 324.064 106.709 322.866 110.089C321.668 113.469 315.113 117.27 315.113 117.27L315.114 117.272Z" fill="#FAD8CC"/>
<path d="M276.077 95.6811C274.749 103.009 283.564 108.179 288.552 111.633C294.204 115.549 300.273 120.827 307.413 121.553C309.942 121.811 313.097 121.384 314.708 119.167C316.319 116.948 315.426 114.087 314.195 111.926C312.195 108.407 309.045 105.623 305.936 103.105C302.836 100.593 299.526 98.312 296.008 96.421C292.242 94.398 288.145 92.7237 283.898 92.0694C280.46 91.5381 277.21 91.9366 276.076 95.6795C275.808 96.5684 277.224 96.8353 277.491 95.9546C278.986 91.0201 286.788 93.9943 290.054 95.257C293.654 96.6487 297.069 98.514 300.262 100.677C303.52 102.885 306.712 105.364 309.466 108.185C311.706 110.479 316.525 115.995 312.836 118.994C309.996 121.304 305.425 119.961 302.448 118.682C299.054 117.223 295.978 115.138 292.977 113.008C289.812 110.763 286.485 108.679 283.466 106.24C280.533 103.871 276.737 100.121 277.49 95.9573C277.654 95.0438 276.242 94.7676 276.076 95.6822L276.077 95.6811Z" fill="#2C2C2C"/>
<path d="M313.774 120.148C316.86 117.634 320.235 114.969 322.615 111.742C324.256 109.518 324.021 107.415 322.321 105.313C319.892 102.306 316.622 99.7962 313.627 97.3767C310.13 94.55 306.485 91.9132 302.802 89.3328C297.252 85.4425 291.332 81.2387 284.446 80.2868C283.198 80.1135 281.414 79.7835 280.256 80.447C279.129 81.0923 278.751 82.5873 278.358 83.7359C277.037 87.5901 276.588 91.6578 276.058 95.6756C275.933 96.6168 277.385 96.9048 277.51 95.9582C277.921 92.8454 278.277 89.7094 279.037 86.656C279.516 84.7348 279.922 82.2259 282.113 81.569C283.286 81.218 285.546 81.9516 286.711 82.2576C292.456 83.7669 297.432 87.3597 302.22 90.7229C307.542 94.4625 312.793 98.3358 317.601 102.728C318.817 103.837 320.103 104.948 321.142 106.229C321.805 107.043 322.342 108.081 322.315 109.177C322.295 110.074 321.018 111.355 320.41 112.033C318.145 114.566 315.577 116.777 312.946 118.92C312.214 119.515 313.033 120.749 313.773 120.147L313.774 120.148Z" fill="#2C2C2C"/>
<path d="M314.445 112.247C316.582 110.097 318.617 107.851 320.548 105.517C321.155 104.785 320.035 103.817 319.424 104.555C317.493 106.889 315.457 109.133 313.321 111.284C312.65 111.96 313.776 112.921 314.445 112.247Z" fill="#2C2C2C"/>
<path d="M311.249 108.913C313.402 106.678 315.418 104.315 317.286 101.838C317.857 101.083 316.739 100.112 316.162 100.875C314.293 103.354 312.277 105.714 310.125 107.95C309.465 108.635 310.588 109.6 311.249 108.913Z" fill="#2C2C2C"/>
<path d="M307.265 105.065C309.052 102.747 310.78 100.388 312.452 97.9859C312.68 97.6584 312.698 97.2217 312.372 96.9425C312.092 96.7035 311.557 96.6932 311.328 97.0234C309.656 99.4252 307.925 101.784 306.141 104.103C305.562 104.854 306.68 105.825 307.265 105.065Z" fill="#2C2C2C"/>
<path d="M302.279 100.551C304.219 98.272 305.984 95.8571 307.585 93.3322C307.799 92.9949 307.57 92.5032 307.239 92.3437C306.845 92.1534 306.466 92.3494 306.251 92.6894C304.72 95.1058 303.009 97.4078 301.155 99.5882C300.538 100.313 301.66 101.279 302.279 100.551Z" fill="#2C2C2C"/>
<path d="M297.013 97.3376C298.755 94.9098 300.291 92.3381 301.591 89.6453C302.004 88.7874 300.673 88.1424 300.257 89.0025C299.012 91.5797 297.556 94.0477 295.888 96.3735C295.656 96.6988 295.645 97.141 295.969 97.4169C296.252 97.6608 296.778 97.6624 297.012 97.336L297.013 97.3376Z" fill="#2C2C2C"/>
<path d="M291.65 95.0109C293.334 92.0947 294.8 89.0595 296.04 85.9292C296.388 85.0487 295.059 84.3982 294.706 85.2864C293.466 88.4167 291.999 91.4503 290.316 94.3681C289.84 95.1925 291.175 95.8325 291.65 95.0109Z" fill="#2C2C2C"/>
<path d="M286.325 93.2726C287.994 89.9133 289.327 86.3951 290.32 82.7782C290.572 81.8577 289.118 81.5806 288.867 82.4956C287.907 85.9927 286.605 89.3834 284.992 92.6314C284.569 93.4845 285.901 94.1284 286.326 93.2742L286.325 93.2726Z" fill="#2C2C2C"/>
<path d="M281.754 92.1586C282.628 88.574 283.634 85.022 284.767 81.5103C284.89 81.1282 284.541 80.7125 284.182 80.6428C283.75 80.5587 283.437 80.8457 283.314 81.2277C282.181 84.7394 281.176 88.2914 280.301 91.8761C280.075 92.803 281.528 93.0828 281.754 92.1586Z" fill="#2C2C2C"/>
<path d="M307.383 109.919C306.851 109.13 305.622 109.956 306.155 110.747C306.688 111.537 307.915 110.71 307.383 109.919Z" fill="#2C2C2C"/>
<path d="M310.083 114.423C309.551 113.634 308.322 114.46 308.855 115.251C309.388 116.041 310.616 115.214 310.083 114.423Z" fill="#2C2C2C"/>
<path d="M307.933 116.295C307.401 115.506 306.172 116.332 306.705 117.122C307.238 117.913 308.466 117.086 307.933 116.295Z" fill="#2C2C2C"/>
<path d="M306.342 112.83C305.81 112.041 304.582 112.866 305.114 113.657C305.647 114.448 306.875 113.621 306.342 112.83Z" fill="#2C2C2C"/>
<path d="M300.798 111.237C300.266 110.448 299.037 111.274 299.57 112.065C300.103 112.855 301.33 112.028 300.798 111.237Z" fill="#2C2C2C"/>
<path d="M299.27 113.523C298.739 112.734 297.51 113.559 298.043 114.35C298.575 115.141 299.803 114.314 299.27 113.523Z" fill="#2C2C2C"/>
<path d="M303.915 114.216C303.383 113.427 302.155 114.252 302.687 115.043C303.22 115.834 304.448 115.007 303.915 114.216Z" fill="#2C2C2C"/>
<path d="M305.029 106.249C304.497 105.46 303.268 106.285 303.801 107.076C304.334 107.867 305.562 107.04 305.029 106.249Z" fill="#2C2C2C"/>
<path d="M300.922 105.89C300.806 105.913 300.691 105.936 300.576 105.959C300.476 105.988 300.393 106.04 300.323 106.113C300.243 106.171 300.185 106.246 300.144 106.34C300.098 106.428 300.076 106.519 300.079 106.615C300.064 106.71 300.074 106.805 300.11 106.898C300.14 106.956 300.168 107.015 300.199 107.075C300.274 107.186 300.371 107.271 300.491 107.329C300.552 107.348 300.611 107.37 300.671 107.389C300.8 107.414 300.925 107.405 301.05 107.364C301.165 107.341 301.28 107.318 301.395 107.295C301.495 107.266 301.579 107.214 301.648 107.141C301.728 107.083 301.787 107.008 301.828 106.914C301.873 106.826 301.895 106.735 301.893 106.64C301.907 106.544 301.897 106.449 301.861 106.357C301.831 106.298 301.802 106.237 301.772 106.179C301.697 106.068 301.6 105.984 301.48 105.925C301.42 105.906 301.36 105.884 301.3 105.866C301.171 105.841 301.046 105.849 300.922 105.89Z" fill="#2C2C2C"/>
<path d="M303.225 109.851C302.693 109.062 301.464 109.888 301.997 110.679C302.53 111.469 303.758 110.642 303.225 109.851Z" fill="#2C2C2C"/>
<path d="M294.427 105.903C294.38 105.972 294.334 106.041 294.288 106.11C294.221 106.184 294.177 106.266 294.153 106.361C294.114 106.448 294.101 106.542 294.11 106.639C294.113 106.739 294.14 106.832 294.19 106.917C294.227 107.011 294.285 107.09 294.367 107.155C294.421 107.189 294.474 107.225 294.528 107.26C294.643 107.315 294.767 107.339 294.897 107.332C294.961 107.32 295.023 107.306 295.086 107.295C295.214 107.251 295.323 107.177 295.413 107.074C295.459 107.005 295.505 106.936 295.552 106.867C295.618 106.793 295.665 106.71 295.687 106.616C295.724 106.527 295.738 106.435 295.73 106.338C295.727 106.238 295.7 106.145 295.65 106.06C295.612 105.966 295.554 105.886 295.473 105.822C295.419 105.788 295.366 105.752 295.312 105.717C295.196 105.662 295.073 105.638 294.942 105.645C294.879 105.657 294.817 105.671 294.754 105.682C294.626 105.726 294.516 105.8 294.427 105.903Z" fill="#2C2C2C"/>
<path d="M294.423 109.989C293.892 109.2 292.663 110.025 293.196 110.816C293.728 111.607 294.956 110.779 294.423 109.989Z" fill="#2C2C2C"/>
<path d="M298.164 109.781C297.633 108.992 296.404 109.818 296.936 110.609C297.469 111.399 298.697 110.572 298.164 109.781Z" fill="#2C2C2C"/>
<path d="M298.308 104.169C297.776 103.38 296.547 104.206 297.08 104.996C297.613 105.787 298.841 104.96 298.308 104.169Z" fill="#2C2C2C"/>
<path d="M298.447 101.26C297.915 100.471 296.686 101.297 297.219 102.088C297.752 102.878 298.98 102.051 298.447 101.26Z" fill="#2C2C2C"/>
<path d="M293.735 101.122C293.203 100.333 291.974 101.158 292.507 101.949C293.04 102.74 294.268 101.913 293.735 101.122Z" fill="#2C2C2C"/>
<path d="M290.475 106.457C289.943 105.668 288.714 106.493 289.247 107.284C289.78 108.075 291.008 107.247 290.475 106.457Z" fill="#2C2C2C"/>
<path d="M289.572 108.259C289.041 107.47 287.812 108.295 288.345 109.086C288.877 109.877 290.105 109.05 289.572 108.259Z" fill="#2C2C2C"/>
<path d="M295.05 104.1C294.518 103.311 293.289 104.137 293.822 104.928C294.355 105.718 295.582 104.891 295.05 104.1Z" fill="#2C2C2C"/>
<path d="M288.952 102.437C288.42 101.648 287.191 102.474 287.724 103.264C288.257 104.055 289.484 103.228 288.952 102.437Z" fill="#2C2C2C"/>
<path d="M288.676 99.2519C288.144 98.4629 286.915 99.2885 287.448 100.079C287.981 100.87 289.209 100.043 288.676 99.2519Z" fill="#2C2C2C"/>
<path d="M291.242 96.7557C290.711 95.9667 289.482 96.7923 290.015 97.583C290.547 98.3737 291.775 97.5464 291.242 96.7557Z" fill="#2C2C2C"/>
<path d="M285.626 102.923C285.094 102.134 283.865 102.959 284.398 103.75C284.931 104.541 286.159 103.714 285.626 102.923Z" fill="#2C2C2C"/>
<path d="M286.178 104.793C286.017 104.586 285.855 104.377 285.694 104.17C285.64 104.082 285.569 104.016 285.482 103.968C285.406 103.908 285.319 103.871 285.221 103.856C285.125 103.833 285.032 103.836 284.938 103.862C284.838 103.872 284.748 103.909 284.665 103.969C284.617 104.014 284.566 104.058 284.516 104.101C284.431 104.201 284.377 104.314 284.351 104.442C284.323 104.63 284.344 104.844 284.464 104.998C284.626 105.205 284.788 105.414 284.949 105.622C285.003 105.709 285.074 105.775 285.161 105.823C285.237 105.884 285.324 105.92 285.422 105.935C285.518 105.958 285.611 105.955 285.705 105.929C285.805 105.919 285.895 105.882 285.977 105.822C286.026 105.777 286.077 105.733 286.127 105.69C286.211 105.59 286.266 105.478 286.291 105.349C286.319 105.161 286.299 104.947 286.178 104.793Z" fill="#2C2C2C"/>
<path d="M281.065 100.088C281.134 100.134 281.203 100.18 281.272 100.226C281.346 100.293 281.428 100.338 281.523 100.362C281.61 100.4 281.705 100.413 281.801 100.404C281.901 100.401 281.995 100.374 282.08 100.324C282.174 100.287 282.253 100.228 282.317 100.147C282.352 100.093 282.388 100.04 282.423 99.9859C282.478 99.8703 282.502 99.7472 282.495 99.6166C282.483 99.5533 282.469 99.491 282.458 99.4277C282.414 99.3001 282.341 99.1906 282.238 99.101C282.168 99.0549 282.099 99.0088 282.03 98.9627C281.957 98.8959 281.873 98.8499 281.78 98.8274C281.692 98.7891 281.598 98.7764 281.501 98.7846C281.401 98.7878 281.308 98.8151 281.223 98.8653C281.129 98.9024 281.05 98.9607 280.985 99.042L280.88 99.2032C280.825 99.3188 280.801 99.4419 280.808 99.5724L280.845 99.7613C280.888 99.889 280.962 99.9984 281.065 100.088Z" fill="#2C2C2C"/>
<path d="M284.936 96.7555C284.405 95.9664 283.176 96.792 283.709 97.5827C284.241 98.3735 285.469 97.5462 284.936 96.7555Z" fill="#2C2C2C"/>
<path d="M286.876 96.548C286.345 95.7589 285.116 96.5845 285.649 97.3752C286.181 98.1659 287.409 97.3387 286.876 96.548Z" fill="#2C2C2C"/>
<path d="M317.838 116.814C321.867 117.726 329.917 117.471 328.396 111.334C327.614 108.176 325.02 105.487 322.957 103.103C320.44 100.193 317.712 97.4702 314.813 94.9414C308.931 89.8139 302.376 85.4698 295.507 81.7771C290.006 78.8188 282.549 74.5122 276.021 75.8131C273.477 76.3205 271.24 78.0443 271.238 80.832C271.237 84.3979 274.508 86.5317 277.231 88.129C278.053 88.6111 278.693 87.2749 277.875 86.795C276.059 85.729 273.904 84.5107 273.072 82.4422C272.12 80.0738 273.376 78.0894 275.725 77.3951C279.182 76.3726 283.264 77.8382 286.456 79.0893C293.049 81.6735 299.369 85.3817 305.194 89.3794C311.137 93.4584 316.684 98.1745 321.443 103.6C323.378 105.805 325.91 108.356 326.82 111.217C328.452 116.342 321.253 116.071 318.12 115.362C317.189 115.151 316.908 116.604 317.836 116.815L317.838 116.814Z" fill="#2C2C2C"/>
<path d="M272.77 80.1322C273.545 76.8377 274.98 73.7453 275.88 70.4878C275.986 70.1025 275.667 69.6927 275.295 69.6203C274.877 69.5389 274.533 69.82 274.427 70.2053C273.527 73.4627 272.093 76.5551 271.317 79.8496C271.099 80.7782 272.553 81.0596 272.77 80.1322Z" fill="#2C2C2C"/>
<path d="M218.601 43.0458C219.113 42.2781 221.238 42.7965 223.346 44.2031C225.455 45.6085 226.75 47.3707 226.238 48.1385C225.726 48.9062 223.601 48.3878 221.493 46.9813C219.384 45.5758 218.089 43.8136 218.601 43.0458Z" fill="#2C2C2C"/>
<defs>
<filter id="filter0_d_1_30223" x="268.207" y="312.265" width="71.9847" height="71.9847" filterUnits="userSpaceOnUse" color-interpolation-filters="sRGB">
<feFlood flood-opacity="0" result="BackgroundImageFix"/>
<feColorMatrix in="SourceAlpha" type="matrix" values="0 0 0 0 0 0 0 0 0 0 0 0 0 0 0 0 0 0 127 0" result="hardAlpha"/>
<feOffset dx="-0.321633" dy="-0.321633"/>
<feGaussianBlur stdDeviation="4.98531"/>
<feComposite in2="hardAlpha" operator="out"/>
<feColorMatrix type="matrix" values="0 0 0 0 1 0 0 0 0 1 0 0 0 0 1 0 0 0 1 0"/>
<feBlend mode="normal" in2="BackgroundImageFix" result="effect1_dropShadow_1_30223"/>
<feBlend mode="normal" in="SourceGraphic" in2="effect1_dropShadow_1_30223" result="shape"/>
</filter>
<clipPath id="clip0_1_30223">
<rect width="264" height="262" fill="white" transform="translate(87.5004 97)"/>
</clipPath>
</defs>
</svg>
