<svg width="368" height="415" viewBox="0 0 368 415" fill="none" xmlns="http://www.w3.org/2000/svg">
<rect x="0.157349" y="0.719604" width="367" height="414" rx="9" fill="#FFEFBF"/>
<path d="M270.284 309.478L270.384 308.717L271.98 308.924C272.375 308.975 272.693 308.913 272.936 308.739C273.182 308.562 273.328 308.292 273.376 307.93L273.377 307.922C273.425 307.555 273.353 307.256 273.161 307.025C272.971 306.794 272.679 306.653 272.285 306.602L270.688 306.395L270.789 305.629L272.612 305.866C272.996 305.915 273.322 306.04 273.589 306.24C273.86 306.437 274.059 306.691 274.186 307.001C274.313 307.309 274.352 307.653 274.302 308.034L274.301 308.042C274.251 308.423 274.124 308.749 273.921 309.019C273.719 309.287 273.461 309.483 273.148 309.607C272.838 309.729 272.491 309.765 272.107 309.715L270.284 309.478ZM269.568 311.417L270.335 305.57L271.243 305.688L270.476 311.535L269.568 311.417Z" fill="black"/>
<path d="M277.636 312.774L279.604 307.216L280.468 307.518L278.765 312.33L281.376 313.244L281.111 313.991L277.636 312.774Z" fill="black"/>
<path d="M281.843 314.157L286.696 310.172L287.333 310.548L286.804 311.436L286.564 311.295L282.674 314.647L281.843 314.157ZM283.543 313.309L284.141 312.808L286.454 314.171L286.299 314.933L283.543 313.309ZM285.533 316.331L286.624 311.33L287.154 310.442L287.551 310.677L286.364 316.821L285.533 316.331Z" fill="black"/>
<path d="M289.713 319.403L291.402 317.677L292.346 313.745L293.08 314.455L292.348 317.324L292.395 317.37L295.259 316.564L295.993 317.275L292.063 318.316L290.374 320.043L289.713 319.403Z" fill="black"/>
<path d="M296.719 327.98L302.178 325.749L302.494 326.515L299.474 331.264L299.534 330.564L299.71 330.991L303.674 329.371L304.016 330.198L298.558 332.429L298.241 331.662L301.256 326.911L301.198 327.615L301.02 327.184L297.059 328.803L296.719 327.98Z" fill="black"/>
<path d="M299.74 337.708C299.658 337.141 299.712 336.637 299.901 336.194C300.093 335.751 300.403 335.388 300.83 335.104C301.257 334.82 301.782 334.634 302.405 334.545L302.413 334.543C303.041 334.454 303.599 334.487 304.087 334.643C304.575 334.799 304.972 335.063 305.279 335.434C305.586 335.809 305.78 336.275 305.861 336.833C305.942 337.394 305.888 337.896 305.698 338.338C305.509 338.781 305.201 339.144 304.774 339.428C304.35 339.714 303.825 339.902 303.2 339.991L303.192 339.993C302.569 340.082 302.012 340.05 301.522 339.897C301.035 339.743 300.636 339.48 300.326 339.106C300.017 338.734 299.821 338.268 299.74 337.708ZM300.545 337.593C300.598 337.959 300.737 338.264 300.962 338.507C301.187 338.75 301.479 338.92 301.837 339.018C302.198 339.115 302.605 339.131 303.058 339.066L303.066 339.065C303.524 339 303.912 338.87 304.228 338.676C304.544 338.483 304.774 338.238 304.919 337.942C305.063 337.646 305.109 337.315 305.056 336.948C305.003 336.581 304.865 336.276 304.643 336.033C304.421 335.792 304.131 335.622 303.772 335.522C303.414 335.421 303.005 335.404 302.547 335.47L302.539 335.471C302.085 335.536 301.699 335.664 301.38 335.855C301.064 336.049 300.832 336.292 300.685 336.586C300.538 336.882 300.491 337.218 300.545 337.593Z" fill="black"/>
<path d="M300.407 344.082L306.464 343.283L306.337 344.231L301.652 344.701L301.645 344.754L306.022 346.576L305.908 347.423L301.202 348.046L301.195 348.099L305.592 349.772L305.466 350.715L299.832 348.363L299.947 347.505L304.483 346.829L304.49 346.777L300.292 344.941L300.407 344.082Z" fill="black"/>
<path d="M300.779 353.003L301.53 353.314L300.476 355.836L299.724 355.525L300.779 353.003Z" fill="black"/>
<path d="M297.619 360.036L298.24 360.488L297.287 361.785C297.051 362.106 296.952 362.414 296.988 362.71C297.025 363.009 297.191 363.266 297.486 363.481L297.493 363.486C297.792 363.703 298.09 363.784 298.386 363.726C298.681 363.67 298.946 363.482 299.181 363.162L300.134 361.864L300.759 362.318L299.67 363.8C299.441 364.112 299.174 364.337 298.87 364.476C298.565 364.619 298.246 364.671 297.912 364.634C297.58 364.598 297.258 364.467 296.948 364.241L296.941 364.237C296.63 364.011 296.405 363.744 296.266 363.438C296.128 363.132 296.08 362.813 296.122 362.48C296.165 362.15 296.301 361.83 296.53 361.518L297.619 360.036ZM296.26 358.483L301.03 361.949L300.488 362.687L295.718 359.221L296.26 358.483Z" fill="black"/>
<path d="M291.167 364.868L295.125 369.239L294.443 369.85L291.017 366.067L288.956 367.912L288.424 367.325L291.167 364.868Z" fill="black"/>
<path d="M287.92 367.869L289.124 374.012L288.488 374.389L287.956 373.503L288.194 373.361L287.09 368.361L287.92 367.869ZM287.858 369.759L288.015 370.521L285.706 371.892L285.106 371.392L287.858 369.759ZM284.237 370.055L288.135 373.397L288.667 374.283L288.27 374.519L283.408 370.547L284.237 370.055Z" fill="black"/>
<path d="M279.53 372.216L280.245 374.523L283.262 377.239L282.285 377.539L280.105 375.519L280.043 375.538L279.386 378.428L278.409 378.728L279.366 374.793L278.651 372.486L279.53 372.216Z" fill="black"/>
<path d="M268.556 374.187L267.903 380.048L267.079 379.957L264.355 375.024L264.941 375.413L264.482 375.363L264.008 379.619L263.119 379.521L263.771 373.66L264.596 373.751L267.324 378.681L266.734 378.291L267.197 378.342L267.671 374.09L268.556 374.187Z" fill="black"/>
<path d="M258.543 372.165C259.079 372.364 259.496 372.653 259.794 373.031C260.09 373.411 260.261 373.856 260.305 374.367C260.349 374.877 260.26 375.427 260.039 376.016L260.036 376.024C259.813 376.618 259.516 377.092 259.144 377.445C258.773 377.798 258.35 378.021 257.877 378.112C257.4 378.202 256.898 378.149 256.369 377.953C255.838 377.756 255.424 377.468 255.126 377.09C254.829 376.713 254.658 376.268 254.614 375.758C254.566 375.249 254.654 374.699 254.876 374.107L254.879 374.1C255.1 373.51 255.396 373.038 255.765 372.681C256.134 372.327 256.557 372.103 257.034 372.01C257.509 371.916 258.012 371.968 258.543 372.165ZM258.257 372.926C257.91 372.797 257.575 372.773 257.254 372.855C256.932 372.936 256.643 373.11 256.385 373.378C256.127 373.648 255.917 373.997 255.756 374.425L255.753 374.433C255.59 374.867 255.518 375.268 255.536 375.638C255.554 376.008 255.659 376.328 255.849 376.596C256.039 376.864 256.308 377.063 256.655 377.192C257.003 377.321 257.336 377.346 257.657 377.267C257.975 377.188 258.264 377.015 258.524 376.748C258.784 376.482 258.996 376.132 259.159 375.698L259.162 375.69C259.322 375.262 259.396 374.862 259.381 374.49C259.363 374.12 259.26 373.8 259.074 373.53C258.884 373.26 258.612 373.058 258.257 372.926Z" fill="black"/>
<path d="M252.65 369.731L250.427 375.411L249.655 374.846L251.505 370.524L251.462 370.492L247.746 373.449L247.056 372.945L248.781 368.531L248.738 368.5L245.143 371.546L244.375 370.984L249.164 367.181L249.863 367.693L248.266 371.982L248.309 372.014L251.951 369.22L252.65 369.731Z" fill="black"/>
<path d="M244.576 365.775L243.942 366.284L242.221 364.159L242.856 363.651L244.576 365.775Z" fill="black"/>
<path d="M239.862 359.663L239.167 359.99L238.476 358.536C238.305 358.177 238.08 357.942 237.802 357.832C237.52 357.721 237.214 357.743 236.883 357.898L236.876 357.902C236.541 358.059 236.328 358.281 236.238 358.567C236.146 358.851 236.186 359.173 236.357 359.532L237.048 360.986L236.349 361.315L235.559 359.654C235.393 359.304 235.322 358.963 235.345 358.63C235.364 358.296 235.47 357.992 235.662 357.718C235.852 357.445 236.121 357.227 236.469 357.064L236.476 357.06C236.824 356.897 237.166 356.828 237.504 356.852C237.839 356.879 238.144 356.99 238.418 357.186C238.688 357.381 238.907 357.653 239.073 358.002L239.862 359.663ZM241.882 359.22L236.545 361.728L236.152 360.901L241.489 358.393L241.882 359.22Z" fill="black"/>
<path d="M238.664 351.719L232.923 353.069L232.712 352.179L237.68 351.01L237.04 348.319L237.812 348.137L238.664 351.719Z" fill="black"/>
<path d="M237.567 347.445L231.596 345.534L231.568 344.795L232.601 344.757L232.612 345.034L237.532 346.481L237.567 347.445ZM235.937 346.479L235.192 346.248L235.093 343.565L235.818 343.281L235.937 346.479ZM237.409 343.166L232.609 344.965L231.576 345.003L231.559 344.542L237.373 342.202L237.409 343.166Z" fill="black"/>
<path d="M237.756 337.986L235.388 337.509L231.561 338.855L231.765 337.854L234.581 336.908L234.594 336.844L232.371 334.883L232.575 333.881L235.572 336.608L237.94 337.085L237.756 337.986Z" fill="black"/>
<path d="M241.265 327.506L236.428 324.133L236.906 323.455L242.558 323.431L241.933 323.757L242.199 323.38L238.687 320.93L239.202 320.199L244.039 323.572L243.561 324.25L237.91 324.28L238.538 323.95L238.269 324.331L241.779 326.778L241.265 327.506Z" fill="black"/>
<path d="M247.886 319.735C247.453 320.109 246.998 320.335 246.522 320.415C246.044 320.493 245.569 320.429 245.097 320.224C244.626 320.019 244.183 319.679 243.77 319.205L243.765 319.199C243.347 318.72 243.072 318.235 242.939 317.742C242.805 317.249 242.812 316.774 242.959 316.316C243.108 315.857 243.396 315.443 243.823 315.075C244.252 314.705 244.705 314.48 245.181 314.4C245.657 314.32 246.131 314.383 246.603 314.588C247.074 314.789 247.518 315.128 247.933 315.604L247.939 315.61C248.352 316.085 248.628 316.569 248.765 317.062C248.9 317.553 248.894 318.029 248.747 318.491C248.602 318.95 248.315 319.365 247.886 319.735ZM247.352 319.122C247.632 318.88 247.814 318.599 247.897 318.28C247.979 317.96 247.965 317.624 247.852 317.271C247.738 316.916 247.531 316.567 247.23 316.222L247.225 316.215C246.92 315.866 246.6 315.612 246.265 315.451C245.93 315.29 245.598 315.229 245.27 315.267C244.942 315.306 244.638 315.446 244.357 315.688C244.077 315.93 243.894 316.209 243.81 316.527C243.727 316.843 243.741 317.178 243.851 317.532C243.962 317.887 244.169 318.239 244.473 318.588L244.479 318.594C244.779 318.939 245.097 319.194 245.432 319.358C245.767 319.519 246.099 319.582 246.427 319.547C246.757 319.511 247.065 319.369 247.352 319.122Z" fill="black"/>
<path d="M252.866 315.77L248.911 311.108L249.777 310.704L252.712 314.39L252.76 314.368L251.922 309.704L252.696 309.343L255.771 312.964L255.82 312.941L254.844 308.342L255.707 307.94L256.781 313.945L255.995 314.311L252.969 310.862L252.921 310.884L253.651 315.404L252.866 315.77Z" fill="black"/>
<path d="M260.224 310.624L260.08 309.824L262.772 309.347L262.916 310.147L260.224 310.624Z" fill="black"/>
<g filter="url(#filter0_d_1_29998)">
<rect x="243.789" y="317.438" width="51.0785" height="51.0785" rx="25.5393" stroke="black" stroke-width="0.964898" shape-rendering="crispEdges"/>
</g>
<g clip-path="url(#clip0_1_29998)">
<path d="M102.519 194.468L118.49 254.299C118.49 254.299 140.131 267.512 203.11 269.988C266.092 272.461 286.502 257.387 286.502 257.387L304.843 197.736C304.843 197.736 273.792 210.657 218.395 211.024C162.997 211.39 121.214 203.135 102.516 194.468H102.519Z" fill="#F06A5C"/>
<path d="M186.587 210.107C184.038 212.366 182.341 212.1 175.718 215.765C171.234 218.247 166.059 220.022 161.014 219.099C155.97 218.179 151.305 213.863 151.421 208.752C148.869 211.958 146.02 215.363 142.029 216.33C138.038 217.297 132.955 214.221 133.667 210.189C132.454 215.209 126.237 218.134 121.377 216.354C116.516 214.573 113.667 208.873 114.62 203.8C115.572 198.724 119.869 194.601 124.866 193.243C120.943 193.622 117.489 190.122 116.566 186.304C115.086 180.178 119.285 173.256 125.415 171.718C131.546 170.18 138.531 174.297 140.133 180.394C139.193 173.797 140.145 166.701 144.029 161.276C147.914 155.854 155.08 152.547 161.519 154.337C167.958 156.127 172.501 163.729 169.988 169.902C173.436 167.816 178.549 171.878 177.279 175.696C178.667 170.644 181.24 165.752 185.394 162.542C189.549 159.336 195.46 158.108 200.21 160.351C204.961 162.593 207.795 168.695 205.611 173.46C207.282 170.55 211.175 169.035 214.293 170.286C217.415 171.538 219.157 175.566 217.715 178.592C220.92 174.129 224.839 170.23 228.739 166.355C233.768 161.356 239.777 155.982 246.857 156.573C249.287 156.777 251.596 157.694 253.848 158.623C257.831 160.268 262.136 162.329 263.825 166.284C265.65 170.564 263.739 175.43 261.845 179.678C264.961 175.806 269.118 172.076 274.101 172.079C279.083 172.082 283.762 178.063 280.863 182.1C283.836 179.894 288.507 181.358 290.46 184.502C292.412 187.647 292.053 191.794 290.474 195.136C288.899 198.482 284.053 201.558 281.469 204.208L230.145 211.565L186.593 210.101L186.587 210.107Z" fill="#8AD7E8"/>
<path d="M292.371 192.394C295.03 192.737 299 193.276 301.261 194.805C305.065 197.378 300.148 199.357 297.733 199.928C292.733 201.108 287.531 201.703 282.463 202.528C271.344 204.339 260.205 206.048 249.015 207.373C227.662 209.905 206.122 211.003 184.677 208.956C182.736 208.77 182.751 211.793 184.677 211.976C211.605 214.546 238.605 212.109 265.285 208.231C272.009 207.255 278.718 206.187 285.421 205.087C291.036 204.167 297.751 203.93 302.905 201.324C305.65 199.937 307.552 197.077 305.519 194.154C303.137 190.726 296.092 189.853 292.368 189.374C290.439 189.126 290.457 192.146 292.368 192.394H292.371Z" fill="#2C2C2C"/>
<path d="M116.744 185.248C114.212 185.079 111.619 185.398 109.215 186.212C106.963 186.975 104.64 188.102 102.963 189.827C101.233 191.607 100.45 194.012 101.5 196.349C102.426 198.408 104.563 199.724 106.497 200.715C108.88 201.939 111.399 202.635 114.028 203.105C114.833 203.25 115.661 202.886 115.892 202.052C116.094 201.321 115.643 200.339 114.836 200.194C112.39 199.756 110.017 199.159 107.809 197.994C106.316 197.207 103.708 195.858 104.043 193.799C104.39 191.661 107.174 190.273 108.939 189.528C111.408 188.484 114.079 188.087 116.747 188.265C117.563 188.318 118.26 187.531 118.26 186.756C118.26 185.892 117.566 185.301 116.747 185.248H116.744Z" fill="#2C2C2C"/>
<path d="M161.088 167.296C159.447 164.521 156.444 163.326 153.316 163.791C150.625 164.19 148.124 165.894 147.082 168.438C145.842 171.458 147.219 174.954 149.759 176.829C152.266 178.681 155.978 178.903 158.598 177.149C161.871 174.954 163.002 170.774 161.091 167.296C160.153 165.592 157.539 167.112 158.477 168.819C159.014 169.798 159.168 170.919 158.934 171.848C158.687 172.821 158.189 173.602 157.385 174.3C155.949 175.554 153.699 175.652 151.978 174.673C151.076 174.158 150.453 173.469 150.017 172.517C149.652 171.715 149.542 170.724 149.779 169.875C149.91 169.405 149.975 169.278 150.29 168.807C150.465 168.544 150.762 168.219 151.162 167.887C151.696 167.444 152.512 167.059 153.364 166.849C153.465 166.825 153.566 166.802 153.667 166.781C153.673 166.781 154.15 166.701 153.874 166.737C154.153 166.701 154.438 166.686 154.717 166.689C154.845 166.689 154.972 166.692 155.1 166.701C155.156 166.704 155.587 166.749 155.302 166.71C155.551 166.746 155.797 166.799 156.038 166.867C157.043 167.148 157.886 167.825 158.474 168.822C159.465 170.493 162.082 168.976 161.088 167.299V167.296Z" fill="#2C2C2C"/>
<path d="M170.278 181.535C168.94 179.628 166.652 178.956 164.418 179.4C162.56 179.767 160.91 181.089 160.352 182.92C159.658 185.203 160.818 187.579 162.652 188.942C163.563 189.62 164.789 190.046 165.934 189.969C167.136 189.889 168.198 189.398 169.085 188.596C170.981 186.883 171.691 183.751 170.275 181.535C169.851 180.87 168.907 180.542 168.204 180.994C167.536 181.423 167.207 182.346 167.661 183.059C167.714 183.145 167.768 183.227 167.815 183.316C167.824 183.334 167.833 183.352 167.842 183.369C167.913 183.523 167.91 183.511 167.833 183.337C167.925 183.396 167.949 183.763 167.978 183.852C168.047 184.067 167.97 183.491 167.981 183.863C167.981 183.943 167.99 184.023 167.993 184.103C167.993 184.183 167.993 184.263 167.993 184.343C167.99 184.422 167.984 184.502 167.975 184.585C168.002 184.405 168.008 184.372 167.99 184.485C167.952 184.662 167.919 184.842 167.869 185.017C167.845 185.094 167.815 185.171 167.794 185.248C167.688 185.623 167.94 184.99 167.762 185.333C167.694 185.467 167.628 185.597 167.551 185.727C167.504 185.807 167.453 185.884 167.4 185.961C167.37 186.008 167.337 186.052 167.302 186.097C167.415 185.955 167.435 185.925 167.364 186.011C167.248 186.132 167.145 186.262 167.02 186.378C166.952 186.443 166.881 186.499 166.812 186.561C167.112 186.378 166.652 186.712 166.812 186.561C166.67 186.647 166.536 186.736 166.385 186.812C166.367 186.821 166.352 186.827 166.335 186.836C166.183 186.907 166.204 186.898 166.394 186.812C166.355 186.866 166.136 186.895 166.079 186.91C166.044 186.919 165.878 186.943 165.866 186.957C165.937 186.869 166.156 186.946 165.928 186.946C165.806 186.946 165.682 186.946 165.56 186.946C165.424 186.951 165.385 187.011 165.599 186.96C165.465 186.993 165.186 186.869 165.064 186.83C164.984 186.804 164.729 186.694 165.023 186.83C164.91 186.78 164.8 186.724 164.691 186.665C164.619 186.626 164.548 186.582 164.477 186.537C164.477 186.537 164.139 186.313 164.326 186.443C164.51 186.57 164.201 186.333 164.195 186.33C164.136 186.277 164.076 186.221 164.02 186.165C163.949 186.094 163.881 186.02 163.812 185.943C163.756 185.878 163.602 185.659 163.783 185.919C163.667 185.753 163.557 185.585 163.459 185.407C163.456 185.401 163.275 185.049 163.379 185.262C163.48 185.47 163.329 185.12 163.323 185.109C163.272 184.958 163.24 184.801 163.198 184.647C163.097 184.286 163.198 184.863 163.189 184.635C163.186 184.535 163.174 184.437 163.174 184.337C163.174 184.257 163.174 184.177 163.18 184.097C163.204 183.707 163.213 184.091 163.174 184.097C163.18 184.097 163.284 183.662 163.293 183.63C163.305 183.591 163.361 183.482 163.358 183.452C163.385 183.653 163.225 183.71 163.343 183.517C163.367 183.479 163.569 183.213 163.56 183.165C163.575 183.248 163.352 183.408 163.492 183.254C163.563 183.174 163.631 183.094 163.708 183.02C163.762 182.967 163.821 182.92 163.875 182.867C163.996 182.748 163.961 182.89 163.783 182.932C163.883 182.908 164.038 182.754 164.127 182.701C164.248 182.63 164.373 182.571 164.498 182.506C164.78 182.361 164.24 182.58 164.438 182.529C164.527 182.509 164.616 182.464 164.705 182.438C164.872 182.384 165.041 182.343 165.21 182.307C165.231 182.304 165.37 182.293 165.397 182.275C165.151 182.305 165.112 182.31 165.278 182.293C165.311 182.293 165.34 182.287 165.373 182.284C165.563 182.269 165.756 182.266 165.946 182.272C166.008 182.272 166.073 182.278 166.136 182.284C166.302 182.296 166.441 182.39 166.112 182.275C166.305 182.343 166.524 182.358 166.723 182.423C166.806 182.449 167.07 182.512 166.75 182.42C166.86 182.449 166.97 182.526 167.067 182.58C167.136 182.618 167.201 182.662 167.269 182.704C167.584 182.89 167.073 182.503 167.337 182.751C167.409 182.819 167.483 182.884 167.551 182.955C167.818 183.233 167.477 182.816 167.646 183.062C168.1 183.707 168.993 184.07 169.717 183.603C170.361 183.189 170.747 182.231 170.26 181.538L170.278 181.535Z" fill="#2C2C2C"/>
<path d="M200.05 167.177C198.566 165.361 196.044 164.619 193.789 165.213C191.362 165.852 189.925 167.944 189.46 170.31C189.175 171.762 189.189 173.218 189.807 174.584C190.388 175.874 191.519 176.752 192.827 177.235C195.216 178.11 198.181 177.394 199.857 175.475C201.807 173.244 202.13 169.89 200.284 167.482C199.807 166.855 198.958 166.462 198.213 166.941C197.593 167.34 197.157 168.334 197.67 169.005C197.81 169.186 197.937 169.369 198.05 169.565C198.112 169.674 198.172 169.783 198.228 169.896C198.246 169.931 198.329 170.159 198.252 169.949C198.329 170.162 198.394 170.378 198.445 170.6C198.454 170.635 198.507 170.943 198.483 170.768C198.465 170.638 198.498 171.035 198.501 171.094C198.504 171.304 198.501 171.514 198.471 171.721C198.507 171.434 198.471 171.677 198.46 171.73C198.436 171.819 198.421 171.91 198.397 171.999C198.368 172.111 198.332 172.221 198.296 172.33C198.273 172.398 198.154 172.673 198.27 172.419C198.175 172.629 198.062 172.833 197.937 173.028C197.887 173.105 197.833 173.182 197.783 173.259C197.922 173.055 197.798 173.241 197.762 173.283C197.623 173.439 197.483 173.59 197.329 173.732C197.279 173.777 197.044 173.969 197.261 173.806C197.184 173.865 197.1 173.922 197.017 173.975C196.813 174.108 196.593 174.229 196.368 174.327C196.584 174.232 196.356 174.327 196.317 174.339C196.198 174.374 196.083 174.416 195.964 174.448C195.845 174.481 195.724 174.504 195.605 174.534C195.56 174.546 195.308 174.578 195.569 174.546C195.373 174.569 195.175 174.578 194.979 174.578C194.854 174.578 194.733 174.572 194.608 174.564C194.534 174.558 194.46 174.552 194.385 174.543C194.519 174.558 194.531 174.558 194.421 174.54C194.213 174.475 193.988 174.43 193.777 174.368C193.738 174.356 193.51 174.262 193.724 174.356C193.635 174.318 193.543 174.271 193.457 174.223C193.37 174.176 193.287 174.123 193.201 174.072C192.819 173.86 193.284 174.164 193.095 173.999C193 173.919 192.916 173.83 192.827 173.744C192.632 173.555 192.845 173.836 192.703 173.581C192.655 173.496 192.605 173.41 192.554 173.324C192.534 173.289 192.442 173.064 192.525 173.277C192.445 173.07 192.385 172.851 192.341 172.632C192.329 172.576 192.299 172.265 192.317 172.496C192.308 172.383 192.302 172.268 192.299 172.153C192.293 171.869 192.305 171.579 192.344 171.298C192.317 171.478 192.368 171.2 192.368 171.188C192.391 171.076 192.412 170.964 192.436 170.851C192.492 170.603 192.557 170.354 192.638 170.112C192.67 170.014 192.703 169.917 192.738 169.822C192.842 169.535 192.789 169.698 192.762 169.757C192.869 169.523 193.011 169.313 193.133 169.088C193.305 168.766 193.003 169.198 193.151 169.05C193.222 168.982 193.281 168.899 193.353 168.825C193.462 168.71 193.581 168.609 193.703 168.506C193.43 168.733 193.842 168.429 193.931 168.378C194 168.34 194.071 168.304 194.139 168.269C194.192 168.242 194.243 168.219 194.296 168.195C194.133 168.263 194.103 168.278 194.207 168.236C194.409 168.21 194.623 168.103 194.827 168.059C194.905 168.044 194.982 168.029 195.059 168.018C194.804 168.062 194.955 168.032 195.124 168.023C195.32 168.012 195.519 168.015 195.715 168.029C195.795 168.035 195.872 168.044 195.949 168.053C195.554 168.009 195.949 168.065 196.014 168.08C196.21 168.124 196.397 168.183 196.587 168.245C196.848 168.331 196.605 168.251 196.557 168.228C196.664 168.281 196.774 168.331 196.878 168.39C196.964 168.438 197.05 168.491 197.136 168.547C197.198 168.585 197.258 168.627 197.317 168.671C197.24 168.612 197.24 168.615 197.317 168.68C197.537 168.869 197.73 169.079 197.914 169.304C198.415 169.92 199.54 169.863 200.056 169.304C200.658 168.651 200.593 167.825 200.056 167.169L200.05 167.177Z" fill="#2C2C2C"/>
<path d="M238.035 183.946C239.981 182.139 242.589 184.286 241.75 186.597C241.192 188.129 243.239 188.966 244.281 188.067C246.447 186.194 249.429 184.902 252.275 185.943C254.693 186.827 256.147 189.628 254.601 191.912C253.509 193.527 256.133 195.039 257.216 193.435C259.61 189.898 257.696 185.067 253.969 183.39C249.815 181.521 245.406 183.1 242.135 185.928C242.978 186.416 243.824 186.907 244.667 187.398C245.495 185.126 244.589 182.39 242.539 181.083C240.444 179.746 237.667 180.16 235.889 181.811C234.459 183.139 236.604 185.271 238.032 183.946H238.035Z" fill="#2C2C2C"/>
<path d="M266.13 195.047C266.157 194.929 266.189 194.814 266.234 194.701C266.183 194.823 266.133 194.941 266.082 195.062C266.151 194.905 266.237 194.758 266.34 194.619C266.26 194.719 266.183 194.823 266.103 194.923C266.222 194.772 266.355 194.639 266.504 194.521C266.403 194.601 266.299 194.678 266.198 194.758C266.364 194.63 266.542 194.527 266.735 194.444C266.613 194.494 266.495 194.545 266.373 194.595C266.551 194.524 266.732 194.474 266.919 194.444C266.786 194.462 266.649 194.48 266.516 194.497C266.705 194.474 266.889 194.474 267.079 194.497C266.946 194.48 266.809 194.462 266.676 194.444C266.83 194.468 266.976 194.509 267.121 194.568C266.999 194.518 266.881 194.468 266.759 194.417C266.913 194.485 267.053 194.568 267.186 194.672C267.085 194.592 266.981 194.515 266.881 194.435C267.011 194.542 267.127 194.657 267.234 194.787C267.154 194.687 267.076 194.583 266.996 194.482C267.121 194.642 267.222 194.814 267.305 195C267.254 194.879 267.204 194.761 267.151 194.639C267.228 194.826 267.284 195.018 267.314 195.219C267.296 195.086 267.278 194.953 267.26 194.817C267.287 195.015 267.287 195.213 267.26 195.414C267.278 195.281 267.296 195.148 267.314 195.012C267.287 195.178 267.243 195.337 267.177 195.491C267.228 195.37 267.278 195.252 267.329 195.13C267.323 195.145 267.314 195.16 267.308 195.178C267.133 195.556 267.041 195.923 267.154 196.34C267.251 196.689 267.521 197.071 267.851 197.242C268.201 197.429 268.628 197.52 269.017 197.393C269.37 197.281 269.762 197.05 269.922 196.701C270.142 196.222 270.248 195.843 270.299 195.314C270.332 194.959 270.275 194.586 270.198 194.243C270.047 193.563 269.646 192.867 269.13 192.397C268.498 191.823 267.726 191.495 266.866 191.462C266.151 191.436 265.349 191.667 264.762 192.075C264.011 192.595 263.394 193.332 263.198 194.243C263.115 194.639 263.142 195.047 263.352 195.405C263.536 195.719 263.895 196.018 264.257 196.101C264.646 196.189 265.079 196.169 265.424 195.95C265.744 195.743 266.038 195.432 266.121 195.047H266.13Z" fill="#2C2C2C"/>
<path d="M164.362 202.611C164.279 201.315 165.421 200.443 166.682 200.644C168.024 200.857 168.893 201.996 169.472 203.12C170.131 204.404 171.789 203.85 172.24 202.759C173.267 200.271 174.777 197.991 176.674 196.077C178.261 194.474 181.03 192.116 183.451 193.533C184.362 194.066 184.766 195.16 185.715 195.669C186.685 196.189 187.861 196.021 188.638 195.24C189.445 194.432 189.602 193.373 190.828 192.962C192.157 192.516 193.392 193.202 194.056 194.349C195.033 196.033 197.65 194.512 196.671 192.826C195.175 190.25 192.009 189.04 189.24 190.362C188.59 190.673 187.982 191.11 187.487 191.634C187.246 191.888 187.036 192.184 186.846 192.474C186.76 192.595 186.685 192.726 186.617 192.859C186.409 193.181 186.501 193.143 186.893 192.74C186.623 191.525 184.395 190.537 183.341 190.297C176.742 188.791 171.418 196.87 169.315 201.96C170.237 201.839 171.16 201.721 172.083 201.599C170.887 199.274 168.531 197.328 165.771 197.618C163.267 197.881 161.166 200.064 161.329 202.614C161.451 204.543 164.481 204.557 164.359 202.614L164.362 202.611Z" fill="#2C2C2C"/>
<path d="M198.836 183.325C200.786 183.325 200.789 180.305 198.836 180.305C196.884 180.305 196.884 183.325 198.836 183.325Z" fill="#2C2C2C"/>
<path d="M188.931 183.692C190.881 183.692 190.884 180.672 188.931 180.672C186.979 180.672 186.979 183.692 188.931 183.692Z" fill="#2C2C2C"/>
<path d="M185.264 175.279C187.213 175.279 187.216 172.259 185.264 172.259C183.311 172.259 183.311 175.279 185.264 175.279Z" fill="#2C2C2C"/>
<path d="M157.014 181.861C158.964 181.861 158.967 178.841 157.014 178.841C155.062 178.841 155.062 181.861 157.014 181.861Z" fill="#2C2C2C"/>
<path d="M148.579 183.325C150.529 183.325 150.532 180.305 148.579 180.305C146.626 180.305 146.626 183.325 148.579 183.325Z" fill="#2C2C2C"/>
<path d="M152.979 191.737C154.928 191.737 154.931 188.717 152.979 188.717C151.026 188.717 151.026 191.737 152.979 191.737Z" fill="#2C2C2C"/>
<path d="M253.501 169.795C255.451 169.795 255.454 166.775 253.501 166.775C251.549 166.775 251.549 169.795 253.501 169.795Z" fill="#2C2C2C"/>
<path d="M256.436 177.474C258.385 177.474 258.388 174.454 256.436 174.454C254.483 174.454 254.483 177.474 256.436 177.474Z" fill="#2C2C2C"/>
<path d="M247.264 167.964C249.214 167.964 249.217 164.944 247.264 164.944C245.312 164.944 245.312 167.964 247.264 167.964Z" fill="#2C2C2C"/>
<path d="M246.163 176.01C248.112 176.01 248.115 172.99 246.163 172.99C244.21 172.99 244.21 176.01 246.163 176.01Z" fill="#2C2C2C"/>
<path d="M111.415 228.538C134.884 234.137 158.812 237.752 182.901 239.234C207.332 240.736 231.789 239.639 256.195 238.21C269.922 237.406 283.029 236.122 296.213 232.031C298.068 231.457 297.275 228.541 295.409 229.12C280.406 233.773 265.237 234.749 249.628 235.551C234.284 236.338 218.919 237.145 203.551 236.971C172.786 236.622 142.139 232.767 112.219 225.63C110.326 225.177 109.516 228.088 111.415 228.541V228.538Z" fill="#2C2C2C"/>
<path d="M302.294 210.018C305.861 209.888 309.852 209.894 312.917 211.991C315.564 213.804 317.027 217.049 315.436 220.031C311.875 226.698 303.163 227.792 296.451 228.57C295.632 228.665 294.947 229.197 294.938 230.079C294.929 230.821 295.641 231.682 296.451 231.587C303.202 230.807 310.501 229.836 315.558 224.826C317.849 222.557 319.573 219.489 319.071 216.185C318.614 213.177 316.49 210.556 313.902 209.039C310.433 207.001 306.208 206.853 302.294 206.995C300.35 207.066 300.341 210.086 302.294 210.015V210.018Z" fill="#2C2C2C"/>
<path d="M106.023 209.116C101.697 209.009 97.5664 209.908 93.5931 211.591C90.3943 212.946 87.1035 215.194 86.1094 218.705C85.0353 222.506 87.2133 226.239 89.8987 228.789C92.8127 231.555 96.4715 233.578 100.338 234.661C102.528 235.273 104.813 235.551 107.08 235.672C108.961 235.776 111.02 235.847 112.842 235.291C114.7 234.726 113.908 231.809 112.038 232.38C110.347 232.895 108.406 232.741 106.664 232.629C104.587 232.493 102.543 232.188 100.552 231.576C96.599 230.357 92.3706 227.896 90.0857 224.358C89.0293 222.725 88.4299 220.761 89.2459 218.895C89.9818 217.209 91.5753 216.023 93.1391 215.153C97.0323 212.988 101.596 212.026 106.026 212.136C107.976 212.183 107.976 209.166 106.026 209.116H106.023Z" fill="#2C2C2C"/>
<path d="M275.902 250.906C279.407 242.079 282.588 233.131 285.442 224.074C286.027 222.217 283.104 221.421 282.522 223.273C279.668 232.327 276.487 241.278 272.982 250.104C272.264 251.912 275.193 252.695 275.902 250.906Z" fill="#2C2C2C"/>
<path d="M287.223 218.904C287.469 217.93 287.718 216.954 287.965 215.981C288.063 215.597 288.015 215.162 287.813 214.819C287.629 214.505 287.27 214.206 286.908 214.123C286.52 214.035 286.086 214.055 285.742 214.274C285.413 214.484 285.143 214.789 285.045 215.177C284.799 216.15 284.549 217.126 284.303 218.099C284.205 218.484 284.253 218.918 284.454 219.261C284.638 219.575 284.997 219.874 285.359 219.957C285.748 220.045 286.181 220.025 286.526 219.806C286.852 219.596 287.122 219.291 287.22 218.904H287.223Z" fill="#2C2C2C"/>
<path d="M129.353 248.874C127.715 244.067 126.335 239.178 125.226 234.223C124.801 232.327 121.881 233.129 122.306 235.025C123.415 239.979 124.792 244.869 126.433 249.675C126.697 250.447 127.475 250.956 128.297 250.728C129.05 250.521 129.62 249.646 129.356 248.871L129.353 248.874Z" fill="#2C2C2C"/>
<path d="M90.5127 272.082C90.2189 269.13 91.5543 266.071 93.9163 264.267C95.2011 263.285 96.9281 262.664 98.4474 263.217C100.634 264.009 101.361 266.681 101.714 268.973C102.4 267.713 104.032 267.053 105.406 267.479C106.78 267.905 107.744 269.372 107.593 270.798C109.7 268.526 113.433 267.964 116.115 269.52C118.798 271.076 120.157 274.587 119.216 277.536L90.5127 272.082Z" fill="#8AD7E8"/>
<path d="M61.5017 292.368C59.8786 290.176 56.8756 289.309 54.1753 289.706C50.9676 290.176 47.929 292.498 47.2702 295.663C46.6115 298.828 48.9498 302.478 52.1872 302.662C50.9943 303.656 50.5136 305.504 51.291 306.847C52.0685 308.19 54.1486 308.643 55.2851 307.581C53.6085 309.684 53.5403 312.84 54.9112 315.153C56.2821 317.466 58.9201 318.904 61.6085 319.081C64.297 319.256 66.9943 318.253 69.1011 316.576C69.4898 318.744 72.1961 319.735 74.3711 319.345C76.5729 318.948 78.567 317.531 79.6619 315.585C80.5432 317.528 83.3088 318.005 85.2079 317.023C87.107 316.041 88.2584 314.053 89.0358 312.065C89.0358 312.065 66.5343 309.77 63.3474 302.653C60.1605 295.536 61.5047 292.362 61.5047 292.362L61.5017 292.368Z" fill="#8AD7E8"/>
<path d="M125.643 308.258C123.845 309.743 123.219 306.525 120.896 306.282C118.572 306.04 116.27 308.066 116.219 310.394C116.157 308.856 114.73 307.604 113.204 307.38C111.676 307.155 110.127 307.773 108.881 308.681C106.646 310.308 105.145 313.009 105.273 315.762C105.4 318.519 107.317 321.187 109.991 321.909C112.661 322.631 115.836 321.093 116.655 318.457C117.875 320.711 120.086 322.613 122.652 322.714C125.219 322.814 127.848 320.542 127.483 318.008C128.077 321.17 132.038 322.918 135.089 321.862C138.139 320.809 140.106 317.679 140.59 314.499C141.1 311.154 139.931 307.303 136.943 305.699C139.118 306.321 141.569 304.735 142.172 302.561C142.771 300.387 141.685 297.95 139.83 296.657C137.976 295.364 135.504 295.139 133.323 295.737C133.323 295.737 132.136 302.895 125.643 308.255V308.258Z" fill="#8AD7E8"/>
<path d="M134.235 317.564C135.425 317.564 135.428 315.721 134.235 315.721C133.042 315.721 133.042 317.564 134.235 317.564Z" fill="#2C2C2C"/>
<path d="M137.297 314.485C138.487 314.485 138.49 312.642 137.297 312.642C136.104 312.642 136.104 314.485 137.297 314.485Z" fill="#2C2C2C"/>
<path d="M135.558 320.297C136.748 320.297 136.751 318.454 135.558 318.454C134.365 318.454 134.365 320.297 135.558 320.297Z" fill="#2C2C2C"/>
<path d="M133.652 314.508C134.842 314.508 134.845 312.666 133.652 312.666C132.46 312.666 132.46 314.508 133.652 314.508Z" fill="#2C2C2C"/>
<path d="M111.14 314.319C111.226 314.26 111.312 314.198 111.401 314.138C111.507 314.079 111.594 314.002 111.659 313.902C111.742 313.813 111.795 313.71 111.825 313.588C111.864 313.467 111.87 313.343 111.843 313.222C111.837 313.097 111.801 312.985 111.733 312.878C111.686 312.816 111.638 312.754 111.588 312.692C111.472 312.577 111.335 312.5 111.181 312.455C111.098 312.444 111.018 312.435 110.935 312.423C110.769 312.423 110.611 312.464 110.469 312.55C110.383 312.609 110.297 312.671 110.208 312.73C110.101 312.79 110.015 312.867 109.95 312.967C109.867 313.056 109.813 313.159 109.783 313.281C109.745 313.402 109.739 313.526 109.766 313.647C109.772 313.772 109.807 313.884 109.875 313.991C109.923 314.053 109.97 314.115 110.021 314.177C110.137 314.292 110.273 314.369 110.43 314.414L110.677 314.446C110.843 314.446 111 314.405 111.143 314.319H111.14Z" fill="#2C2C2C"/>
<path d="M109.513 318.321C110.703 318.321 110.706 316.478 109.513 316.478C108.32 316.478 108.32 318.321 109.513 318.321Z" fill="#2C2C2C"/>
<path d="M112.418 318.617C113.608 318.617 113.611 316.774 112.418 316.774C111.225 316.774 111.225 318.617 112.418 318.617Z" fill="#2C2C2C"/>
<path d="M132.822 282.506C132.347 281.817 131.564 281.349 130.798 280.971C128.956 280.063 126.991 279.421 125.027 278.805C120.24 277.306 115.416 275.93 110.555 274.685C105.267 273.327 99.8844 272.135 94.4096 271.899C88.8814 271.659 83.8844 272.644 78.8428 274.865C73.9051 277.042 69.2434 279.835 65.0031 283.165C63.3235 284.485 61.5342 286.467 62.2612 288.472C62.8161 289.998 64.5609 290.673 66.1158 291.155C78.3176 294.932 90.7805 297.831 103.315 300.301C106.285 300.887 109.347 301.449 112.321 300.878C115.54 300.257 118.353 298.364 120.973 296.396C124.469 293.773 127.804 290.942 130.962 287.925C132.356 286.591 133.828 284.704 133.059 282.938C132.994 282.787 132.914 282.645 132.822 282.509V282.506Z" fill="#F7C47E"/>
<path d="M123.507 283.269C121.018 280.781 116.32 280.143 113.071 279.234C108.439 277.939 103.751 276.661 98.985 275.948C90.4806 274.679 82.8574 276.631 75.5696 281.086C73.6319 282.269 69.6556 284.366 70.6883 287.274C71.7001 290.126 77.0622 290.593 79.4509 291.241C84.1096 292.504 88.804 293.625 93.5221 294.645C97.8811 295.589 102.727 297.175 107.228 296.882C111.552 296.601 115.24 293.66 118.543 291.134C120.564 289.59 125.629 286.629 123.65 283.452C123.024 282.447 121.421 283.373 122.053 284.384C123.4 286.544 113.638 292.462 112.119 293.344C107.498 296.024 102.837 294.702 97.9227 293.693C93.6823 292.823 89.4568 291.883 85.255 290.841C83.3174 290.362 81.3856 289.859 79.4598 289.333C78.2402 288.999 71.4895 287.984 73.0028 285.18C73.7654 283.766 76.6883 282.536 78.0028 281.799C79.8426 280.77 81.7565 279.85 83.7239 279.092C87.5993 277.602 91.6349 277.087 95.7654 277.412C100.323 277.773 104.801 278.936 109.208 280.095C111.46 280.687 113.7 281.314 115.932 281.973C117.988 282.583 120.647 283.021 122.196 284.568C123.038 285.408 124.344 284.106 123.504 283.263L123.507 283.269Z" fill="#2C2C2C"/>
<path d="M92.4148 281.858C92.2101 280.249 91.0023 278.823 89.2902 278.77C87.6819 278.72 86.2041 280.077 86.2101 281.693C86.213 282.544 86.6018 283.337 87.0439 284.044C87.4118 284.633 87.9252 285.251 88.0261 285.961C88.216 287.298 86.0498 287.443 85.1596 287.33C84.5127 287.248 83.848 286.961 83.5187 286.405C83.2605 285.967 83.1626 285.349 83.4326 285.008C83.7412 284.618 83.8154 284.086 83.4326 283.704C83.1121 283.384 82.4356 283.311 82.124 283.704C81.1092 284.985 81.2813 286.739 82.3703 287.934C83.5246 289.197 85.4386 289.365 87.0231 289.052C87.7798 288.904 88.5543 288.588 89.1062 288.037C89.7828 287.36 89.9845 286.428 89.8095 285.508C89.6433 284.639 89.1388 283.905 88.6759 283.171C88.3525 282.657 87.8658 281.95 88.121 281.314C88.6136 280.083 90.4059 280.648 90.5602 281.855C90.6225 282.349 90.94 282.778 91.486 282.778C91.9371 282.778 92.4742 282.352 92.4118 281.855L92.4148 281.858Z" fill="#2C2C2C"/>
<path d="M96.6475 281.563C94.9027 281.915 93.4902 283.124 92.4932 284.547C91.9413 285.337 91.511 286.242 91.4576 287.218C91.4072 288.126 91.7989 289.026 92.4279 289.673C93.0273 290.289 93.8523 290.676 94.7128 290.723C95.698 290.78 96.6594 290.321 97.4309 289.756C98.8997 288.679 100.042 287.2 100.645 285.476C101.015 284.414 100.983 283.181 100.093 282.382C99.1727 281.554 97.8315 281.24 96.6891 281.74C96.2321 281.941 96.1253 282.607 96.3567 283C96.6327 283.47 97.1638 283.533 97.6208 283.331C97.965 283.181 98.7365 283.538 98.9502 283.849C99.1846 284.192 98.9235 284.861 98.7543 285.263C98.2974 286.351 97.5259 287.357 96.5911 288.094C96.1223 288.463 95.5318 288.854 94.9146 288.886C94.5021 288.907 94.0837 288.721 93.7692 288.407C93.6089 288.251 93.4932 288.094 93.4101 287.907C93.3092 287.68 93.2796 287.508 93.3033 287.221C93.3537 286.603 93.7069 286.029 94.054 285.526C94.7929 284.452 95.8463 283.604 97.1342 283.343C97.6238 283.243 97.9057 282.666 97.781 282.21C97.6416 281.702 97.1342 281.468 96.6445 281.565L96.6475 281.563Z" fill="#2C2C2C"/>
<path d="M100.16 290.992C100.843 289.948 101.587 288.946 102.406 288.002C102.813 287.532 103.234 287.073 103.671 286.629C104.077 286.215 104.487 285.783 104.976 285.47C105.027 285.437 105.077 285.405 105.128 285.375C105.231 285.328 105.252 285.313 105.193 285.331C105.356 285.295 105.326 285.287 105.104 285.31C105.009 285.295 104.947 285.251 104.917 285.174C104.973 285.272 104.982 285.287 104.944 285.221C104.938 285.15 104.938 285.18 104.941 285.31C104.929 285.399 104.881 285.547 104.849 285.653C104.665 286.239 104.43 286.816 104.184 287.381C103.92 287.981 103.638 288.576 103.35 289.167C103.098 289.688 102.884 290.318 102.463 290.658C102.074 290.972 102.136 291.634 102.463 291.963C102.846 292.344 103.38 292.276 103.771 291.963C104.237 291.587 104.49 291.037 104.745 290.513C105.024 289.942 105.303 289.371 105.564 288.795C105.843 288.185 106.107 287.567 106.344 286.943C106.57 286.351 106.837 285.718 106.777 285.077C106.712 284.364 106.258 283.719 105.546 283.527C104.866 283.346 104.217 283.731 103.697 284.121C102.724 284.855 101.887 285.783 101.095 286.7C100.175 287.762 99.3293 288.889 98.5608 290.064C98.2878 290.481 98.4777 291.081 98.8931 291.324C99.3441 291.587 99.8842 291.412 100.157 290.992H100.16Z" fill="#2C2C2C"/>
<path d="M101.605 288.789C101.92 288.789 102.235 288.813 102.546 288.854C102.463 288.842 102.383 288.833 102.3 288.821C102.905 288.907 103.499 289.07 104.062 289.304C103.988 289.274 103.914 289.241 103.843 289.212C103.89 289.233 103.938 289.253 103.985 289.274C104.22 289.377 104.439 289.437 104.697 289.366C104.911 289.307 105.146 289.141 105.249 288.943C105.362 288.73 105.419 288.469 105.341 288.233C105.273 288.02 105.131 287.777 104.917 287.683C103.867 287.215 102.757 286.952 101.603 286.946C101.119 286.946 100.656 287.372 100.677 287.869C100.7 288.369 101.083 288.789 101.603 288.792L101.605 288.789Z" fill="#2C2C2C"/>
<path d="M110.626 284.671C109.795 285.715 109.145 286.919 108.436 288.046C107.718 289.194 106.997 290.342 106.279 291.486C106.015 291.909 106.19 292.501 106.611 292.747C107.053 293.004 107.611 292.838 107.875 292.415C108.57 291.306 109.267 290.194 109.964 289.085C110.312 288.528 110.662 287.975 111.009 287.419C111.306 286.943 111.605 286.387 111.935 285.97C112.243 285.579 112.317 285.047 111.935 284.665C111.614 284.346 110.938 284.272 110.626 284.665V284.671Z" fill="#2C2C2C"/>
<path d="M111.392 286.156C111.513 286.147 111.635 286.141 111.757 286.15C111.816 286.153 111.878 286.168 111.938 286.165C111.938 286.165 111.745 286.13 111.843 286.156C111.893 286.168 111.943 286.174 111.991 286.186C112.11 286.212 112.225 286.251 112.341 286.292C112.504 286.348 112.193 286.215 112.344 286.292C112.406 286.325 112.472 286.357 112.534 286.393C112.587 286.422 112.638 286.455 112.688 286.49C112.715 286.508 112.878 286.627 112.768 286.544C112.659 286.464 112.813 286.585 112.837 286.609C112.89 286.656 112.941 286.706 112.988 286.76C113.006 286.78 113.163 286.961 113.074 286.854C112.991 286.754 113.113 286.919 113.133 286.952C113.154 286.984 113.234 287.168 113.193 287.05C113.151 286.931 113.222 287.15 113.231 287.191C113.276 287.351 113.24 287.047 113.231 287.215C113.231 287.248 113.225 287.286 113.228 287.316C113.234 287.416 113.231 287.251 113.243 287.239C113.216 287.268 113.216 287.375 113.205 287.416C113.193 287.458 113.116 287.656 113.178 287.52C113.243 287.378 113.142 287.582 113.124 287.614C113.098 287.665 113.065 287.712 113.035 287.759C112.946 287.898 113.151 287.632 113.041 287.753C112.997 287.804 112.952 287.854 112.905 287.898C112.863 287.94 112.819 287.975 112.777 288.014C112.706 288.079 112.851 287.958 112.851 287.958C112.828 287.966 112.801 287.993 112.78 288.008C112.679 288.076 112.549 288.117 112.454 288.191C112.454 288.191 112.635 288.123 112.543 288.153C112.507 288.165 112.472 288.179 112.433 288.191C112.38 288.209 112.323 288.224 112.267 288.239C112.231 288.247 112.035 288.28 112.178 288.259C112.311 288.242 112.199 288.256 112.172 288.259C112.127 288.259 112.086 288.265 112.041 288.265C111.967 288.265 111.89 288.265 111.816 288.259C111.792 288.259 111.742 288.245 111.718 288.25C111.76 288.239 111.902 288.283 111.771 288.256C111.623 288.227 111.478 288.191 111.332 288.141C111.3 288.129 111.24 288.097 111.211 288.094C111.264 288.097 111.362 288.165 111.252 288.108C111.184 288.073 111.116 288.04 111.05 288.002C110.985 287.964 110.92 287.922 110.857 287.881C110.831 287.863 110.804 287.842 110.777 287.825C110.673 287.754 110.949 287.964 110.786 287.825C110.418 287.514 109.837 287.437 109.478 287.825C109.163 288.168 109.083 288.798 109.478 289.129C110.148 289.694 110.929 290.046 111.813 290.105C112.641 290.161 113.427 289.857 114.059 289.342C114.668 288.845 115.053 288.07 115.08 287.286C115.113 286.343 114.492 285.55 113.771 285.011C113.107 284.515 112.216 284.254 111.386 284.319C110.905 284.358 110.436 284.716 110.46 285.242C110.481 285.71 110.869 286.206 111.386 286.165L111.392 286.156Z" fill="#2C2C2C"/>
<path d="M61.2729 287.668C61.0682 290.395 60.9465 293.128 60.9465 295.861C60.9465 298.065 61.0237 300.313 62.0593 302.313C64.0593 306.164 68.2344 308.013 72.2106 309.145C82.8842 312.18 93.9732 314.038 104.991 315.257C106.172 315.387 106.163 313.541 104.991 313.414C95.1246 312.322 85.3412 310.577 75.7151 308.158C71.5074 307.102 66.3442 305.954 63.9584 301.922C62.724 299.837 62.7804 297.42 62.7982 295.08C62.8189 292.604 62.9347 290.135 63.1216 287.668C63.2106 286.484 61.362 286.49 61.2729 287.668Z" fill="#2C2C2C"/>
<path d="M132.133 283.807C132.442 288.419 132.786 293.154 131.662 297.689C130.581 302.049 128.193 305.486 124.436 307.968C123.448 308.619 124.374 310.219 125.371 309.559C129.273 306.983 131.949 303.466 133.237 298.964C134.647 294.039 134.323 288.854 133.985 283.807C133.905 282.63 132.056 282.621 132.136 283.807H132.133Z" fill="#2C2C2C"/>
<path d="M65.6915 295.036C68.196 296.222 70.7716 297.263 73.4007 298.142C73.8725 298.299 74.4096 297.958 74.5372 297.497C74.6767 296.994 74.3651 296.521 73.8903 296.364C71.4096 295.536 68.9853 294.563 66.6233 293.445C66.1722 293.232 65.6262 293.32 65.3592 293.776C65.1248 294.178 65.2375 294.823 65.6915 295.036Z" fill="#2C2C2C"/>
<path d="M75.8107 298.574C75.9977 298.657 76.1846 298.743 76.3716 298.825C76.4784 298.893 76.5912 298.929 76.7158 298.935C76.8374 298.961 76.9621 298.955 77.0837 298.917C77.2054 298.887 77.3093 298.834 77.3983 298.751C77.4992 298.686 77.5793 298.601 77.6357 298.494C77.6653 298.42 77.698 298.346 77.7277 298.275C77.7722 298.112 77.7722 297.95 77.7277 297.784C77.698 297.71 77.6653 297.636 77.6357 297.562C77.5526 297.423 77.4428 297.314 77.3033 297.231C77.1164 297.148 76.9294 297.062 76.7425 296.98C76.6357 296.912 76.5229 296.876 76.3983 296.87C76.2766 296.843 76.152 296.849 76.0303 296.888C75.9087 296.917 75.8048 296.971 75.7158 297.053C75.6149 297.119 75.5348 297.204 75.4784 297.311C75.4458 297.385 75.4161 297.459 75.3864 297.53C75.3419 297.692 75.3419 297.855 75.3864 298.021C75.4161 298.095 75.4487 298.169 75.4784 298.24C75.5615 298.379 75.6713 298.488 75.8107 298.571V298.574Z" fill="#2C2C2C"/>
<path d="M59.4568 312.766C60.6467 312.766 60.6497 310.923 59.4568 310.923C58.2639 310.923 58.2639 312.766 59.4568 312.766Z" fill="#2C2C2C"/>
<path d="M57.7095 314.869C58.8994 314.869 58.9024 313.026 57.7095 313.026C56.5166 313.026 56.5166 314.869 57.7095 314.869Z" fill="#2C2C2C"/>
<path d="M61.1815 315.801C62.3714 315.801 62.3744 313.958 61.1815 313.958C59.9886 313.958 59.9886 315.801 61.1815 315.801Z" fill="#2C2C2C"/>
<path d="M64.9345 314.357C66.1244 314.357 66.1273 312.515 64.9345 312.515C63.7416 312.515 63.7416 314.357 64.9345 314.357Z" fill="#2C2C2C"/>
<path d="M56.1097 292.306L55.9613 292.279C55.8396 292.241 55.715 292.235 55.5933 292.261C55.4687 292.267 55.356 292.303 55.2491 292.371C55.1423 292.43 55.0562 292.507 54.988 292.608C54.9079 292.696 54.8515 292.8 54.8218 292.921L54.7892 293.167C54.7892 293.332 54.8307 293.489 54.9168 293.631C54.9643 293.693 55.0117 293.755 55.0622 293.817C55.1779 293.933 55.3144 294.01 55.4717 294.054L55.62 294.081C55.7417 294.119 55.8663 294.125 55.988 294.095C56.1126 294.089 56.2254 294.054 56.3322 293.986C56.439 293.927 56.5251 293.85 56.5933 293.749C56.6735 293.661 56.7298 293.557 56.7595 293.436L56.7922 293.19C56.7922 293.025 56.7506 292.868 56.6646 292.726C56.6171 292.664 56.5696 292.602 56.5192 292.54C56.4034 292.424 56.2669 292.347 56.1097 292.303V292.306Z" fill="#2C2C2C"/>
<path d="M52.1906 295.116C53.3805 295.116 53.3834 293.273 52.1906 293.273C50.9977 293.273 50.9977 295.116 52.1906 295.116Z" fill="#2C2C2C"/>
<path d="M51.8755 300.204C53.0654 300.204 53.0684 298.361 51.8755 298.361C50.6826 298.361 50.6826 300.204 51.8755 300.204Z" fill="#2C2C2C"/>
<path d="M55.1034 297.459C56.2933 297.459 56.2963 295.616 55.1034 295.616C53.9105 295.616 53.9105 297.459 55.1034 297.459Z" fill="#2C2C2C"/>
<path d="M236.964 122.787C228.647 122.787 221.881 116.043 221.881 107.752C221.881 99.4608 228.647 92.7196 236.964 92.7196C245.282 92.7196 252.044 99.4638 252.044 107.755C252.044 116.046 245.279 122.79 236.964 122.79V122.787ZM236.964 96.7454C230.872 96.7454 225.92 101.682 225.92 107.755C225.92 113.828 230.872 118.765 236.964 118.765C243.056 118.765 248.006 113.828 248.006 107.755C248.006 101.682 243.05 96.7454 236.964 96.7454Z" fill="#2C2C2C"/>
<path d="M200.018 137.991C195.719 137.991 192.223 134.507 192.223 130.221C192.223 125.935 195.719 122.45 200.018 122.45C204.318 122.45 207.811 125.935 207.811 130.221C207.811 134.507 204.315 137.991 200.018 137.991ZM200.018 126.476C197.947 126.476 196.259 128.156 196.259 130.221C196.259 132.285 197.947 133.966 200.018 133.966C202.089 133.966 203.775 132.285 203.775 130.221C203.775 128.156 202.089 126.476 200.018 126.476Z" fill="#2C2C2C"/>
<path d="M279.211 151.14C270.826 151.14 264.001 144.339 264.001 135.98C264.001 127.621 270.823 120.82 279.211 120.82C287.6 120.82 294.419 127.621 294.419 135.98C294.419 144.339 287.597 151.14 279.211 151.14ZM279.211 124.843C273.051 124.843 268.039 129.839 268.039 135.98C268.039 142.121 273.051 147.114 279.211 147.114C285.372 147.114 290.381 142.118 290.381 135.98C290.381 129.842 285.369 124.843 279.211 124.843Z" fill="#2C2C2C"/>
<path d="M127.021 136.681C120.24 136.681 114.724 131.182 114.724 124.426C114.724 117.67 120.24 112.171 127.021 112.171C133.801 112.171 139.318 117.67 139.318 124.426C139.318 131.182 133.801 136.681 127.021 136.681ZM127.021 116.197C122.466 116.197 118.763 119.889 118.763 124.429C118.763 128.97 122.466 132.658 127.021 132.658C131.576 132.658 135.279 128.967 135.279 124.429C135.279 119.892 131.576 116.197 127.021 116.197Z" fill="#2C2C2C"/>
<path d="M166.52 126.476C163.365 126.476 160.802 123.92 160.802 120.776C160.802 117.632 163.365 115.076 166.52 115.076C169.674 115.076 172.241 117.632 172.241 120.776C172.241 123.92 169.674 126.476 166.52 126.476ZM166.52 119.099C165.597 119.099 164.84 119.85 164.84 120.773C164.84 121.696 165.594 122.447 166.52 122.447C167.445 122.447 168.202 121.696 168.202 120.773C168.202 119.85 167.448 119.099 166.52 119.099Z" fill="#2C2C2C"/>
<path d="M97.6855 148.409C94.0208 148.409 91.0446 145.44 91.0446 141.789C91.0446 138.139 94.0238 135.169 97.6855 135.169C101.347 135.169 104.323 138.139 104.323 141.789C104.323 145.44 101.344 148.409 97.6855 148.409ZM97.6855 139.195C96.2523 139.195 95.0831 140.361 95.0831 141.789C95.0831 143.218 96.2523 144.384 97.6855 144.384C99.1187 144.384 100.285 143.218 100.285 141.789C100.285 140.361 99.1187 139.195 97.6855 139.195Z" fill="#2C2C2C"/>
</g>
<defs>
<filter id="filter0_d_1_29998" x="233.014" y="306.663" width="71.9846" height="71.9847" filterUnits="userSpaceOnUse" color-interpolation-filters="sRGB">
<feFlood flood-opacity="0" result="BackgroundImageFix"/>
<feColorMatrix in="SourceAlpha" type="matrix" values="0 0 0 0 0 0 0 0 0 0 0 0 0 0 0 0 0 0 127 0" result="hardAlpha"/>
<feOffset dx="-0.321633" dy="-0.321633"/>
<feGaussianBlur stdDeviation="4.98531"/>
<feComposite in2="hardAlpha" operator="out"/>
<feColorMatrix type="matrix" values="0 0 0 0 1 0 0 0 0 1 0 0 0 0 1 0 0 0 1 0"/>
<feBlend mode="normal" in2="BackgroundImageFix" result="effect1_dropShadow_1_29998"/>
<feBlend mode="normal" in="SourceGraphic" in2="effect1_dropShadow_1_29998" result="shape"/>
</filter>
<clipPath id="clip0_1_29998">
<rect width="272" height="230" fill="white" transform="translate(47.1573 92.7196)"/>
</clipPath>
</defs>
</svg>
