<svg width="285" height="285" viewBox="0 0 285 285" fill="none" xmlns="http://www.w3.org/2000/svg">
<circle cx="142.5" cy="142.5" r="142.5" fill="#22578E"/>
<g clip-path="url(#clip0_1_22915)">
<path d="M159.642 166.286C159.995 154.056 156.006 143.647 148.41 136.977C140.814 130.307 129.977 127.697 117.895 129.629C107.035 131.365 96.845 136.622 90.636 143.693C87.6199 147.128 86.3725 150.666 86.9283 154.21C87.4767 157.708 89.6693 160.654 92.6801 163.297C95.8835 166.11 100.013 168.581 104.071 171.009C107.617 173.131 110.967 175.135 113.19 177.087C115.109 178.772 117.374 181.65 119.771 184.697C125.373 191.817 131.723 199.887 139.305 200.092C142.91 200.189 146.245 198.521 149.219 195.135C155.428 188.064 159.324 177.28 159.642 166.286Z" fill="#8EAFD1"/>
<path d="M194.004 128.364C194.637 123.316 193.157 118.804 189.946 115.983C186.734 113.163 182.068 112.28 177.145 113.559C172.622 114.734 168.185 117.598 164.651 121.621C161.118 125.645 158.852 130.415 158.271 135.052C157.639 140.1 159.118 144.612 162.33 147.433C165.542 150.253 170.207 151.136 175.131 149.857C179.654 148.682 184.091 145.818 187.624 141.795C191.158 137.771 193.424 133.001 194.004 128.364Z" fill="#B7D7F8"/>
<path d="M194.004 128.364C194.637 123.316 193.157 118.804 189.946 115.983C186.734 113.163 182.068 112.28 177.145 113.559C172.622 114.734 168.185 117.598 164.651 121.621C161.118 125.645 158.852 130.415 158.271 135.052C157.639 140.1 159.118 144.612 162.33 147.433C165.542 150.253 170.207 151.136 175.131 149.857C179.654 148.682 184.091 145.818 187.624 141.795C191.158 137.771 193.424 133.001 194.004 128.364Z" fill="#B7D7F8"/>
<path d="M167.918 105.458C168.551 100.41 167.072 95.898 163.86 93.0777C160.648 90.2574 155.982 89.3738 151.059 90.6532C146.536 91.8287 142.099 94.6919 138.565 98.7157C135.032 102.74 132.766 107.509 132.185 112.146C131.553 117.194 133.032 121.707 136.244 124.527C139.456 127.347 144.121 128.231 149.045 126.951C153.568 125.776 158.005 122.913 161.539 118.889C165.072 114.865 167.338 110.095 167.918 105.458Z" fill="#B7D7F8"/>
<path d="M193.931 172.015C195.65 168.313 195.673 164.547 193.997 161.411C192.648 158.887 190.263 157.02 187.282 156.154C183.173 154.959 178.322 155.683 173.973 158.14C170.419 160.147 167.605 163.097 166.05 166.446C164.332 170.148 164.308 173.914 165.985 177.05C166.565 178.136 167.336 179.099 168.265 179.914C169.495 180.995 171.001 181.814 172.7 182.308C176.809 183.502 181.66 182.779 186.009 180.322L186.009 180.322C189.562 178.315 192.376 175.365 193.931 172.015Z" fill="#B7D7F8"/>
<path d="M124.122 114.364C125.995 109.734 126.086 104.83 124.37 100.911C123.126 98.066 120.966 95.9426 118.289 94.931C114.962 93.6741 111.231 94.1841 107.782 96.3668C104.662 98.3417 102.1 101.513 100.569 105.297L100.569 105.297C98.6959 109.927 98.6052 114.831 100.321 118.75C101.03 120.372 102.037 121.759 103.267 122.839C104.195 123.654 105.251 124.295 106.402 124.73C109.729 125.987 113.46 125.477 116.909 123.294C120.029 121.319 122.59 118.148 124.122 114.364Z" fill="#B7D7F8"/>
</g>
<circle cx="142.5" cy="142.5" r="82" stroke="white" stroke-width="3"/>
<circle cx="142.5" cy="142.5" r="134" stroke="white" stroke-width="3"/>
<path d="M163.952 238.03L164.32 240.172L158.553 241.163C157.098 241.413 156.042 241.89 155.387 242.595C154.723 243.31 154.488 244.224 154.679 245.338L154.684 245.365C154.813 246.12 155.096 246.719 155.533 247.161C155.97 247.604 156.56 247.891 157.304 248.022C158.039 248.155 158.923 248.133 159.956 247.955L165.494 247.004L165.853 249.092L161.002 249.926C159.565 250.173 158.517 250.639 157.858 251.326C157.19 252.014 156.946 252.884 157.127 253.935L157.132 253.962C157.297 254.923 157.741 255.6 158.466 255.993C159.191 256.396 160.143 256.496 161.319 256.294L166.925 255.331L167.293 257.473L161.135 258.531C160.021 258.723 159.012 258.688 158.107 258.427C157.202 258.167 156.454 257.713 155.862 257.065C155.269 256.418 154.89 255.609 154.723 254.639L154.719 254.612C154.603 253.938 154.645 253.27 154.846 252.606C155.046 251.943 155.375 251.355 155.833 250.842C156.292 250.337 156.849 249.978 157.506 249.763L157.497 249.709C156.544 249.762 155.694 249.631 154.946 249.315C154.198 249 153.586 248.532 153.109 247.911C152.634 247.299 152.323 246.562 152.175 245.699L152.17 245.672C151.974 244.531 152.071 243.507 152.46 242.598C152.842 241.7 153.485 240.947 154.389 240.339C155.294 239.739 156.438 239.321 157.821 239.083L163.952 238.03ZM165.165 237.821L168.506 257.265L166.08 257.682L162.739 238.238L165.165 237.821Z" fill="white"/>
<path d="M135.72 239.803C137.584 239.932 139.17 240.457 140.477 241.378C141.774 242.299 142.739 243.544 143.371 245.114C144.003 246.683 144.247 248.509 144.103 250.591L144.101 250.618C143.958 252.701 143.465 254.471 142.625 255.93C141.774 257.397 140.643 258.497 139.231 259.231C137.81 259.965 136.172 260.267 134.317 260.139C132.462 260.011 130.886 259.487 129.588 258.566C128.29 257.645 127.326 256.4 126.694 254.831C126.061 253.27 125.817 251.449 125.961 249.367L125.963 249.34C126.106 247.257 126.599 245.482 127.44 244.015C128.281 242.547 129.408 241.446 130.82 240.712C132.223 239.977 133.856 239.674 135.72 239.803ZM135.564 242.067C134.209 241.974 133.023 242.216 132.006 242.795C130.978 243.382 130.16 244.248 129.551 245.394C128.942 246.539 128.583 247.912 128.472 249.513L128.47 249.54C128.359 251.149 128.531 252.564 128.986 253.783C129.432 255.001 130.124 255.963 131.062 256.667C132 257.38 133.137 257.783 134.473 257.875C135.81 257.967 136.996 257.725 138.032 257.148C139.058 256.579 139.88 255.722 140.498 254.577C141.115 253.441 141.48 252.064 141.592 250.445L141.593 250.418C141.704 248.808 141.532 247.394 141.078 246.175C140.623 244.956 139.926 243.99 138.989 243.276C138.051 242.563 136.91 242.16 135.564 242.067Z" fill="white"/>
<path d="M111.106 234.92C112.875 235.522 114.273 236.436 115.3 237.661C116.319 238.884 116.933 240.334 117.142 242.013C117.35 243.692 117.119 245.519 116.447 247.495L116.438 247.521C115.766 249.497 114.837 251.083 113.65 252.277C112.453 253.478 111.077 254.252 109.525 254.6C107.963 254.945 106.302 254.818 104.542 254.219C102.782 253.621 101.392 252.71 100.373 251.487C99.3548 250.265 98.7411 248.814 98.5323 247.135C98.3205 245.465 98.5507 243.642 99.2228 241.666L99.2316 241.64C99.9037 239.664 100.834 238.074 102.023 236.871C103.212 235.668 104.583 234.892 106.136 234.544C107.68 234.193 109.337 234.319 111.106 234.92ZM110.375 237.069C109.089 236.632 107.881 236.562 106.749 236.861C105.606 237.165 104.593 237.793 103.711 238.745C102.829 239.696 102.13 240.931 101.613 242.45L101.604 242.476C101.085 244.003 100.889 245.415 101.017 246.71C101.135 248.002 101.558 249.108 102.285 250.029C103.008 250.959 104.004 251.639 105.273 252.071C106.541 252.502 107.75 252.571 108.899 252.279C110.036 251.992 111.05 251.374 111.941 250.425C112.829 249.485 113.534 248.247 114.056 246.711L114.065 246.685C114.585 245.158 114.78 243.747 114.653 242.452C114.525 241.157 114.1 240.045 113.376 239.115C112.653 238.185 111.652 237.503 110.375 237.069Z" fill="white"/>
<path d="M89.8745 233.047L88.061 235.896L87.8188 235.741L75.5624 239.414L72.9559 237.754L84.3556 234.46L84.4594 234.527L89.8745 233.047ZM95.3604 228.63L84.7659 245.272L82.6899 243.951L93.2844 227.308L95.3604 228.63ZM85.5917 222.411L86.5723 234.186L84.1678 234.73L82.9391 220.723L85.5917 222.411Z" fill="white"/>
<path d="M70.1153 209.032L54.5333 221.132L53.0658 219.242L59.7997 197.62L59.336 201.927L58.6651 201.063L46.3658 210.614L44.8732 208.692L60.4552 196.592L61.9227 198.482L55.1888 220.104L55.6525 215.797L56.3234 216.661L68.6227 207.11L70.1153 209.032Z" fill="white"/>
<path d="M52.9995 181.474C53.738 183.19 53.9964 184.84 53.7748 186.424C53.5497 187.999 52.8838 189.427 51.7774 190.707C50.6709 191.986 49.1591 193.039 47.2417 193.864L47.2166 193.875C45.2993 194.699 43.4998 195.072 41.8182 194.992C40.1246 194.907 38.6285 194.404 37.3299 193.484C36.0276 192.556 35.0091 191.238 34.2743 189.53C33.5394 187.822 33.2846 186.181 33.5098 184.605C33.735 183.03 34.4008 181.603 35.5072 180.323C36.6053 179.047 38.113 177.996 40.0303 177.171L40.0554 177.16C41.9727 176.336 43.7764 175.961 45.4664 176.038C47.1564 176.115 48.6507 176.613 49.9493 177.532C51.2444 178.444 52.2611 179.758 52.9995 181.474ZM50.9148 182.371C50.378 181.124 49.6197 180.18 48.6399 179.54C47.648 178.895 46.5034 178.564 45.206 178.546C43.9087 178.529 42.5232 178.837 41.0496 179.471L41.0245 179.482C39.5426 180.12 38.3636 180.92 37.4877 181.882C36.6082 182.836 36.0699 183.891 35.8729 185.047C35.6675 186.207 35.8295 187.403 36.359 188.633C36.8886 189.864 37.6469 190.808 38.634 191.465C39.6091 192.117 40.7471 192.456 42.0481 192.482C43.3407 192.511 44.7321 192.205 46.2224 191.564L46.2475 191.553C47.7295 190.915 48.9084 190.115 49.7843 189.153C50.6602 188.191 51.2009 187.13 51.4063 185.97C51.6117 184.81 51.4479 183.61 50.9148 182.371Z" fill="white"/>
<path d="M46.2489 161.711L27.3242 169.454L27.0103 166.902L42.6043 160.975L42.5977 160.921L25.9718 158.462L25.6679 155.993L41.2018 149.577L41.1951 149.522L24.6293 147.552L24.3154 145.001L44.5525 147.925L44.8363 150.232L29.7109 156.721L29.7176 156.775L45.965 159.405L46.2489 161.711Z" fill="white"/>
<path d="M39.4328 123.672L37.2769 123.165L39.2815 114.648L41.4375 115.155L39.4328 123.672Z" fill="white"/>
<path d="M55.7793 97.317L53.9147 96.1995L56.9228 91.1803C57.6819 89.9138 58.008 88.8022 57.9012 87.8456C57.7913 86.8765 57.2517 86.1015 56.2822 85.5205L56.2588 85.5064C55.6021 85.1129 54.9634 84.9373 54.3429 84.9798C53.7223 85.0223 53.1199 85.2829 52.5355 85.7615C51.9558 86.2323 51.3966 86.9173 50.8577 87.8163L47.9691 92.6361L46.1514 91.5468L48.6816 87.325C49.4313 86.0741 49.7605 84.9751 49.6694 84.0279C49.583 83.0728 49.0824 82.3212 48.1677 81.773L48.1442 81.759C47.3077 81.2576 46.5042 81.1533 45.7337 81.446C44.9554 81.734 44.2594 82.3901 43.6456 83.4142L40.7218 88.2927L38.8572 87.1752L42.0691 81.8159C42.6501 80.8465 43.3344 80.1037 44.122 79.5874C44.9095 79.0712 45.7418 78.7996 46.6187 78.7726C47.4956 78.7455 48.3562 78.9851 49.2005 79.4911L49.224 79.5052C49.8104 79.8566 50.2897 80.3245 50.662 80.9089C51.0343 81.4933 51.266 82.1263 51.357 82.8078C51.4402 83.4846 51.3491 84.1419 51.0836 84.7798L51.1306 84.8079C51.7117 84.0511 52.3656 83.4919 53.0922 83.1305C53.8189 82.769 54.573 82.61 55.3546 82.6534C56.1284 82.6921 56.8906 82.9363 57.6411 83.3861L57.6646 83.4002C58.6574 83.9952 59.3714 84.7366 59.8064 85.6242C60.2382 86.4994 60.3904 87.4778 60.2627 88.5596C60.1273 89.6367 59.6988 90.7772 58.9772 91.9812L55.7793 97.317ZM55.1468 98.3724L38.2246 88.2306L39.4897 86.1197L56.4119 96.2615L55.1468 98.3724Z" fill="white"/>
<path d="M72.8384 74.7527C71.5257 76.0824 70.094 76.9424 68.5433 77.3326C66.9989 77.7164 65.4258 77.6363 63.8239 77.0923C62.222 76.5483 60.6784 75.5432 59.193 74.0768L59.1735 74.0576C57.6882 72.5912 56.6665 71.0638 56.1084 69.4755C55.5503 67.8742 55.4531 66.299 55.817 64.7499C56.1872 63.1942 57.0255 61.7548 58.3318 60.4316C59.6381 59.1084 61.0634 58.2549 62.6078 57.8711C64.1521 57.4874 65.7252 57.5675 67.3271 58.1115C68.9225 58.649 70.4629 59.651 71.9483 61.1174L71.9677 61.1366C73.4531 62.603 74.4781 64.1335 75.0426 65.7283C75.6072 67.323 75.7075 68.895 75.3436 70.4442C74.9862 71.9869 74.1511 73.423 72.8384 74.7527ZM71.2233 73.1583C72.1775 72.1918 72.7668 71.1343 72.9915 69.9856C73.216 68.824 73.0924 67.6389 72.6205 66.4303C72.1487 65.2216 71.342 64.0538 70.2004 62.9268L70.181 62.9076C69.0329 61.7742 67.8483 60.9826 66.6273 60.5329C65.4127 60.0766 64.2326 59.9747 63.087 60.227C61.9349 60.4728 60.8882 61.0725 59.9469 62.026C59.0056 62.9795 58.4162 64.0371 58.1788 65.1987C57.9413 66.3475 58.0552 67.5294 58.5206 68.7446C58.9796 69.9533 59.7863 71.1276 60.9409 72.2674L60.9603 72.2866C62.1084 73.42 63.293 74.2115 64.514 74.6613C65.735 75.111 66.9216 75.213 68.0737 74.9671C69.2257 74.7212 70.2756 74.1183 71.2233 73.1583Z" fill="white"/>
<path d="M92.587 59.2705C90.9775 60.2197 89.3733 60.6844 87.7743 60.6645C86.1832 60.64 84.6831 60.1597 83.2739 59.2237C81.8647 58.2876 80.63 56.9207 79.5696 55.1228L79.5557 55.0993C78.4954 53.3014 77.8989 51.5633 77.7662 49.885C77.6367 48.1943 77.9462 46.6467 78.6946 45.2424C79.4509 43.8334 80.6298 42.6566 82.2314 41.712C83.833 40.7675 85.4293 40.3074 87.0205 40.332C88.6116 40.3565 90.1117 40.8368 91.5209 41.7728C92.9255 42.701 94.1579 44.064 95.2182 45.8619L95.2321 45.8854C96.2925 47.6833 96.8913 49.4253 97.0286 51.1114C97.166 52.7976 96.8604 54.3428 96.112 55.7472C95.3714 57.1469 94.1964 58.3213 92.587 59.2705ZM91.434 57.3157C92.6038 56.6258 93.4444 55.7544 93.9556 54.7015C94.4702 53.6362 94.6541 52.4589 94.5075 51.1698C94.361 49.8806 93.8802 48.5451 93.0653 47.1634L93.0514 47.1398C92.2318 45.7502 91.2895 44.6817 90.2244 43.9343C89.1671 43.1822 88.0524 42.7814 86.8804 42.732C85.7038 42.6746 84.5384 42.9863 83.3843 43.6669C82.2302 44.3476 81.3897 45.2189 80.8627 46.2811C80.3389 47.3307 80.1464 48.5024 80.2851 49.7962C80.4192 51.0821 80.8984 52.4238 81.7226 53.8213L81.7365 53.8449C82.556 55.2345 83.4984 56.303 84.5635 57.0504C85.6286 57.7978 86.7495 58.2002 87.9262 58.2576C89.1028 58.3149 90.2721 58.0009 91.434 57.3157Z" fill="white"/>
<path d="M107.849 44.3912L106.871 41.159L107.145 41.0759L112.351 29.3877L115.308 28.4929L110.374 39.2846L110.257 39.3203L107.849 44.3912ZM107.622 51.4305L101.908 32.5475L104.264 31.8348L109.977 50.7178L107.622 51.4305ZM118.706 48.0767L109.137 41.1445L110.293 38.9666L121.715 47.166L118.706 48.0767Z" fill="white"/>
<path d="M138.941 45.063L139.923 25.359L142.312 25.4781L154.319 44.6797L151.355 41.5204L152.447 41.5748L153.223 26.0219L155.653 26.143L154.671 45.8471L152.282 45.728L140.275 26.5264L143.239 29.6857L142.146 29.6312L141.371 45.1842L138.941 45.063Z" fill="white"/>
<path d="M170.996 50.0488C169.213 49.4898 167.793 48.6102 166.737 47.4097C165.689 46.2121 165.04 44.7766 164.791 43.1033C164.542 41.43 164.73 39.5975 165.354 37.6059L165.362 37.5798C165.987 35.5881 166.877 33.9808 168.034 32.7579C169.203 31.529 170.559 30.722 172.103 30.3368C173.656 29.9543 175.319 30.0412 177.093 30.5974C178.868 31.1536 180.279 32.0305 181.326 33.2282C182.374 34.4259 183.023 35.8614 183.272 37.5347C183.524 39.1993 183.338 41.0274 182.713 43.0191L182.705 43.0452C182.081 45.0368 181.189 46.6485 180.029 47.8801C178.869 49.1117 177.517 49.9201 175.973 50.3053C174.438 50.6932 172.779 50.6077 170.996 50.0488ZM171.675 47.8832C172.97 48.2894 174.18 48.3296 175.305 48.0039C176.44 47.6721 177.438 47.02 178.296 46.0475C179.155 45.075 179.825 43.8234 180.305 42.2927L180.313 42.2666C180.795 40.7272 180.957 39.3117 180.799 38.0202C180.649 36.7314 180.199 35.6354 179.451 34.7321C178.705 33.8202 177.693 33.1638 176.415 32.763C175.136 32.3622 173.926 32.322 172.784 32.6423C171.654 32.9566 170.655 33.5987 169.788 34.5685C168.923 35.5296 168.248 36.7842 167.763 38.3323L167.754 38.3584C167.272 39.8978 167.11 41.3132 167.269 42.6047C167.427 43.8962 167.879 44.998 168.625 45.9099C169.371 46.8219 170.387 47.4796 171.675 47.8832Z" fill="white"/>
<path d="M190.383 57.8133L196.849 38.4155L198.988 39.8405L193.317 55.5296L193.362 55.5599L206.065 44.5551L208.136 45.9346L202.875 61.8966L202.92 61.9269L215.213 50.6492L217.352 52.0742L201.943 65.5144L200.009 64.2258L204.948 48.5256L204.902 48.4953L192.317 59.1019L190.383 57.8133Z" fill="white"/>
<path d="M223.671 77.4419L225.462 76.1379L230.613 83.2104L228.823 84.5144L223.671 77.4419Z" fill="white"/>
<path d="M233.001 107.018L235.063 106.333L236.909 111.886C237.374 113.287 238.005 114.259 238.799 114.802C239.606 115.35 240.546 115.446 241.618 115.09L241.644 115.081C242.371 114.84 242.92 114.47 243.292 113.972C243.665 113.473 243.86 112.847 243.878 112.092C243.899 111.345 243.744 110.474 243.413 109.48L241.642 104.147L243.653 103.479L245.205 108.15C245.664 109.534 246.283 110.5 247.061 111.048C247.841 111.605 248.738 111.716 249.75 111.379L249.776 111.371C250.701 111.063 251.304 110.522 251.584 109.747C251.873 108.969 251.83 108.013 251.453 106.88L249.66 101.483L251.723 100.798L253.693 106.727C254.049 107.799 254.166 108.803 254.044 109.736C253.922 110.67 253.586 111.478 253.035 112.161C252.484 112.843 251.741 113.34 250.807 113.65L250.781 113.659C250.132 113.874 249.465 113.933 248.779 113.834C248.093 113.736 247.462 113.499 246.886 113.123C246.318 112.745 245.879 112.248 245.569 111.631L245.517 111.648C245.712 112.582 245.71 113.442 245.51 114.229C245.31 115.016 244.939 115.691 244.397 116.256C243.863 116.817 243.181 117.236 242.351 117.512L242.325 117.52C241.226 117.885 240.199 117.943 239.242 117.695C238.297 117.452 237.456 116.929 236.719 116.127C235.99 115.322 235.405 114.254 234.962 112.922L233.001 107.018ZM232.613 105.851L251.335 99.6299L252.111 101.965L233.389 108.186L232.613 105.851Z" fill="white"/>
<path d="M238.991 134.664C238.838 132.802 239.119 131.156 239.834 129.725C240.55 128.304 241.636 127.163 243.093 126.303C244.55 125.443 246.318 124.928 248.399 124.757L248.426 124.755C250.506 124.585 252.33 124.805 253.899 125.418C255.477 126.038 256.735 126.992 257.672 128.277C258.61 129.572 259.156 131.146 259.307 132.999C259.459 134.853 259.177 136.49 258.462 137.911C257.746 139.332 256.66 140.473 255.203 141.333C253.755 142.193 251.991 142.707 249.911 142.878L249.884 142.88C247.803 143.051 245.974 142.83 244.397 142.219C242.82 141.607 241.562 140.658 240.625 139.373C239.688 138.096 239.143 136.526 238.991 134.664ZM241.253 134.479C241.364 135.832 241.781 136.969 242.506 137.888C243.24 138.815 244.22 139.494 245.444 139.924C246.668 140.354 248.079 140.504 249.678 140.373L249.705 140.371C251.313 140.239 252.686 139.857 253.823 139.224C254.961 138.6 255.807 137.772 256.363 136.739C256.927 135.705 257.155 134.52 257.045 133.185C256.936 131.849 256.518 130.713 255.792 129.776C255.076 128.847 254.105 128.163 252.88 127.723C251.665 127.283 250.248 127.13 248.631 127.262L248.604 127.264C246.996 127.396 245.624 127.778 244.487 128.411C243.35 129.044 242.499 129.877 241.934 130.911C241.37 131.945 241.143 133.134 241.253 134.479Z" fill="white"/>
<path d="M237.857 159.732C238.186 157.893 238.879 156.374 239.937 155.174C240.993 153.984 242.335 153.159 243.963 152.701C245.592 152.242 247.433 152.197 249.488 152.565L249.515 152.57C251.569 152.938 253.276 153.618 254.635 154.612C256.002 155.616 256.974 156.859 257.551 158.342C258.126 159.834 258.25 161.496 257.922 163.326C257.594 165.156 256.903 166.667 255.847 167.857C254.791 169.048 253.449 169.872 251.82 170.331C250.201 170.791 248.364 170.837 246.309 170.469L246.282 170.464C244.228 170.096 242.516 169.414 241.148 168.419C239.78 167.424 238.808 166.185 238.231 164.702C237.652 163.228 237.527 161.572 237.857 159.732ZM240.091 160.132C239.851 161.469 239.964 162.675 240.429 163.749C240.902 164.833 241.674 165.74 242.748 166.47C243.821 167.199 245.147 167.705 246.726 167.988L246.753 167.992C248.341 168.277 249.765 168.259 251.026 167.938C252.286 167.627 253.317 167.043 254.118 166.186C254.929 165.332 255.452 164.245 255.688 162.926C255.924 161.607 255.812 160.401 255.35 159.309C254.895 158.228 254.132 157.318 253.061 156.58C251.998 155.843 250.668 155.332 249.071 155.046L249.044 155.041C247.456 154.757 246.032 154.775 244.771 155.095C243.51 155.416 242.474 156.003 241.663 156.858C240.853 157.713 240.328 158.805 240.091 160.132Z" fill="white"/>
<path d="M239.191 181.005L242.28 182.371L242.163 182.633L247.633 194.2L246.384 197.026L241.417 186.249L241.467 186.137L239.191 181.005ZM234.001 176.244L252.045 184.221L251.05 186.472L233.006 178.495L234.001 176.244ZM229.319 186.835L240.813 184.099L241.711 186.395L228.047 189.711L229.319 186.835Z" fill="white"/>
<path d="M218.413 204.144L232.714 217.734L231.066 219.468L208.679 216.056L213.006 215.868L212.253 216.661L223.542 227.387L221.865 229.151L207.564 215.562L209.212 213.827L231.599 217.24L227.272 217.428L228.025 216.635L216.736 205.908L218.413 204.144Z" fill="white"/>
<path d="M193.735 225.202C195.322 224.214 196.914 223.711 198.513 223.693C200.104 223.679 201.616 224.123 203.047 225.025C204.478 225.927 205.746 227.263 206.849 229.035L206.863 229.058C207.967 230.83 208.605 232.554 208.778 234.228C208.948 235.915 208.676 237.47 207.961 238.892C207.239 240.319 206.089 241.523 204.511 242.506C202.932 243.489 201.347 243.987 199.756 244.001C198.165 244.015 196.654 243.571 195.222 242.669C193.796 241.775 192.531 240.442 191.428 238.67L191.413 238.647C190.31 236.875 189.669 235.148 189.491 233.466C189.314 231.783 189.582 230.231 190.296 228.809C191.003 227.392 192.149 226.19 193.735 225.202ZM194.935 227.129C193.782 227.846 192.963 228.738 192.477 229.803C191.988 230.88 191.833 232.061 192.01 233.347C192.188 234.632 192.701 235.955 193.549 237.317L193.563 237.34C194.416 238.71 195.384 239.755 196.466 240.477C197.541 241.203 198.665 241.577 199.838 241.598C201.016 241.627 202.174 241.288 203.311 240.58C204.448 239.871 205.268 238.98 205.769 237.906C206.267 236.844 206.432 235.668 206.262 234.378C206.097 233.095 205.585 231.765 204.728 230.388L204.713 230.365C203.861 228.995 202.893 227.95 201.81 227.228C200.727 226.507 199.597 226.131 198.419 226.102C197.242 226.073 196.08 226.415 194.935 227.129Z" fill="white"/>
<path d="M181.267 240.3L181.864 242.433L173.439 244.793L172.841 242.66L181.267 240.3Z" fill="white"/>
<defs>
<clipPath id="clip0_1_22915">
<rect width="116" height="116" fill="white" transform="translate(85 85)"/>
</clipPath>
</defs>
</svg>
